SplineFontDB: 3.0
FontName: Ruluko
FullName: Ruluko
FamilyName: Ruluko
Weight: Book
Copyright: Copyright (c) 2011, Ana Sanfelippo, Angelica Diaz y Meme Hernandez (anasanfe@gmail.com - angiecina@gmail.com), with Reserved Font Name "Ruluko"
Version: 1.001
ItalicAngle: 0
UnderlinePosition: -50
UnderlineWidth: 50
Ascent: 800
Descent: 200
sfntRevision: 0x00010042
LayerCount: 2
Layer: 0 1 "Back"  1
Layer: 1 1 "Fore"  0
XUID: [1021 818 561654308 1569648]
FSType: 0
OS2Version: 2
OS2_WeightWidthSlopeOnly: 0
OS2_UseTypoMetrics: 1
CreationTime: 1325880226
ModificationTime: 1325881675
PfmFamily: 17
TTFWeight: 400
TTFWidth: 5
LineGap: 0
VLineGap: 0
Panose: 2 0 0 0 0 0 0 0 0 0
OS2TypoAscent: 114
OS2TypoAOffset: 1
OS2TypoDescent: -41
OS2TypoDOffset: 1
OS2TypoLinegap: 0
OS2WinAscent: 0
OS2WinAOffset: 1
OS2WinDescent: 0
OS2WinDOffset: 1
HheadAscent: 0
HheadAOffset: 1
HheadDescent: 0
HheadDOffset: 1
OS2SubXSize: 700
OS2SubYSize: 650
OS2SubXOff: 0
OS2SubYOff: 140
OS2SupXSize: 700
OS2SupYSize: 650
OS2SupXOff: 0
OS2SupYOff: 477
OS2StrikeYSize: 50
OS2StrikeYPos: 250
OS2Vendor: 'pyrs'
OS2CodePages: 00000001.00000000
OS2UnicodeRanges: 80000063.00000000.00000000.00000000
Lookup: 258 0 0 "'kern' Horizontal Kerning lookup 0"  {"'kern' Horizontal Kerning lookup 0 subtable"  } ['kern' ('DFLT' <'dflt' > ) ]
DEI: 91125
TtTable: prep
PUSHW_1
 511
SCANCTRL
PUSHB_1
 4
SCANTYPE
EndTTInstrs
ShortTable: maxp 16
  1
  0
  256
  59
  5
  0
  0
  2
  0
  1
  1
  0
  64
  0
  0
  0
EndShort
LangName: 1033 "" "" "Regular" "AnaSanfelippo,AngelicaDiazyMemeHernandez: Ruluko: 2009" "" "Version 1.001" "" "" "Ana Sanfelippo, Angelica Diaz y Meme Hernandez" "Ana Sanfelippo, Angelica Diaz, Meme Hernandez" "" "" "www.anasanfelippo.com.ar" "This Font Software is licensed under the SIL Open Font License, Version 1.1. This license is available with a FAQ at: http://scripts.sil.org/OFL" "http://scripts.sil.org/OFL" 
GaspTable: 1 65535 15 1
Encoding: UnicodeBmp
UnicodeInterp: none
NameList: Adobe Glyph List

StartChar: exclam
Encoding: 33 33 4
Width: 236
GlyphClass: 2
Flags: W
LayerCount: 2
Fore
SplineSet
126 -12 m 128,-1,1
 80 -12 80 -12 80 35.5 c 128,-1,2
 80 83 80 83 124 83 c 0,3,4
 172 83 172 83 172 34 c 0,5,6
 172 -12 172 -12 126 -12 c 128,-1,7
 80 -12 80 -12 80 35.5 c 128,-1,8
 80 83 80 83 124 83 c 0,9,10
 172 83 172 83 172 34 c 0,11,0
 172 -12 172 -12 126 -12 c 128,-1,1
119 746 m 0,12,13
 121 746 121 746 176 733 c 1,14,-1
 148 183 l 1,15,-1
 95 183 l 1,16,-1
 96 663 l 2,17,18
 96 708 96 708 101 727 c 128,-1,19
 106 746 106 746 119 746 c 0,12,13
EndSplineSet
EndChar

StartChar: quotedbl
Encoding: 34 34 5
Width: 224
GlyphClass: 2
Flags: W
LayerCount: 2
Fore
SplineSet
38 502 m 1,0,1
 31 637 31 637 31 663 c 128,-1,2
 31 689 31 689 39 697 c 0,3,4
 45 702 45 702 54 702 c 1,5,-1
 97 696 l 1,6,-1
 75 498 l 1,7,-1
 38 502 l 1,0,1
135 502 m 1,8,9
 128 637 128 637 128 663 c 128,-1,10
 128 689 128 689 136 697 c 0,11,12
 142 702 142 702 151 702 c 1,13,-1
 194 696 l 1,14,-1
 172 498 l 1,15,-1
 135 502 l 1,8,9
EndSplineSet
EndChar

StartChar: numbersign
Encoding: 35 35 6
Width: 600
GlyphClass: 2
Flags: W
LayerCount: 2
Fore
SplineSet
67 426 m 1,0,-1
 67 471 l 1,1,-1
 539 471 l 1,2,-1
 539 426 l 1,3,-1
 67 426 l 1,0,-1
61 206 m 1,4,-1
 61 251 l 1,5,-1
 533 251 l 1,6,-1
 533 206 l 1,7,-1
 61 206 l 1,4,-1
353 0 m 1,8,-1
 383 671 l 1,9,10
 407 671 407 671 433 666 c 1,11,-1
 403 0 l 1,12,-1
 353 0 l 1,8,-1
175 0 m 1,13,-1
 205 671 l 1,14,15
 235 671 235 671 255 666 c 1,16,-1
 225 0 l 1,17,-1
 175 0 l 1,13,-1
EndSplineSet
EndChar

StartChar: dollar
Encoding: 36 36 7
Width: 570
GlyphClass: 2
Flags: W
LayerCount: 2
Fore
SplineSet
164.5 613.5 m 128,-1,1
 216 659 216 659 292 664 c 1,2,-1
 296 745 l 1,3,4
 321 745 321 745 336 740 c 1,5,-1
 332 664 l 1,6,7
 399 661 399 661 457 638 c 1,8,-1
 442 586 l 1,9,10
 383 604 383 604 330 605 c 1,11,-1
 320 371 l 1,12,13
 354 356 354 356 369.5 348.5 c 128,-1,14
 385 341 385 341 413 322.5 c 128,-1,15
 441 304 441 304 454 287 c 0,16,17
 489 241 489 241 489 172 c 128,-1,18
 489 103 489 103 437.5 54.5 c 128,-1,19
 386 6 386 6 303 -3 c 1,20,-1
 300 -83 l 1,21,-1
 260 -83 l 1,22,-1
 263 -5 l 1,23,24
 167 -3 167 -3 89 57 c 1,25,-1
 105 107 l 1,26,27
 182 56 182 56 266 56 c 1,28,-1
 277 310 l 1,29,30
 173 357 173 357 146 394 c 0,31,32
 113 441 113 441 113 504.5 c 128,-1,0
 113 568 113 568 164.5 613.5 c 128,-1,1
384.5 98.5 m 128,-1,34
 414 129 414 129 414 173.5 c 128,-1,35
 414 218 414 218 389 244 c 128,-1,36
 364 270 364 270 316 293 c 1,37,-1
 306 59 l 1,38,33
 355 68 355 68 384.5 98.5 c 128,-1,34
190 504 m 0,39,40
 190 433 190 433 280 390 c 1,41,-1
 290 602 l 1,42,43
 246 594 246 594 218 568 c 128,-1,44
 190 542 190 542 190 504 c 0,39,40
EndSplineSet
EndChar

StartChar: percent
Encoding: 37 37 8
Width: 867
GlyphClass: 2
Flags: W
LayerCount: 2
Fore
SplineSet
209 358 m 0,0,1
 292 358 292 358 292 499 c 0,2,3
 292 558 292 558 276.5 591 c 128,-1,4
 261 624 261 624 215 624 c 0,5,6
 138 624 138 624 138 486 c 0,7,8
 138 447 138 447 141.5 422.5 c 128,-1,9
 145 398 145 398 161.5 378 c 128,-1,10
 178 358 178 358 209 358 c 0,0,1
313.5 367 m 128,-1,12
 277 313 277 313 206.5 313 c 128,-1,13
 136 313 136 313 108 357 c 128,-1,14
 80 401 80 401 80 484.5 c 128,-1,15
 80 568 80 568 112.5 618.5 c 128,-1,16
 145 669 145 669 215 669 c 128,-1,17
 285 669 285 669 317.5 623 c 128,-1,18
 350 577 350 577 350 499 c 128,-1,11
 350 421 350 421 313.5 367 c 128,-1,12
665 671 m 1,19,-1
 231 -33 l 1,20,21
 209 -26 209 -26 197 -12 c 1,22,-1
 631 692 l 1,23,24
 653 685 653 685 665 671 c 1,19,-1
646 52 m 0,25,26
 729 52 729 52 729 193 c 0,27,28
 729 252 729 252 713.5 285 c 128,-1,29
 698 318 698 318 652 318 c 0,30,31
 575 318 575 318 575 180 c 0,32,33
 575 141 575 141 578.5 116.5 c 128,-1,34
 582 92 582 92 598.5 72 c 128,-1,35
 615 52 615 52 646 52 c 0,25,26
750.5 61 m 128,-1,37
 714 7 714 7 643.5 7 c 128,-1,38
 573 7 573 7 545 51 c 128,-1,39
 517 95 517 95 517 178.5 c 128,-1,40
 517 262 517 262 549.5 312.5 c 128,-1,41
 582 363 582 363 652 363 c 128,-1,42
 722 363 722 363 754.5 317 c 128,-1,43
 787 271 787 271 787 193 c 128,-1,36
 787 115 787 115 750.5 61 c 128,-1,37
EndSplineSet
EndChar

StartChar: ampersand
Encoding: 38 38 9
Width: 705
GlyphClass: 2
Flags: W
LayerCount: 2
Fore
SplineSet
381 406 m 0,0,1
 381 437 381 437 359.5 454 c 128,-1,2
 338 471 338 471 302 471 c 0,3,4
 167 471 167 471 140 285 c 1,5,6
 381 288 381 288 381 406 c 0,0,1
293 54 m 0,7,8
 361 54 361 54 413 94.5 c 128,-1,9
 465 135 465 135 490 195.5 c 128,-1,10
 515 256 515 256 515 324 c 1,11,-1
 670 337 l 1,12,-1
 664 283 l 1,13,-1
 578 271 l 1,14,15
 554 149 554 149 476 69 c 128,-1,16
 398 -11 398 -11 284.5 -11 c 128,-1,17
 171 -11 171 -11 114.5 56.5 c 128,-1,18
 58 124 58 124 58 245 c 128,-1,19
 58 366 58 366 125 451 c 128,-1,20
 192 536 192 536 306 536 c 0,21,22
 365 536 365 536 406 507 c 128,-1,23
 447 478 447 478 447 424 c 0,24,25
 447 406 447 406 439 398 c 1,26,-1
 443 393 l 1,27,28
 474 421 474 421 498 472.5 c 128,-1,29
 522 524 522 524 529 567 c 1,30,-1
 573 555 l 1,31,32
 573 494 573 494 537 426.5 c 128,-1,33
 501 359 501 359 450 316 c 0,34,35
 347 230 347 230 138 229 c 1,36,37
 138 54 138 54 293 54 c 0,7,8
EndSplineSet
EndChar

StartChar: quotesingle
Encoding: 39 39 10
Width: 128
GlyphClass: 2
Flags: W
LayerCount: 2
Fore
SplineSet
44 498 m 1,0,1
 31 642 31 642 31 665 c 0,2,3
 31 702 31 702 55 702 c 1,4,-1
 98 696 l 1,5,-1
 81 502 l 1,6,-1
 44 498 l 1,0,1
EndSplineSet
EndChar

StartChar: parenleft
Encoding: 40 40 11
Width: 306
GlyphClass: 2
Flags: W
LayerCount: 2
Fore
SplineSet
70 283 m 128,-1,1
 70 562 70 562 234 745 c 1,2,-1
 266 719 l 1,3,4
 147 542 147 542 147 282 c 128,-1,5
 147 22 147 22 266 -153 c 1,6,-1
 234 -179 l 1,7,0
 70 4 70 4 70 283 c 128,-1,1
EndSplineSet
EndChar

StartChar: parenright
Encoding: 41 41 12
Width: 306
GlyphClass: 2
Flags: W
LayerCount: 2
Fore
SplineSet
40 -153 m 1,0,1
 159 22 159 22 159 282 c 128,-1,2
 159 542 159 542 40 719 c 1,3,-1
 72 745 l 1,4,5
 236 562 236 562 236 283 c 128,-1,6
 236 4 236 4 72 -179 c 1,7,-1
 40 -153 l 1,0,1
EndSplineSet
EndChar

StartChar: asterisk
Encoding: 42 42 13
Width: 300
GlyphClass: 2
Flags: W
LayerCount: 2
Fore
SplineSet
15 709 m 2,0,-1
 15 714 l 1,1,-1
 24 733 l 1,2,-1
 25 733 l 1,3,-1
 113 710 l 1,4,-1
 147 797 l 1,5,-1
 186 790 l 1,6,-1
 186 697 l 1,7,-1
 282 695 l 1,8,-1
 289 660 l 1,9,-1
 193 627 l 1,10,-1
 215 542 l 1,11,-1
 214 542 l 1,12,13
 195 532 195 532 191 532 c 0,14,15
 175 532 175 532 163 555 c 2,16,-1
 138 602 l 1,17,-1
 53 551 l 1,18,-1
 33 571 l 1,19,-1
 84 656 l 1,20,-1
 37 681 l 2,21,22
 26 687 26 687 20.5 695.5 c 128,-1,23
 15 704 15 704 15 709 c 2,0,-1
EndSplineSet
EndChar

StartChar: plus
Encoding: 43 43 14
Width: 409
GlyphClass: 2
Flags: W
LayerCount: 2
Fore
SplineSet
171 130 m 1,0,-1
 171 451 l 1,1,-1
 238 451 l 1,2,-1
 238 130 l 1,3,-1
 171 130 l 1,0,-1
51 257 m 1,4,-1
 51 324 l 1,5,-1
 358 320 l 1,6,-1
 352 261 l 1,7,-1
 51 257 l 1,4,-1
EndSplineSet
EndChar

StartChar: comma
Encoding: 44 44 15
Width: 208
GlyphClass: 2
Flags: W
LayerCount: 2
Fore
SplineSet
77 0 m 2,0,1
 81 20 81 20 81 35.5 c 128,-1,2
 81 51 81 51 75 68 c 1,3,-1
 133 75 l 1,4,5
 155 67 155 67 155 43.5 c 128,-1,6
 155 20 155 20 142 -11 c 2,7,-1
 101 -108 l 1,8,-1
 58 -93 l 1,9,-1
 77 0 l 2,0,1
EndSplineSet
EndChar

StartChar: hyphen
Encoding: 45 45 16
Width: 315
GlyphClass: 2
Flags: W
LayerCount: 2
Fore
SplineSet
51 232 m 1,0,-1
 51 299 l 1,1,-1
 280 295 l 1,2,-1
 274 236 l 1,3,-1
 51 232 l 1,0,-1
EndSplineSet
EndChar

StartChar: period
Encoding: 46 46 17
Width: 208
GlyphClass: 2
Flags: W
LayerCount: 2
Fore
SplineSet
60 32 m 0,0,1
 60 79 60 79 106 79 c 0,2,3
 148 79 148 79 148 33.5 c 128,-1,4
 148 -12 148 -12 104 -12 c 128,-1,5
 60 -12 60 -12 60 32 c 0,0,1
EndSplineSet
EndChar

StartChar: slash
Encoding: 47 47 18
Width: 371
GlyphClass: 2
Flags: W
LayerCount: 2
Fore
SplineSet
370 735 m 1,0,-1
 48 -74 l 1,1,2
 14 -71 14 -71 0 -59 c 1,3,-1
 322 750 l 1,4,5
 356 747 356 747 370 735 c 1,0,-1
EndSplineSet
EndChar

StartChar: zero
Encoding: 48 48 19
Width: 550
GlyphClass: 2
Flags: W
LayerCount: 2
Fore
SplineSet
382.5 20 m 128,-1,1
 336 -12 336 -12 272 -12 c 128,-1,2
 208 -12 208 -12 162.5 14 c 128,-1,3
 117 40 117 40 93 88 c 0,4,5
 50 175 50 175 50 324 c 0,6,7
 50 468 50 468 98 564 c 0,8,9
 124 615 124 615 171.5 643 c 128,-1,10
 219 671 219 671 283.5 671 c 128,-1,11
 348 671 348 671 392.5 646.5 c 128,-1,12
 437 622 437 622 461 576 c 0,13,14
 506 490 506 490 506 350 c 128,-1,15
 506 210 506 210 455 106 c 0,16,0
 429 52 429 52 382.5 20 c 128,-1,1
197 73 m 0,17,18
 228 50 228 50 273 50 c 128,-1,19
 318 50 318 50 350.5 78.5 c 128,-1,20
 383 107 383 107 399 154 c 0,21,22
 429 242 429 242 429 350 c 0,23,24
 429 457 429 457 405 526 c 0,25,26
 376 609 376 609 284 609 c 0,27,28
 238 609 238 609 205 583.5 c 128,-1,29
 172 558 172 558 156 514 c 0,30,31
 127 434 127 434 127 324 c 0,32,33
 127 125 127 125 197 73 c 0,17,18
EndSplineSet
EndChar

StartChar: one
Encoding: 49 49 20
Width: 550
GlyphClass: 2
Flags: W
LayerCount: 2
Fore
SplineSet
145 0 m 1,0,-1
 145 62 l 1,1,-1
 268 62 l 1,2,-1
 271 579 l 1,3,-1
 133 490 l 1,4,-1
 100 535 l 1,5,-1
 274 671 l 1,6,-1
 344 659 l 1,7,-1
 344 62 l 1,8,-1
 463 62 l 1,9,-1
 463 0 l 1,10,-1
 145 0 l 1,0,-1
EndSplineSet
EndChar

StartChar: two
Encoding: 50 50 21
Width: 550
GlyphClass: 2
Flags: W
LayerCount: 2
Fore
SplineSet
65 0 m 1,0,-1
 65 27 l 1,1,2
 121 83 121 83 183 154.5 c 128,-1,3
 245 226 245 226 261.5 248.5 c 128,-1,4
 278 271 278 271 304 310 c 128,-1,5
 330 349 330 349 342 376 c 0,6,7
 375 448 375 448 375 501 c 128,-1,8
 375 554 375 554 337.5 580.5 c 128,-1,9
 300 607 300 607 235.5 607 c 128,-1,10
 171 607 171 607 110 587 c 1,11,-1
 95 642 l 1,12,13
 170 671 170 671 256 671 c 128,-1,14
 342 671 342 671 397 626.5 c 128,-1,15
 452 582 452 582 452 495 c 0,16,17
 452 330 452 330 188 61 c 1,18,-1
 466 64 l 1,19,-1
 470 0 l 1,20,-1
 65 0 l 1,0,-1
EndSplineSet
EndChar

StartChar: three
Encoding: 51 51 22
Width: 550
GlyphClass: 2
Flags: W
LayerCount: 2
Fore
SplineSet
84 108 m 1,0,1
 151 50 151 50 228 50 c 128,-1,2
 305 50 305 50 346.5 87.5 c 128,-1,3
 388 125 388 125 388 191 c 128,-1,4
 388 257 388 257 348 288.5 c 128,-1,5
 308 320 308 320 239 320 c 2,6,-1
 175 320 l 1,7,-1
 175 375 l 1,8,9
 226 381 226 381 258 381 c 128,-1,10
 290 381 290 381 314 378 c 1,11,12
 376 424 376 424 376 499 c 0,13,14
 376 551 376 551 339 579 c 128,-1,15
 302 607 302 607 242.5 607 c 128,-1,16
 183 607 183 607 124 587 c 1,17,-1
 109 642 l 1,18,19
 184 671 184 671 265 671 c 128,-1,20
 346 671 346 671 399.5 625.5 c 128,-1,21
 453 580 453 580 453 499 c 128,-1,22
 453 418 453 418 378 358 c 1,23,24
 465 314 465 314 465 193 c 0,25,26
 465 101 465 101 404.5 44.5 c 128,-1,27
 344 -12 344 -12 252 -12 c 0,28,29
 201 -12 201 -12 150.5 5.5 c 128,-1,30
 100 23 100 23 68 56 c 1,31,-1
 84 108 l 1,0,1
EndSplineSet
EndChar

StartChar: four
Encoding: 52 52 23
Width: 550
GlyphClass: 2
Flags: W
LayerCount: 2
Fore
SplineSet
69 195 m 1,0,-1
 69 222 l 1,1,-1
 227 671 l 1,2,-1
 295 659 l 1,3,-1
 156 257 l 1,4,-1
 350 257 l 1,5,-1
 350 470 l 1,6,-1
 424 470 l 1,7,-1
 424 257 l 1,8,-1
 500 257 l 1,9,-1
 491 195 l 1,10,-1
 424 195 l 1,11,-1
 424 0 l 1,12,-1
 350 0 l 1,13,-1
 350 195 l 1,14,-1
 69 195 l 1,0,-1
EndSplineSet
EndChar

StartChar: five
Encoding: 53 53 24
Width: 550
GlyphClass: 2
Flags: W
LayerCount: 2
Fore
SplineSet
94 108 m 1,0,1
 164 50 164 50 246 50 c 0,2,3
 408 50 408 50 408 205 c 0,4,5
 408 274 408 274 368.5 310 c 128,-1,6
 329 346 329 346 266.5 346 c 128,-1,7
 204 346 204 346 121 335 c 1,8,-1
 143 659 l 1,9,-1
 450 659 l 1,10,-1
 441 597 l 1,11,-1
 208 597 l 1,12,-1
 195 402 l 1,13,14
 246 408 246 408 289 408 c 0,15,16
 381 408 381 408 433 353.5 c 128,-1,17
 485 299 485 299 485 202.5 c 128,-1,18
 485 106 485 106 424 47 c 128,-1,19
 363 -12 363 -12 266 -12 c 0,20,21
 144 -12 144 -12 78 57 c 1,22,-1
 94 108 l 1,0,1
EndSplineSet
EndChar

StartChar: six
Encoding: 54 54 25
Width: 550
GlyphClass: 2
Flags: W
LayerCount: 2
Fore
SplineSet
351 609 m 0,0,1
 258 609 258 609 208.5 550.5 c 128,-1,2
 159 492 159 492 150 388 c 1,3,4
 227 408 227 408 290 408 c 0,5,6
 389 408 389 408 442.5 355 c 128,-1,7
 496 302 496 302 496 206 c 128,-1,8
 496 110 496 110 438 49 c 128,-1,9
 380 -12 380 -12 288 -12 c 0,10,11
 185 -12 185 -12 134 54 c 1,12,13
 87 113 87 113 76 220 c 0,14,15
 71 266 71 266 71 343 c 128,-1,16
 71 420 71 420 99.5 496.5 c 128,-1,17
 128 573 128 573 190.5 622 c 128,-1,18
 253 671 253 671 342 671 c 0,19,20
 406 671 406 671 460 653 c 1,21,-1
 445 599 l 1,22,23
 398 609 398 609 351 609 c 0,0,1
288 50 m 0,24,25
 352 50 352 50 386 92 c 128,-1,26
 420 134 420 134 420 203 c 0,27,28
 420 346 420 346 280 346 c 0,29,30
 217 346 217 346 148 332 c 1,31,32
 148 172 148 172 182 110 c 0,33,34
 196 85 196 85 223 67.5 c 128,-1,35
 250 50 250 50 288 50 c 0,24,25
EndSplineSet
EndChar

StartChar: seven
Encoding: 55 55 26
Width: 550
GlyphClass: 2
Flags: W
LayerCount: 2
Fore
SplineSet
125 317 m 1,0,-1
 125 379 l 1,1,-1
 288 379 l 1,2,-1
 382 597 l 1,3,-1
 83 597 l 1,4,-1
 79 659 l 1,5,-1
 474 659 l 1,6,-1
 474 632 l 1,7,-1
 364 379 l 1,8,-1
 470 379 l 1,9,-1
 461 317 l 1,10,-1
 337 317 l 1,11,-1
 197 -7 l 1,12,-1
 127 5 l 1,13,-1
 261 317 l 1,14,-1
 125 317 l 1,0,-1
EndSplineSet
EndChar

StartChar: eight
Encoding: 56 56 27
Width: 550
GlyphClass: 2
Flags: W
LayerCount: 2
Fore
SplineSet
98 499 m 0,0,1
 98 573 98 573 149 622 c 128,-1,2
 200 671 200 671 274.5 671 c 128,-1,3
 349 671 349 671 401 626.5 c 128,-1,4
 453 582 453 582 453 509 c 0,5,6
 453 410 453 410 359 348 c 1,7,8
 420 321 420 321 454 283 c 128,-1,9
 488 245 488 245 488 177 c 0,10,11
 488 88 488 88 427.5 38 c 128,-1,12
 367 -12 367 -12 274.5 -12 c 128,-1,13
 182 -12 182 -12 122.5 36.5 c 128,-1,14
 63 85 63 85 63 172 c 0,15,16
 63 227 63 227 96 275.5 c 128,-1,17
 129 324 129 324 182 353 c 1,18,19
 98 404 98 404 98 499 c 0,0,1
133 173 m 0,20,21
 133 116 133 116 173.5 82.5 c 128,-1,22
 214 49 214 49 274.5 49 c 128,-1,23
 335 49 335 49 376.5 82 c 128,-1,24
 418 115 418 115 418 173 c 0,25,26
 418 212 418 212 401.5 230.5 c 128,-1,27
 385 249 385 249 375.5 257.5 c 128,-1,28
 366 266 366 266 344 277 c 128,-1,29
 322 288 322 288 311 293 c 0,30,31
 268 313 268 313 231 326 c 1,32,33
 133 264 133 264 133 173 c 0,20,21
382 503 m 0,34,35
 382 553 382 553 352.5 581.5 c 128,-1,36
 323 610 323 610 275 610 c 128,-1,37
 227 610 227 610 196.5 580.5 c 128,-1,38
 166 551 166 551 166 503.5 c 128,-1,39
 166 456 166 456 198.5 429.5 c 128,-1,40
 231 403 231 403 306 371 c 1,41,42
 382 428 382 428 382 503 c 0,34,35
EndSplineSet
EndChar

StartChar: nine
Encoding: 57 57 28
Width: 550
GlyphClass: 2
Flags: W
LayerCount: 2
Fore
SplineSet
199 50 m 0,0,1
 292 50 292 50 341.5 108.5 c 128,-1,2
 391 167 391 167 400 271 c 1,3,4
 323 251 323 251 260 251 c 0,5,6
 161 251 161 251 107.5 304 c 128,-1,7
 54 357 54 357 54 453 c 128,-1,8
 54 549 54 549 112 610 c 128,-1,9
 170 671 170 671 262 671 c 0,10,11
 365 671 365 671 416 605 c 1,12,13
 463 546 463 546 474 440 c 0,14,15
 479 393 479 393 479 316 c 128,-1,16
 479 239 479 239 450.5 162.5 c 128,-1,17
 422 86 422 86 359.5 37 c 128,-1,18
 297 -12 297 -12 208 -12 c 0,19,20
 144 -12 144 -12 90 6 c 1,21,-1
 105 60 l 1,22,23
 153 50 153 50 199 50 c 0,0,1
262 609 m 0,24,25
 198 609 198 609 164 567 c 128,-1,26
 130 525 130 525 130 456 c 0,27,28
 130 313 130 313 270 313 c 0,29,30
 333 313 333 313 402 327 c 1,31,32
 402 487 402 487 368 548 c 0,33,34
 354 574 354 574 327 591.5 c 128,-1,35
 300 609 300 609 262 609 c 0,24,25
EndSplineSet
EndChar

StartChar: colon
Encoding: 58 58 29
Width: 208
GlyphClass: 2
Flags: W
LayerCount: 2
Fore
SplineSet
60 315 m 0,0,1
 60 362 60 362 106 362 c 0,2,3
 148 362 148 362 148 316.5 c 128,-1,4
 148 271 148 271 104 271 c 128,-1,5
 60 271 60 271 60 315 c 0,0,1
60 32 m 0,6,7
 60 79 60 79 106 79 c 0,8,9
 148 79 148 79 148 33.5 c 128,-1,10
 148 -12 148 -12 104 -12 c 128,-1,11
 60 -12 60 -12 60 32 c 0,6,7
EndSplineSet
EndChar

StartChar: semicolon
Encoding: 59 59 30
Width: 208
GlyphClass: 2
Flags: W
LayerCount: 2
Fore
SplineSet
60 315 m 0,0,1
 60 362 60 362 106 362 c 0,2,3
 148 362 148 362 148 316.5 c 128,-1,4
 148 271 148 271 104 271 c 128,-1,5
 60 271 60 271 60 315 c 0,0,1
77 0 m 2,6,7
 81 20 81 20 81 35.5 c 128,-1,8
 81 51 81 51 75 68 c 1,9,-1
 133 75 l 1,10,11
 155 67 155 67 155 43.5 c 128,-1,12
 155 20 155 20 142 -11 c 2,13,-1
 101 -108 l 1,14,-1
 58 -93 l 1,15,-1
 77 0 l 2,6,7
EndSplineSet
EndChar

StartChar: less
Encoding: 60 60 31
Width: 433
GlyphClass: 2
Flags: W
LayerCount: 2
Fore
SplineSet
54 257 m 1,0,-1
 51 319 l 1,1,-1
 347 490 l 1,2,-1
 382 437 l 1,3,-1
 112 288 l 1,4,-1
 382 139 l 1,5,-1
 347 86 l 1,6,-1
 54 257 l 1,0,-1
EndSplineSet
EndChar

StartChar: equal
Encoding: 61 61 32
Width: 430
GlyphClass: 2
Flags: W
LayerCount: 2
Fore
SplineSet
51 306 m 1,0,-1
 51 373 l 1,1,-1
 379 369 l 1,2,-1
 373 310 l 1,3,-1
 51 306 l 1,0,-1
51 182 m 1,4,-1
 51 249 l 1,5,-1
 379 245 l 1,6,-1
 373 186 l 1,7,-1
 51 182 l 1,4,-1
EndSplineSet
EndChar

StartChar: greater
Encoding: 62 62 33
Width: 433
GlyphClass: 2
Flags: W
LayerCount: 2
Fore
SplineSet
86 86 m 1,0,-1
 51 139 l 1,1,-1
 321 288 l 1,2,-1
 51 437 l 1,3,-1
 86 490 l 1,4,-1
 382 319 l 1,5,-1
 379 257 l 1,6,-1
 86 86 l 1,0,-1
EndSplineSet
EndChar

StartChar: question
Encoding: 63 63 34
Width: 360
GlyphClass: 2
Flags: W
LayerCount: 2
Fore
SplineSet
76 34 m 0,0,1
 76 83 76 83 124 83 c 0,2,3
 168 83 168 83 168 35.5 c 128,-1,4
 168 -12 168 -12 122 -12 c 128,-1,5
 76 -12 76 -12 76 34 c 0,6,7
 76 83 76 83 124 83 c 0,8,9
 168 83 168 83 168 35.5 c 128,-1,10
 168 -12 168 -12 122 -12 c 128,-1,11
 76 -12 76 -12 76 34 c 0,0,1
146 362 m 0,12,13
 248 362 248 362 248 516.5 c 128,-1,14
 248 671 248 671 130 671 c 0,15,16
 103 671 103 671 74 665 c 1,17,-1
 65 713 l 1,18,19
 104 733 104 733 144 733 c 0,20,21
 230 733 230 733 277.5 673.5 c 128,-1,22
 325 614 325 614 325 520 c 128,-1,23
 325 426 325 426 284.5 368 c 128,-1,24
 244 310 244 310 162 310 c 1,25,-1
 145 311 l 1,26,-1
 151 203 l 1,27,-1
 103 191 l 1,28,29
 86 194 86 194 81 211.5 c 128,-1,30
 76 229 76 229 75 273 c 2,31,-1
 74 369 l 1,32,33
 103 362 103 362 146 362 c 0,12,13
EndSplineSet
EndChar

StartChar: at
Encoding: 64 64 35
Width: 933
GlyphClass: 2
Flags: W
LayerCount: 2
Fore
SplineSet
476 -175 m 0,0,1
 307 -175 307 -175 188.5 -54 c 128,-1,2
 70 67 70 67 70 239.5 c 128,-1,3
 70 412 70 412 186 533.5 c 128,-1,4
 302 655 302 655 472.5 655 c 128,-1,5
 643 655 643 655 753 557.5 c 128,-1,6
 863 460 863 460 863 285 c 0,7,8
 863 161 863 161 816.5 80 c 128,-1,9
 770 -1 770 -1 680 -1 c 0,10,11
 626 -1 626 -1 604 35 c 0,12,13
 587 62 587 62 587 85.5 c 128,-1,14
 587 109 587 109 589 122 c 1,15,-1
 583 122 l 1,16,17
 567 64 567 64 530 29.5 c 128,-1,18
 493 -5 493 -5 438 -5 c 0,19,20
 353 -5 353 -5 314.5 53 c 128,-1,21
 276 111 276 111 276 219 c 128,-1,22
 276 327 276 327 331 401 c 128,-1,23
 386 475 386 475 492 475 c 0,24,25
 530 475 530 475 567 467.5 c 128,-1,26
 604 460 604 460 641 445 c 1,27,-1
 641 198 l 2,28,29
 641 119 641 119 652 84.5 c 128,-1,30
 663 50 663 50 695 50 c 0,31,32
 793 50 793 50 793 285 c 0,33,34
 793 439 793 439 703.5 520.5 c 128,-1,35
 614 602 614 602 472 602 c 128,-1,36
 330 602 330 602 235 496.5 c 128,-1,37
 140 391 140 391 140 239.5 c 128,-1,38
 140 88 140 88 238 -17.5 c 128,-1,39
 336 -123 336 -123 476 -123 c 0,40,41
 536 -123 536 -123 593 -103 c 1,42,-1
 605 -147 l 1,43,44
 543 -175 543 -175 476 -175 c 0,0,1
577 338 m 2,45,-1
 577 409 l 1,46,47
 548 423 548 423 492 423 c 0,48,49
 349 423 349 423 349 207 c 0,50,51
 349 49 349 49 445 49 c 0,52,53
 485 49 485 49 513 76.5 c 128,-1,54
 541 104 541 104 554 152 c 0,55,56
 577 236 577 236 577 338 c 2,45,-1
EndSplineSet
EndChar

StartChar: A
Encoding: 65 65 36
Width: 569
GlyphClass: 2
Flags: W
LayerCount: 2
Fore
SplineSet
22 0 m 1,0,-1
 246 690 l 1,1,-1
 321 699 l 1,2,-1
 546 0 l 1,3,-1
 469 0 l 1,4,-1
 408 195 l 1,5,-1
 159 195 l 1,6,-1
 99 0 l 1,7,-1
 22 0 l 1,0,-1
288 618 m 2,8,-1
 282 618 l 1,9,10
 281 591 281 591 272 561 c 2,11,-1
 179 260 l 1,12,-1
 388 260 l 1,13,-1
 298 561 l 2,14,15
 292 583 292 583 289.5 600.5 c 128,-1,16
 287 618 287 618 288 618 c 2,8,-1
EndSplineSet
EndChar

StartChar: B
Encoding: 66 66 37
Width: 597
GlyphClass: 2
Flags: W
LayerCount: 2
Fore
SplineSet
113 682 m 1,0,1
 185 694 185 694 281 694 c 128,-1,2
 377 694 377 694 434 651.5 c 128,-1,3
 491 609 491 609 491 530 c 0,4,5
 491 475 491 475 462.5 437.5 c 128,-1,6
 434 400 434 400 381 386 c 1,7,-1
 381 380 l 1,8,9
 447 372 447 372 487 322 c 128,-1,10
 527 272 527 272 527 204 c 0,11,12
 527 103 527 103 455.5 45.5 c 128,-1,13
 384 -12 384 -12 273 -12 c 128,-1,14
 162 -12 162 -12 110 11 c 1,15,-1
 113 682 l 1,0,1
265 53 m 0,16,17
 349 53 349 53 398 89 c 128,-1,18
 447 125 447 125 447 201.5 c 128,-1,19
 447 278 447 278 405 307.5 c 128,-1,20
 363 337 363 337 276 337 c 1,21,-1
 188 333 l 1,22,-1
 188 58 l 1,23,24
 216 53 216 53 265 53 c 0,16,17
413 520 m 128,-1,26
 413 580 413 580 378 604.5 c 128,-1,27
 343 629 343 629 276 629 c 1,28,-1
 188 625 l 1,29,-1
 188 395 l 1,30,-1
 260 398 l 2,31,32
 329 401 329 401 371 430.5 c 128,-1,25
 413 460 413 460 413 520 c 128,-1,26
EndSplineSet
EndChar

StartChar: C
Encoding: 67 67 38
Width: 524
GlyphClass: 2
Flags: W
LayerCount: 2
Fore
SplineSet
316 -12 m 0,0,1
 174 -12 174 -12 120 92 c 0,2,3
 70 187 70 187 70 340 c 128,-1,4
 70 493 70 493 144 593.5 c 128,-1,5
 218 694 218 694 350 694 c 0,6,7
 414 694 414 694 473 674 c 1,8,-1
 458 618 l 1,9,10
 407 628 407 628 359 628 c 0,11,12
 150 628 150 628 150 338 c 0,13,14
 150 131 150 131 240 76 c 0,15,16
 277 54 277 54 331 54 c 0,17,18
 418 54 418 54 488 112 c 1,19,-1
 504 61 l 1,20,21
 438 -12 438 -12 316 -12 c 0,0,1
EndSplineSet
EndChar

StartChar: D
Encoding: 68 68 39
Width: 626
GlyphClass: 2
Flags: W
LayerCount: 2
Fore
SplineSet
300 694 m 0,0,1
 558 694 558 694 558 349 c 0,2,3
 558 196 558 196 490 95 c 0,4,5
 457 45 457 45 401.5 16.5 c 128,-1,6
 346 -12 346 -12 275 -12 c 0,7,8
 162 -12 162 -12 110 11 c 1,9,-1
 113 682 l 1,10,11
 195 694 195 694 300 694 c 0,0,1
265 53 m 0,12,13
 376 53 376 53 427 136.5 c 128,-1,14
 478 220 478 220 478 352 c 0,15,16
 478 629 478 629 276 629 c 1,17,-1
 188 625 l 1,18,-1
 188 58 l 1,19,20
 216 53 216 53 265 53 c 0,12,13
EndSplineSet
EndChar

StartChar: E
Encoding: 69 69 40
Width: 501
GlyphClass: 2
Flags: W
LayerCount: 2
Fore
SplineSet
188 154 m 2,0,1
 188 101 188 101 182 65 c 1,2,-1
 459 65 l 1,3,-1
 456 0 l 1,4,-1
 110 0 l 1,5,-1
 113 690 l 1,6,-1
 459 690 l 1,7,-1
 456 625 l 1,8,-1
 187 625 l 1,9,10
 189 596 189 596 189 536 c 2,11,-1
 188 405 l 1,12,-1
 428 405 l 1,13,-1
 428 340 l 1,14,-1
 188 340 l 1,15,-1
 188 154 l 2,0,1
EndSplineSet
EndChar

StartChar: F
Encoding: 70 70 41
Width: 472
GlyphClass: 2
Flags: W
LayerCount: 2
Fore
SplineSet
184 625 m 1,0,1
 187 571 187 571 187 536 c 2,2,-1
 185 405 l 1,3,-1
 415 405 l 1,4,-1
 415 340 l 1,5,-1
 185 340 l 1,6,-1
 185 0 l 1,7,-1
 110 0 l 1,8,-1
 110 690 l 1,9,-1
 443 690 l 1,10,-1
 443 625 l 1,11,-1
 184 625 l 1,0,1
EndSplineSet
EndChar

StartChar: G
Encoding: 71 71 42
Width: 592
GlyphClass: 2
Flags: W
LayerCount: 2
Fore
SplineSet
429 293 m 1,0,-1
 344 293 l 1,1,-1
 344 359 l 1,2,-1
 504 359 l 1,3,-1
 504 36 l 1,4,5
 438 -12 438 -12 324 -12 c 0,6,7
 180 -12 180 -12 122 90 c 0,8,9
 70 182 70 182 70 338 c 128,-1,10
 70 494 70 494 145.5 594 c 128,-1,11
 221 694 221 694 360 694 c 0,12,13
 428 694 428 694 489 674 c 1,14,-1
 474 618 l 1,15,16
 419 628 419 628 369 628 c 0,17,18
 150 628 150 628 150 338 c 0,19,20
 150 130 150 130 244 76 c 0,21,22
 282 54 282 54 334.5 54 c 128,-1,23
 387 54 387 54 429 69 c 1,24,-1
 429 293 l 1,0,-1
EndSplineSet
EndChar

StartChar: H
Encoding: 72 72 43
Width: 676
GlyphClass: 2
Flags: W
LayerCount: 2
Fore
SplineSet
188 690 m 1,0,-1
 188 405 l 1,1,-1
 489 405 l 1,2,-1
 489 690 l 1,3,-1
 563 690 l 1,4,-1
 566 0 l 1,5,-1
 489 0 l 1,6,-1
 489 340 l 1,7,-1
 188 340 l 1,8,-1
 188 0 l 1,9,-1
 110 0 l 1,10,-1
 113 690 l 1,11,-1
 188 690 l 1,0,-1
EndSplineSet
EndChar

StartChar: I
Encoding: 73 73 44
Width: 298
GlyphClass: 2
Flags: W
LayerCount: 2
Fore
SplineSet
188 690 m 1,0,-1
 188 0 l 1,1,-1
 110 0 l 1,2,-1
 113 690 l 1,3,-1
 188 690 l 1,0,-1
EndSplineSet
EndChar

StartChar: J
Encoding: 74 74 45
Width: 307
GlyphClass: 2
Flags: W
LayerCount: 2
Fore
SplineSet
122 119 m 2,0,-1
 122 690 l 1,1,-1
 197 702 l 1,2,-1
 197 106 l 2,3,4
 197 38 197 38 190.5 -6 c 128,-1,5
 184 -50 184 -50 166 -89 c 0,6,7
 130 -164 130 -164 12 -164 c 1,8,-1
 2 -105 l 1,9,10
 47 -105 47 -105 78 -82 c 0,11,12
 98 -68 98 -68 112 -20 c 1,13,14
 122 10 122 10 122 119 c 2,0,-1
EndSplineSet
EndChar

StartChar: K
Encoding: 75 75 46
Width: 563
GlyphClass: 2
Flags: W
LayerCount: 2
Fore
SplineSet
110 0 m 1,0,-1
 110 690 l 1,1,-1
 185 690 l 1,2,-1
 185 382 l 1,3,-1
 283 385 l 1,4,-1
 455 702 l 1,5,-1
 531 690 l 1,6,-1
 342 356 l 1,7,-1
 455 134 l 2,8,9
 481 85 481 85 501.5 65 c 128,-1,10
 522 45 522 45 551 45 c 1,11,-1
 553 -3 l 1,12,13
 547 -8 547 -8 524 -8 c 0,14,15
 478 -8 478 -8 450.5 17.5 c 128,-1,16
 423 43 423 43 395 99 c 2,17,-1
 282 320 l 1,18,-1
 185 317 l 1,19,-1
 185 0 l 1,20,-1
 110 0 l 1,0,-1
EndSplineSet
EndChar

StartChar: L
Encoding: 76 76 47
Width: 493
GlyphClass: 2
Flags: W
LayerCount: 2
Fore
SplineSet
188 154 m 2,0,1
 188 101 188 101 182 65 c 1,2,-1
 443 65 l 1,3,-1
 440 0 l 1,4,-1
 110 0 l 1,5,-1
 113 690 l 1,6,-1
 188 702 l 1,7,-1
 188 154 l 2,0,1
EndSplineSet
EndChar

StartChar: M
Encoding: 77 77 48
Width: 828
GlyphClass: 2
Flags: W
LayerCount: 2
Fore
SplineSet
211 615 m 1,0,1
 215 611 215 611 215 586.5 c 128,-1,2
 215 562 215 562 214 543 c 2,3,-1
 168 0 l 1,4,-1
 93 0 l 1,5,-1
 153 690 l 1,6,-1
 262 690 l 1,7,-1
 402 238 l 2,8,9
 410 212 410 212 412 181 c 1,10,-1
 418 181 l 1,11,12
 419 208 419 208 428 238 c 2,13,-1
 569 690 l 1,14,-1
 677 690 l 1,15,-1
 733 0 l 1,16,-1
 658 0 l 1,17,18
 615 560 615 560 615 579.5 c 128,-1,19
 615 599 615 599 619 615 c 1,20,-1
 613 615 l 1,21,-1
 453 101 l 1,22,-1
 378 92 l 1,23,-1
 217 615 l 1,24,-1
 211 615 l 1,0,1
EndSplineSet
EndChar

StartChar: N
Encoding: 78 78 49
Width: 680
GlyphClass: 2
Flags: W
LayerCount: 2
Fore
SplineSet
495 162 m 2,0,-1
 495 690 l 1,1,-1
 570 690 l 1,2,-1
 567 0 l 1,3,-1
 466 0 l 1,4,-1
 203 559 l 1,5,-1
 181 610 l 1,6,-1
 176 609 l 1,7,8
 185 588 185 588 185 528 c 2,9,-1
 185 0 l 1,10,-1
 110 0 l 1,11,-1
 113 690 l 1,12,-1
 214 690 l 1,13,-1
 477 131 l 1,14,-1
 499 80 l 1,15,-1
 504 81 l 1,16,17
 495 102 495 102 495 162 c 2,0,-1
EndSplineSet
EndChar

StartChar: O
Encoding: 79 79 50
Width: 687
GlyphClass: 2
Flags: W
LayerCount: 2
Fore
SplineSet
337 51 m 0,0,1
 393 51 393 51 433.5 77.5 c 128,-1,2
 474 104 474 104 496 150 c 0,3,4
 539 238 539 238 539 365 c 0,5,6
 539 518 539 518 482 584 c 0,7,8
 438 636 438 636 352 636 c 0,9,10
 298 636 298 636 257.5 611 c 128,-1,11
 217 586 217 586 194 543 c 0,12,13
 150 458 150 458 150 339 c 0,14,15
 150 51 150 51 337 51 c 0,0,1
328 -12 m 0,16,17
 262 -12 262 -12 209 13 c 128,-1,18
 156 38 156 38 126 86 c 0,19,20
 70 177 70 177 70 339 c 0,21,22
 70 554 70 554 193 651 c 0,23,24
 258 702 258 702 352 702 c 0,25,26
 495 702 495 702 556 614 c 128,-1,27
 617 526 617 526 617 364 c 0,28,29
 617 169 617 169 521 64 c 0,30,31
 452 -12 452 -12 328 -12 c 0,16,17
EndSplineSet
EndChar

StartChar: P
Encoding: 80 80 51
Width: 523
GlyphClass: 2
Flags: W
LayerCount: 2
Fore
SplineSet
300 694 m 0,0,1
 391 694 391 694 447 647.5 c 128,-1,2
 503 601 503 601 503 515 c 0,3,4
 503 319 503 319 248 316 c 1,5,-1
 188 315 l 1,6,-1
 188 0 l 1,7,-1
 110 0 l 1,8,-1
 113 682 l 1,9,10
 175 694 175 694 300 694 c 0,0,1
286 629 m 0,11,12
 210 629 210 629 188 625 c 1,13,-1
 188 377 l 1,14,-1
 250 378 l 2,15,16
 423 381 423 381 423 510 c 0,17,18
 423 629 423 629 286 629 c 0,11,12
EndSplineSet
EndChar

StartChar: Q
Encoding: 81 81 52
Width: 705
GlyphClass: 2
Flags: W
LayerCount: 2
Fore
SplineSet
337 -12 m 0,0,1
 187 -12 187 -12 126 86 c 0,2,3
 70 177 70 177 70 339 c 0,4,5
 70 554 70 554 193 651 c 0,6,7
 258 702 258 702 352 702 c 0,8,9
 495 702 495 702 556 614 c 128,-1,10
 617 526 617 526 617 364 c 0,11,12
 617 246 617 246 578 152.5 c 128,-1,13
 539 59 539 59 461 17 c 1,14,-1
 466 11 l 1,15,16
 514 -56 514 -56 573 -56 c 0,17,18
 574 -56 574 -56 585.5 -56 c 128,-1,19
 597 -56 597 -56 616 -46 c 1,20,-1
 635 -97 l 1,21,22
 591 -125 591 -125 549 -125 c 0,23,24
 468 -125 468 -125 415 -46 c 2,25,-1
 389 -7 l 1,26,27
 362 -12 362 -12 337 -12 c 0,0,1
337 51 m 0,28,29
 393 51 393 51 433.5 77.5 c 128,-1,30
 474 104 474 104 496 150 c 0,31,32
 539 238 539 238 539 365 c 0,33,34
 539 518 539 518 482 584 c 0,35,36
 438 636 438 636 352 636 c 0,37,38
 298 636 298 636 257.5 611 c 128,-1,39
 217 586 217 586 194 543 c 0,40,41
 150 458 150 458 150 339 c 0,42,43
 150 51 150 51 337 51 c 0,28,29
EndSplineSet
EndChar

StartChar: R
Encoding: 82 82 53
Width: 571
GlyphClass: 2
Flags: W
LayerCount: 2
Fore
SplineSet
113 682 m 1,0,1
 202 694 202 694 296.5 694 c 128,-1,2
 391 694 391 694 447 647 c 128,-1,3
 503 600 503 600 503 515 c 0,4,5
 503 370 503 370 356 330 c 1,6,-1
 456 133 l 2,7,8
 480 84 480 84 500.5 64.5 c 128,-1,9
 521 45 521 45 550 45 c 1,10,-1
 553 -3 l 1,11,12
 549 -7 549 -7 513.5 -7 c 128,-1,13
 478 -7 478 -7 450 18.5 c 128,-1,14
 422 44 422 44 395 98 c 2,15,-1
 283 318 l 1,16,17
 268 315 268 315 248 315 c 2,18,-1
 186 315 l 1,19,-1
 186 0 l 1,20,-1
 110 0 l 1,21,-1
 113 682 l 1,0,1
186 378 m 1,22,-1
 250 378 l 2,23,24
 423 378 423 378 423 511 c 0,25,26
 423 628 423 628 285 628 c 0,27,28
 229 628 229 628 186 622 c 1,29,-1
 186 378 l 1,22,-1
EndSplineSet
EndChar

StartChar: S
Encoding: 83 83 54
Width: 480
GlyphClass: 2
Flags: W
LayerCount: 2
Fore
SplineSet
53 107 m 1,0,1
 132 53 132 53 205.5 53 c 128,-1,2
 279 53 279 53 320.5 87 c 128,-1,3
 362 121 362 121 362 181 c 0,4,5
 362 230 362 230 332 258 c 0,6,7
 300 289 300 289 232 320 c 0,8,9
 212 330 212 330 204 334 c 0,10,11
 136 366 136 366 98.5 408 c 128,-1,12
 61 450 61 450 61 527 c 128,-1,13
 61 604 61 604 118.5 653 c 128,-1,14
 176 702 176 702 257 702 c 128,-1,15
 338 702 338 702 405 673 c 1,16,-1
 390 618 l 1,17,18
 330 638 330 638 273 638 c 128,-1,19
 216 638 216 638 177 608.5 c 128,-1,20
 138 579 138 579 138 531 c 128,-1,21
 138 483 138 483 165 454 c 0,22,23
 196 422 196 422 275 386 c 1,24,25
 347 352 347 352 373 329 c 0,26,27
 409 296 409 296 418 276 c 1,28,29
 437 228 437 228 437 185 c 0,30,31
 437 94 437 94 374.5 41 c 128,-1,32
 312 -12 312 -12 214.5 -12 c 128,-1,33
 117 -12 117 -12 37 54 c 1,34,-1
 53 107 l 1,0,1
EndSplineSet
EndChar

StartChar: T
Encoding: 84 84 55
Width: 450
GlyphClass: 2
Flags: W
LayerCount: 2
Fore
SplineSet
264 625 m 1,0,-1
 264 0 l 1,1,-1
 184 0 l 1,2,-1
 187 625 l 1,3,-1
 10 625 l 1,4,-1
 13 690 l 1,5,-1
 443 690 l 1,6,-1
 435 625 l 1,7,-1
 264 625 l 1,0,-1
EndSplineSet
EndChar

StartChar: U
Encoding: 85 85 56
Width: 650
GlyphClass: 2
Flags: W
LayerCount: 2
Fore
SplineSet
209.5 100 m 128,-1,1
 249 53 249 53 324.5 53 c 128,-1,2
 400 53 400 53 438 93.5 c 128,-1,3
 476 134 476 134 476 211 c 2,4,-1
 476 690 l 1,5,-1
 549 690 l 1,6,-1
 551 215 l 2,7,8
 552 106 552 106 493 47 c 128,-1,9
 434 -12 434 -12 324 -12 c 128,-1,10
 214 -12 214 -12 156 49.5 c 128,-1,11
 98 111 98 111 99 225 c 2,12,-1
 102 690 l 1,13,-1
 174 702 l 1,14,-1
 171 227 l 2,15,0
 170 147 170 147 209.5 100 c 128,-1,1
EndSplineSet
EndChar

StartChar: V
Encoding: 86 86 57
Width: 545
GlyphClass: 2
Flags: W
LayerCount: 2
Fore
SplineSet
258 88 m 2,0,-1
 258 80 l 1,1,-1
 264 80 l 1,2,3
 264 85 264 85 264 98.5 c 128,-1,4
 264 112 264 112 271 137 c 2,5,-1
 439 690 l 1,6,-1
 519 690 l 1,7,-1
 296 0 l 1,8,-1
 226 -9 l 1,9,-1
 14 690 l 1,10,-1
 94 690 l 1,11,-1
 251 137 l 2,12,13
 258 114 258 114 258 88 c 2,0,-1
EndSplineSet
EndChar

StartChar: W
Encoding: 87 87 58
Width: 843
GlyphClass: 2
Flags: W
LayerCount: 2
Fore
SplineSet
272 80 m 1,0,1
 272 117 272 117 281 147 c 2,2,-1
 402 528 l 1,3,-1
 363 690 l 1,4,-1
 439 690 l 1,5,-1
 569 137 l 1,6,-1
 578 80 l 1,7,-1
 584 80 l 1,8,9
 584 85 584 85 584 107.5 c 128,-1,10
 584 130 584 130 591 157 c 2,11,-1
 735 690 l 1,12,-1
 815 690 l 1,13,-1
 617 0 l 1,14,-1
 534 -9 l 1,15,-1
 433 414 l 1,16,-1
 427 414 l 1,17,18
 428 411 428 411 428 399.5 c 128,-1,19
 428 388 428 388 415 345 c 2,20,-1
 307 0 l 1,21,-1
 225 -9 l 1,22,-1
 40 690 l 1,23,-1
 120 690 l 1,24,-1
 257 137 l 1,25,-1
 266 80 l 1,26,-1
 272 80 l 1,0,1
EndSplineSet
EndChar

StartChar: X
Encoding: 88 88 59
Width: 567
GlyphClass: 2
Flags: W
LayerCount: 2
Fore
SplineSet
30 0 m 1,0,-1
 233 365 l 1,1,-1
 60 690 l 1,2,-1
 140 699 l 1,3,-1
 288 410 l 1,4,-1
 440 690 l 1,5,-1
 525 690 l 1,6,-1
 335 365 l 1,7,-1
 535 0 l 1,8,-1
 450 0 l 1,9,-1
 284 315 l 1,10,-1
 115 0 l 1,11,-1
 30 0 l 1,0,-1
EndSplineSet
EndChar

StartChar: Y
Encoding: 89 89 60
Width: 489
GlyphClass: 2
Flags: W
LayerCount: 2
Fore
SplineSet
203 0 m 1,0,-1
 203 310 l 1,1,-1
 12 690 l 1,2,-1
 87 699 l 1,3,-1
 244 378 l 1,4,-1
 397 690 l 1,5,-1
 477 690 l 1,6,-1
 278 310 l 1,7,-1
 278 0 l 1,8,-1
 203 0 l 1,0,-1
EndSplineSet
EndChar

StartChar: Z
Encoding: 90 90 61
Width: 498
GlyphClass: 2
Flags: W
LayerCount: 2
Fore
SplineSet
20 0 m 1,0,-1
 20 27 l 1,1,-1
 349 623 l 1,2,-1
 349 631 l 1,3,4
 319 628 319 628 40 621 c 1,5,-1
 36 690 l 1,6,-1
 456 690 l 1,7,-1
 456 663 l 1,8,-1
 127 67 l 1,9,-1
 127 59 l 1,10,11
 158 62 158 62 443 69 c 1,12,-1
 443 0 l 1,13,-1
 20 0 l 1,0,-1
EndSplineSet
EndChar

StartChar: bracketleft
Encoding: 91 91 62
Width: 243
GlyphClass: 2
Flags: W
LayerCount: 2
Fore
SplineSet
135 -16 m 2,0,1
 135 -69 135 -69 129 -105 c 1,2,-1
 236 -105 l 1,3,-1
 239 -167 l 1,4,-1
 60 -167 l 1,5,-1
 60 733 l 1,6,-1
 239 733 l 1,7,-1
 236 671 l 1,8,-1
 129 671 l 1,9,10
 135 642 135 642 135 582 c 2,11,-1
 135 -16 l 2,0,1
EndSplineSet
EndChar

StartChar: backslash
Encoding: 92 92 63
Width: 371
GlyphClass: 2
Flags: W
LayerCount: 2
Fore
SplineSet
48 750 m 1,0,-1
 370 -59 l 1,1,2
 356 -71 356 -71 322 -74 c 1,3,-1
 0 735 l 1,4,5
 14 747 14 747 48 750 c 1,0,-1
EndSplineSet
EndChar

StartChar: bracketright
Encoding: 93 93 64
Width: 243
GlyphClass: 2
Flags: W
LayerCount: 2
Fore
SplineSet
108 582 m 2,0,1
 108 635 108 635 114 671 c 1,2,-1
 7 671 l 1,3,-1
 4 733 l 1,4,-1
 183 733 l 1,5,-1
 183 -167 l 1,6,-1
 4 -167 l 1,7,-1
 7 -105 l 1,8,-1
 114 -105 l 1,9,10
 108 -76 108 -76 108 -16 c 2,11,-1
 108 582 l 2,0,1
EndSplineSet
EndChar

StartChar: asciicircum
Encoding: 94 94 65
Width: 494
GlyphClass: 2
Flags: W
LayerCount: 2
Fore
SplineSet
30 428 m 1,0,-1
 218 733 l 1,1,-1
 280 730 l 1,2,-1
 464 427 l 1,3,-1
 411 392 l 1,4,-1
 247 672 l 1,5,-1
 83 392 l 1,6,-1
 30 428 l 1,0,-1
EndSplineSet
EndChar

StartChar: underscore
Encoding: 95 95 66
Width: 531
GlyphClass: 2
Flags: W
LayerCount: 2
Fore
SplineSet
51 -12 m 1,0,-1
 51 55 l 1,1,-1
 480 51 l 1,2,-1
 474 -8 l 1,3,-1
 51 -12 l 1,0,-1
EndSplineSet
EndChar

StartChar: grave
Encoding: 96 96 67
Width: 264
GlyphClass: 2
Flags: W
LayerCount: 2
Fore
SplineSet
124 686 m 0,0,1
 145 686 145 686 182 633 c 2,2,-1
 241 550 l 1,3,-1
 211 530 l 1,4,-1
 82 648 l 1,5,-1
 112 683 l 1,6,7
 117 686 117 686 124 686 c 0,0,1
EndSplineSet
EndChar

StartChar: a
Encoding: 97 97 68
Width: 531
GlyphClass: 2
Flags: W
LayerCount: 2
Fore
SplineSet
365 341 m 2,0,-1
 365 414 l 1,1,2
 336 429 336 429 278 429 c 0,3,4
 130 429 130 429 130 206 c 0,5,6
 130 43 130 43 229 43 c 0,7,8
 271 43 271 43 299.5 71.5 c 128,-1,9
 328 100 328 100 342 149 c 0,10,11
 365 234 365 234 365 341 c 2,0,-1
222 -12 m 0,12,13
 135 -12 135 -12 95 48 c 128,-1,14
 55 108 55 108 55 218.5 c 128,-1,15
 55 329 55 329 111.5 405.5 c 128,-1,16
 168 482 168 482 278 482 c 0,17,18
 317 482 317 482 355.5 474 c 128,-1,19
 394 466 394 466 432 451 c 1,20,-1
 432 197 l 2,21,22
 432 95 432 95 450 68 c 0,23,24
 467 41 467 41 507 41 c 1,25,-1
 509 -4 l 1,26,27
 493 -8 493 -8 469 -8 c 0,28,29
 416 -8 416 -8 393 29 c 0,30,31
 376 56 376 56 376 93 c 0,32,33
 376 105 376 105 378 119 c 1,34,-1
 372 119 l 1,35,36
 355 59 355 59 317.5 23.5 c 128,-1,37
 280 -12 280 -12 222 -12 c 0,12,13
EndSplineSet
EndChar

StartChar: b
Encoding: 98 98 69
Width: 525
GlyphClass: 2
Flags: W
LayerCount: 2
Fore
SplineSet
157 159 m 2,0,-1
 157 56 l 1,1,2
 186 41 186 41 244 41 c 0,3,4
 392 41 392 41 392 275 c 0,5,6
 392 425 392 425 298 425 c 0,7,8
 245 425 245 425 211.5 380 c 128,-1,9
 178 335 178 335 167.5 279.5 c 128,-1,10
 157 224 157 224 157 159 c 2,0,-1
159 460 m 2,11,12
 159 407 159 407 151 371 c 1,13,-1
 157 371 l 1,14,15
 179 428 179 428 215 455 c 128,-1,16
 251 482 251 482 310 482 c 0,17,18
 397 482 397 482 432 425.5 c 128,-1,19
 467 369 467 369 467 256 c 128,-1,20
 467 143 467 143 411.5 65.5 c 128,-1,21
 356 -12 356 -12 244 -12 c 0,22,23
 205 -12 205 -12 166.5 -4 c 128,-1,24
 128 4 128 4 90 19 c 1,25,-1
 90 734 l 1,26,-1
 159 745 l 1,27,-1
 159 460 l 2,11,12
EndSplineSet
EndChar

StartChar: c
Encoding: 99 99 70
Width: 412
GlyphClass: 2
Flags: W
LayerCount: 2
Fore
SplineSet
241 -12 m 0,0,1
 54 -12 54 -12 54 218 c 0,2,3
 54 332 54 332 109.5 407 c 128,-1,4
 165 482 165 482 268 482 c 0,5,6
 327 482 327 482 373 462 c 1,7,-1
 362 410 l 1,8,9
 321 424 321 424 276 424 c 0,10,11
 129 424 129 424 129 216 c 0,12,13
 129 47 129 47 253 47 c 0,14,15
 316 47 316 47 371 82 c 1,16,-1
 382 43 l 1,17,18
 357 18 357 18 317.5 3 c 128,-1,19
 278 -12 278 -12 241 -12 c 0,0,1
EndSplineSet
EndChar

StartChar: d
Encoding: 100 100 71
Width: 531
GlyphClass: 2
Flags: W
LayerCount: 2
Fore
SplineSet
222 -12 m 0,0,1
 135 -12 135 -12 95 48 c 128,-1,2
 55 108 55 108 55 218.5 c 128,-1,3
 55 329 55 329 111.5 405.5 c 128,-1,4
 168 482 168 482 278 482 c 0,5,6
 321 482 321 482 365 464 c 1,7,-1
 365 733 l 1,8,-1
 432 745 l 1,9,-1
 432 197 l 2,10,11
 432 108 432 108 445 74.5 c 128,-1,12
 458 41 458 41 503 41 c 1,13,-1
 505 -4 l 1,14,15
 492 -8 492 -8 465 -8 c 0,16,17
 415 -8 415 -8 395.5 22 c 128,-1,18
 376 52 376 52 376 91 c 0,19,20
 376 101 376 101 377 113 c 1,21,-1
 371 113 l 1,22,23
 331 -12 331 -12 222 -12 c 0,0,1
365 311 m 2,24,-1
 365 414 l 1,25,26
 336 429 336 429 278 429 c 0,27,28
 130 429 130 429 130 206 c 0,29,30
 130 43 130 43 229 43 c 0,31,32
 268 43 268 43 296.5 68.5 c 128,-1,33
 325 94 325 94 339 136 c 0,34,35
 365 215 365 215 365 311 c 2,24,-1
EndSplineSet
EndChar

StartChar: e
Encoding: 101 101 72
Width: 433
GlyphClass: 2
Flags: W
LayerCount: 2
Fore
SplineSet
330 367 m 0,0,1
 330 396 330 396 312 411 c 128,-1,2
 294 426 294 426 264 426 c 0,3,4
 204 426 204 426 170 376.5 c 128,-1,5
 136 327 136 327 131 257 c 1,6,7
 330 257 330 257 330 367 c 0,0,1
244 -12 m 0,8,9
 56 -12 56 -12 56 228 c 0,10,11
 56 338 56 338 111.5 410 c 128,-1,12
 167 482 167 482 268 482 c 0,13,14
 330 482 330 482 366.5 452.5 c 128,-1,15
 403 423 403 423 403 371.5 c 128,-1,16
 403 320 403 320 378.5 287.5 c 128,-1,17
 354 255 354 255 312 238 c 0,18,19
 233 206 233 206 129 206 c 1,20,21
 129 47 129 47 256 47 c 0,22,23
 320 47 320 47 377 82 c 1,24,-1
 388 43 l 1,25,26
 363 18 363 18 322.5 3 c 128,-1,27
 282 -12 282 -12 244 -12 c 0,8,9
EndSplineSet
EndChar

StartChar: f
Encoding: 102 102 73
Width: 312
GlyphClass: 2
Flags: W
LayerCount: 2
Fore
SplineSet
40 417 m 1,0,-1
 40 460 l 1,1,-1
 120 470 l 1,2,-1
 120 538 l 2,3,4
 120 745 120 745 272 745 c 0,5,6
 305 745 305 745 331 732 c 1,7,-1
 321 688 l 1,8,9
 307 692 307 692 279 692 c 128,-1,10
 251 692 251 692 232.5 679.5 c 128,-1,11
 214 667 214 667 206 643 c 0,12,13
 192 605 192 605 192 536 c 2,14,-1
 192 470 l 1,15,-1
 321 470 l 1,16,-1
 321 417 l 1,17,-1
 192 417 l 1,18,-1
 191 -93 l 2,19,20
 191 -135 191 -135 186 -153.5 c 128,-1,21
 181 -172 181 -172 163 -175 c 1,22,-1
 107 -163 l 1,23,24
 122 -145 122 -145 122 -79 c 2,25,-1
 120 417 l 1,26,-1
 40 417 l 1,0,-1
EndSplineSet
EndChar

StartChar: g
Encoding: 103 103 74
Width: 531
GlyphClass: 2
Flags: W
LayerCount: 2
Fore
SplineSet
372 30 m 0,0,1
 372 77 372 77 379 119 c 1,2,-1
 373 119 l 1,3,4
 335 -12 335 -12 223 -12 c 0,5,6
 138 -12 138 -12 97 49.5 c 128,-1,7
 56 111 56 111 56 220 c 128,-1,8
 56 329 56 329 112.5 405.5 c 128,-1,9
 169 482 169 482 279 482 c 0,10,11
 320 482 320 482 360.5 473.5 c 128,-1,12
 401 465 401 465 440 448 c 1,13,-1
 441 30 l 2,14,15
 441 -97 441 -97 394.5 -168.5 c 128,-1,16
 348 -240 348 -240 238 -240 c 0,17,18
 198 -240 198 -240 156 -225.5 c 128,-1,19
 114 -211 114 -211 89 -185 c 1,20,-1
 100 -146 l 1,21,22
 158 -184 158 -184 235.5 -184 c 128,-1,23
 313 -184 313 -184 342.5 -129.5 c 128,-1,24
 372 -75 372 -75 372 30 c 0,0,1
230 43 m 0,25,26
 373 43 373 43 373 411 c 1,27,28
 341 429 341 429 279 429 c 0,29,30
 131 429 131 429 131 206 c 0,31,32
 131 137 131 137 154 90 c 128,-1,33
 177 43 177 43 230 43 c 0,25,26
EndSplineSet
EndChar

StartChar: h
Encoding: 104 104 75
Width: 545
GlyphClass: 2
Flags: W
LayerCount: 2
Fore
SplineSet
161 460 m 2,0,1
 161 407 161 407 153 371 c 1,2,-1
 159 371 l 1,3,4
 200 482 200 482 312 482 c 0,5,6
 391 482 391 482 421 442.5 c 128,-1,7
 451 403 451 403 451 324 c 0,8,9
 451 321 451 321 449.5 222 c 128,-1,10
 448 123 448 123 448 96 c 128,-1,11
 448 69 448 69 454.5 56 c 128,-1,12
 461 43 461 43 497 43 c 1,13,-1
 499 -2 l 1,14,15
 485 -8 485 -8 458 -8 c 0,16,17
 410 -8 410 -8 392.5 14 c 128,-1,18
 375 36 375 36 375 84 c 0,19,20
 375 86 375 86 377 192 c 128,-1,21
 379 298 379 298 379 302 c 0,22,23
 379 360 379 360 364 392.5 c 128,-1,24
 349 425 349 425 298 425 c 128,-1,25
 247 425 247 425 213.5 380 c 128,-1,26
 180 335 180 335 169.5 279.5 c 128,-1,27
 159 224 159 224 159 159 c 2,28,-1
 159 0 l 1,29,-1
 90 0 l 1,30,-1
 90 733 l 1,31,-1
 161 745 l 1,32,-1
 161 460 l 2,0,1
EndSplineSet
EndChar

StartChar: i
Encoding: 105 105 76
Width: 264
GlyphClass: 2
Flags: W
LayerCount: 2
Fore
SplineSet
174 -8 m 0,0,1
 128 -8 128 -8 110 14 c 128,-1,2
 92 36 92 36 92 86 c 2,3,-1
 92 470 l 1,4,-1
 164 470 l 1,5,-1
 164 127 l 2,6,7
 164 74 164 74 172 58.5 c 128,-1,8
 180 43 180 43 218 43 c 1,9,-1
 220 -1 l 1,10,11
 197 -8 197 -8 174 -8 c 0,0,1
85 627 m 0,12,13
 85 674 85 674 131 674 c 0,14,15
 173 674 173 674 173 628.5 c 128,-1,16
 173 583 173 583 129 583 c 128,-1,17
 85 583 85 583 85 627 c 0,12,13
EndSplineSet
EndChar

StartChar: j
Encoding: 106 106 77
Width: 252
GlyphClass: 2
Flags: W
LayerCount: 2
Fore
SplineSet
-39 -183 m 1,0,1
 -25 -187 -25 -187 -2.5 -187 c 128,-1,2
 20 -187 20 -187 34.5 -182.5 c 128,-1,3
 49 -178 49 -178 58 -172 c 128,-1,4
 67 -166 67 -166 73.5 -153 c 128,-1,5
 80 -140 80 -140 83 -130 c 128,-1,6
 86 -120 86 -120 88 -100 c 128,-1,7
 90 -80 90 -80 90 -68 c 2,8,-1
 90 470 l 1,9,-1
 162 470 l 1,10,-1
 162 -31 l 2,11,12
 162 -138 162 -138 131 -189 c 128,-1,13
 100 -240 100 -240 10 -240 c 0,14,15
 -23 -240 -23 -240 -49 -227 c 1,16,-1
 -39 -183 l 1,0,1
81 627 m 0,17,18
 81 674 81 674 127 674 c 0,19,20
 169 674 169 674 169 628.5 c 128,-1,21
 169 583 169 583 125 583 c 128,-1,22
 81 583 81 583 81 627 c 0,17,18
EndSplineSet
EndChar

StartChar: k
Encoding: 107 107 78
Width: 483
GlyphClass: 2
Flags: W
LayerCount: 2
Fore
SplineSet
90 0 m 1,0,-1
 90 733 l 1,1,-1
 158 745 l 1,2,-1
 159 470 l 2,3,4
 159 417 159 417 151 371 c 1,5,-1
 157 371 l 1,6,7
 174 422 174 422 215 452 c 128,-1,8
 256 482 256 482 311 482 c 128,-1,9
 366 482 366 482 401.5 452 c 128,-1,10
 437 422 437 422 437 367.5 c 128,-1,11
 437 313 437 313 394 276.5 c 128,-1,12
 351 240 351 240 287 226 c 1,13,-1
 345 125 l 2,14,15
 372 79 372 79 394 60.5 c 128,-1,16
 416 42 416 42 446 42 c 1,17,-1
 448 -3 l 1,18,19
 442 -8 442 -8 418 -8 c 0,20,21
 370 -8 370 -8 341 16.5 c 128,-1,22
 312 41 312 41 285 93 c 2,23,-1
 207 242 l 1,24,-1
 207 260 l 1,25,26
 270 260 270 260 316 288 c 128,-1,27
 362 316 362 316 362 368 c 0,28,29
 362 396 362 396 343.5 411 c 128,-1,30
 325 426 325 426 296 426 c 0,31,32
 249 426 249 426 216 391 c 0,33,34
 158 328 158 328 158 206 c 2,35,-1
 158 0 l 1,36,-1
 90 0 l 1,0,-1
EndSplineSet
EndChar

StartChar: l
Encoding: 108 108 79
Width: 264
GlyphClass: 2
Flags: W
LayerCount: 2
Fore
SplineSet
92 86 m 2,0,-1
 92 733 l 1,1,-1
 164 745 l 1,2,-1
 164 127 l 2,3,4
 164 74 164 74 172 58.5 c 128,-1,5
 180 43 180 43 218 43 c 1,6,-1
 220 -1 l 1,7,8
 204 -8 204 -8 166 -8 c 128,-1,9
 128 -8 128 -8 110 14 c 128,-1,10
 92 36 92 36 92 86 c 2,0,-1
EndSplineSet
EndChar

StartChar: m
Encoding: 109 109 80
Width: 789
GlyphClass: 2
Flags: W
LayerCount: 2
Fore
SplineSet
161 450 m 2,0,1
 161 397 161 397 153 361 c 1,2,-1
 159 361 l 1,3,4
 174 418 174 418 209 450 c 128,-1,5
 244 482 244 482 296 482 c 0,6,7
 419 482 419 482 419 361 c 1,8,-1
 425 361 l 1,9,10
 456 482 456 482 563 482 c 0,11,12
 643 482 643 482 669 444.5 c 128,-1,13
 695 407 695 407 695 326 c 0,14,15
 695 322 695 322 693.5 225.5 c 128,-1,16
 692 129 692 129 692 99 c 128,-1,17
 692 69 692 69 698.5 56 c 128,-1,18
 705 43 705 43 741 43 c 1,19,-1
 743 -2 l 1,20,21
 729 -8 729 -8 702 -8 c 0,22,23
 654 -8 654 -8 636.5 14 c 128,-1,24
 619 36 619 36 619 84 c 0,25,26
 619 86 619 86 621 194.5 c 128,-1,27
 623 303 623 303 623 312 c 0,28,29
 623 368 623 368 611 396.5 c 128,-1,30
 599 425 599 425 554 425 c 0,31,32
 428 425 428 425 428 147 c 2,33,-1
 428 0 l 1,34,-1
 359 0 l 1,35,-1
 359 294 l 2,36,37
 359 383 359 383 344 402 c 1,38,39
 324 425 324 425 287 425 c 0,40,41
 159 425 159 425 159 139 c 2,42,-1
 159 0 l 1,43,-1
 90 0 l 1,44,-1
 90 470 l 1,45,-1
 161 479 l 1,46,-1
 161 450 l 2,0,1
EndSplineSet
EndChar

StartChar: n
Encoding: 110 110 81
Width: 545
GlyphClass: 2
Flags: W
LayerCount: 2
Fore
SplineSet
161 450 m 2,0,1
 161 397 161 397 153 361 c 1,2,-1
 159 361 l 1,3,4
 173 417 173 417 213.5 449.5 c 128,-1,5
 254 482 254 482 312 482 c 0,6,7
 391 482 391 482 421 442.5 c 128,-1,8
 451 403 451 403 451 324 c 0,9,10
 451 321 451 321 449.5 222 c 128,-1,11
 448 123 448 123 448 96 c 128,-1,12
 448 69 448 69 454.5 56 c 128,-1,13
 461 43 461 43 497 43 c 1,14,-1
 499 -2 l 1,15,16
 485 -8 485 -8 458 -8 c 0,17,18
 410 -8 410 -8 392.5 14 c 128,-1,19
 375 36 375 36 375 84 c 0,20,21
 375 86 375 86 377 192 c 128,-1,22
 379 298 379 298 379 302 c 0,23,24
 379 360 379 360 364 392.5 c 128,-1,25
 349 425 349 425 304.5 425 c 128,-1,26
 260 425 260 425 230.5 397 c 128,-1,27
 201 369 201 369 186 324 c 0,28,29
 159 237 159 237 159 139 c 2,30,-1
 159 0 l 1,31,-1
 90 0 l 1,32,-1
 90 470 l 1,33,-1
 161 479 l 1,34,-1
 161 450 l 2,0,1
EndSplineSet
EndChar

StartChar: o
Encoding: 111 111 82
Width: 520
GlyphClass: 2
Flags: W
LayerCount: 2
Fore
SplineSet
252 41 m 0,0,1
 302 41 302 41 334 72 c 128,-1,2
 366 103 366 103 377.5 147 c 128,-1,3
 389 191 389 191 389 248 c 0,4,5
 389 427 389 427 262 427 c 0,6,7
 215 427 215 427 184 397 c 0,8,9
 128 344 128 344 128 228 c 0,10,11
 128 41 128 41 252 41 c 0,0,1
408.5 62.5 m 128,-1,13
 353 -12 353 -12 248.5 -12 c 128,-1,14
 144 -12 144 -12 100 48.5 c 128,-1,15
 56 109 56 109 56 226 c 128,-1,16
 56 343 56 343 107 412.5 c 128,-1,17
 158 482 158 482 261 482 c 128,-1,18
 364 482 364 482 414 419.5 c 128,-1,19
 464 357 464 357 464 247 c 128,-1,12
 464 137 464 137 408.5 62.5 c 128,-1,13
EndSplineSet
EndChar

StartChar: p
Encoding: 112 112 83
Width: 527
GlyphClass: 2
Flags: W
LayerCount: 2
Fore
SplineSet
142 479 m 1,0,1
 162 471 162 471 162 432.5 c 128,-1,2
 162 394 162 394 155 357 c 1,3,-1
 161 357 l 1,4,5
 195 482 195 482 312 482 c 0,6,7
 399 482 399 482 434 425.5 c 128,-1,8
 469 369 469 369 469 256 c 128,-1,9
 469 143 469 143 413.5 65.5 c 128,-1,10
 358 -12 358 -12 246 -12 c 0,11,12
 203 -12 203 -12 159 6 c 1,13,-1
 159 -228 l 1,14,-1
 92 -228 l 1,15,-1
 92 323 l 2,16,17
 92 424 92 424 81 472 c 1,18,-1
 142 479 l 1,0,1
159 159 m 2,19,-1
 159 56 l 1,20,21
 188 41 188 41 246 41 c 0,22,23
 394 41 394 41 394 275 c 0,24,25
 394 425 394 425 300 425 c 0,26,27
 261 425 261 425 232 399.5 c 128,-1,28
 203 374 203 374 188 332 c 0,29,30
 159 252 159 252 159 159 c 2,19,-1
EndSplineSet
EndChar

StartChar: q
Encoding: 113 113 84
Width: 522
GlyphClass: 2
Flags: W
LayerCount: 2
Fore
SplineSet
365 331 m 2,0,-1
 365 414 l 1,1,2
 336 429 336 429 278 429 c 0,3,4
 130 429 130 429 130 206 c 0,5,6
 130 43 130 43 229 43 c 0,7,8
 270 43 270 43 298.5 70.5 c 128,-1,9
 327 98 327 98 340 145 c 0,10,11
 365 230 365 230 365 331 c 2,0,-1
363 10 m 2,12,13
 363 63 363 63 371 99 c 1,14,-1
 365 99 l 1,15,16
 325 -12 325 -12 222 -12 c 0,17,18
 135 -12 135 -12 95 48 c 128,-1,19
 55 108 55 108 55 218.5 c 128,-1,20
 55 329 55 329 111.5 405.5 c 128,-1,21
 168 482 168 482 278 482 c 0,22,23
 317 482 317 482 355.5 474 c 128,-1,24
 394 466 394 466 432 451 c 1,25,-1
 432 -228 l 1,26,-1
 363 -228 l 1,27,-1
 363 10 l 2,12,13
EndSplineSet
EndChar

StartChar: r
Encoding: 114 114 85
Width: 364
GlyphClass: 2
Flags: W
LayerCount: 2
Fore
SplineSet
142 479 m 1,0,1
 162 471 162 471 162 427.5 c 128,-1,2
 162 384 162 384 155 347 c 1,3,-1
 161 347 l 1,4,5
 183 418 183 418 212 450 c 128,-1,6
 241 482 241 482 303 482 c 1,7,-1
 334 478 l 1,8,-1
 325 409 l 1,9,10
 312 412 312 412 293 412 c 0,11,12
 254 412 254 412 226.5 386.5 c 128,-1,13
 199 361 199 361 186 318 c 0,14,15
 161 241 161 241 161 145 c 2,16,-1
 161 0 l 1,17,-1
 92 0 l 1,18,-1
 92 323 l 2,19,20
 92 424 92 424 81 472 c 1,21,-1
 142 479 l 1,0,1
EndSplineSet
EndChar

StartChar: s
Encoding: 115 115 86
Width: 379
GlyphClass: 2
Flags: W
LayerCount: 2
Fore
SplineSet
176 43 m 0,0,1
 220 43 220 43 250 63.5 c 128,-1,2
 280 84 280 84 280 122 c 0,3,4
 280 162 280 162 242 185 c 0,5,6
 223 196 223 196 196 207.5 c 128,-1,7
 169 219 169 219 163 222 c 0,8,9
 113 244 113 244 85.5 274 c 128,-1,10
 58 304 58 304 58 359.5 c 128,-1,11
 58 415 58 415 103 448.5 c 128,-1,12
 148 482 148 482 209 482 c 128,-1,13
 270 482 270 482 319 458 c 1,14,-1
 308 413 l 1,15,16
 258 427 258 427 219.5 427 c 128,-1,17
 181 427 181 427 153 409.5 c 128,-1,18
 125 392 125 392 125 361 c 128,-1,19
 125 330 125 330 144 312.5 c 128,-1,20
 163 295 163 295 183.5 286 c 128,-1,21
 204 277 204 277 227.5 267.5 c 128,-1,22
 251 258 251 258 258 254 c 128,-1,23
 265 250 265 250 284 239.5 c 128,-1,24
 303 229 303 229 310.5 220 c 128,-1,25
 318 211 318 211 328 196 c 1,26,27
 347 171 347 171 347 125 c 0,28,29
 347 59 347 59 298 23.5 c 128,-1,30
 249 -12 249 -12 173.5 -12 c 128,-1,31
 98 -12 98 -12 40 38 c 1,32,-1
 51 78 l 1,33,34
 108 43 108 43 176 43 c 0,0,1
EndSplineSet
EndChar

StartChar: t
Encoding: 116 116 87
Width: 358
GlyphClass: 2
Flags: W
LayerCount: 2
Fore
SplineSet
319 50 m 1,0,-1
 329 6 l 1,1,2
 292 -12 292 -12 240 -12 c 0,3,4
 166 -12 166 -12 142 28 c 128,-1,5
 118 68 118 68 118 155 c 2,6,-1
 118 417 l 1,7,-1
 38 417 l 1,8,-1
 38 460 l 1,9,-1
 118 470 l 1,10,-1
 118 574 l 1,11,-1
 190 586 l 1,12,-1
 190 470 l 1,13,-1
 319 470 l 1,14,-1
 319 417 l 1,15,-1
 190 417 l 1,16,-1
 190 177 l 2,17,18
 190 84 190 84 206 64 c 1,19,20
 226 41 226 41 260 41 c 128,-1,21
 294 41 294 41 319 50 c 1,0,-1
EndSplineSet
EndChar

StartChar: u
Encoding: 117 117 88
Width: 533
GlyphClass: 2
Flags: W
LayerCount: 2
Fore
SplineSet
90 401 m 0,0,1
 90 449 90 449 78 472 c 1,2,-1
 135 482 l 1,3,4
 152 478 152 478 156.5 462 c 128,-1,5
 161 446 161 446 161 429 c 0,6,7
 161 417 161 417 157 291.5 c 128,-1,8
 153 166 153 166 153 152 c 128,-1,9
 153 138 153 138 154.5 120.5 c 128,-1,10
 156 103 156 103 164 84 c 1,11,12
 178 45 178 45 232 45 c 0,13,14
 272 45 272 45 300.5 73.5 c 128,-1,15
 329 102 329 102 342 149 c 0,16,17
 367 234 367 234 367 335 c 2,18,-1
 367 470 l 1,19,-1
 434 470 l 1,20,-1
 434 197 l 2,21,22
 434 108 434 108 447 74.5 c 128,-1,23
 460 41 460 41 505 41 c 1,24,-1
 507 -4 l 1,25,26
 491 -8 491 -8 467 -8 c 0,27,28
 417 -8 417 -8 397.5 21.5 c 128,-1,29
 378 51 378 51 378 90 c 0,30,31
 378 101 378 101 379 113 c 1,32,-1
 373 113 l 1,33,34
 357 52 357 52 314.5 20 c 128,-1,35
 272 -12 272 -12 203.5 -12 c 128,-1,36
 135 -12 135 -12 108 30 c 128,-1,37
 81 72 81 72 81 145 c 0,38,39
 81 154 81 154 85.5 274 c 128,-1,40
 90 394 90 394 90 401 c 0,0,1
EndSplineSet
EndChar

StartChar: v
Encoding: 118 118 89
Width: 446
GlyphClass: 2
Flags: W
LayerCount: 2
Fore
SplineSet
328 412 m 128,-1,1
 328 450 328 450 319 475 c 1,2,-1
 380 482 l 1,3,4
 401 470 401 470 401 425.5 c 128,-1,5
 401 381 401 381 387 335.5 c 128,-1,6
 373 290 373 290 330 193 c 2,7,-1
 245 0 l 1,8,-1
 182 0 l 1,9,-1
 84 328 l 2,10,11
 54 428 54 428 30 470 c 1,12,-1
 82 480 l 1,13,14
 97 480 97 480 106.5 465 c 128,-1,15
 116 450 116 450 130 405 c 2,16,-1
 226 87 l 1,17,-1
 232 87 l 1,18,19
 229 95 229 95 229 108.5 c 128,-1,20
 229 122 229 122 238 143 c 0,21,22
 309 308 309 308 318.5 341 c 128,-1,0
 328 374 328 374 328 412 c 128,-1,1
EndSplineSet
EndChar

StartChar: w
Encoding: 119 119 90
Width: 672
GlyphClass: 2
Flags: W
LayerCount: 2
Fore
SplineSet
556 416 m 0,0,1
 556 450 556 450 547 475 c 1,2,-1
 603 482 l 1,3,4
 624 467 624 467 624 427 c 128,-1,5
 624 387 624 387 622 366 c 0,6,7
 614 301 614 301 562 193 c 1,8,-1
 472 0 l 1,9,-1
 409 0 l 1,10,-1
 355 193 l 2,11,12
 345 227 345 227 349 261 c 1,13,-1
 343 261 l 1,14,15
 338 237 338 237 320 193 c 2,16,-1
 240 0 l 1,17,-1
 177 0 l 1,18,-1
 84 331 l 2,19,20
 56 433 56 433 36 460 c 1,21,-1
 30 470 l 1,22,-1
 82 480 l 1,23,24
 98 480 98 480 107.5 466 c 128,-1,25
 117 452 117 452 130 408 c 2,26,-1
 221 87 l 1,27,-1
 227 87 l 1,28,29
 226 92 226 92 226 104 c 128,-1,30
 226 116 226 116 238 143 c 2,31,-1
 272 222 l 2,32,33
 314 320 314 320 314 416 c 0,34,35
 314 447 314 447 305 472 c 1,36,-1
 361 479 l 1,37,38
 382 462 382 462 382 422.5 c 128,-1,39
 382 383 382 383 378 350 c 1,40,-1
 453 87 l 1,41,-1
 459 87 l 1,42,43
 458 92 458 92 458 104 c 128,-1,44
 458 116 458 116 470 143 c 2,45,-1
 504 222 l 2,46,47
 556 343 556 343 556 416 c 0,0,1
EndSplineSet
EndChar

StartChar: x
Encoding: 120 120 91
Width: 447
GlyphClass: 2
Flags: W
LayerCount: 2
Fore
SplineSet
421 -1 m 1,0,1
 415 -8 415 -8 383 -8 c 128,-1,2
 351 -8 351 -8 326 15 c 128,-1,3
 301 38 301 38 272 93 c 2,4,-1
 220 192 l 1,5,-1
 106 0 l 1,6,-1
 26 0 l 1,7,-1
 184 244 l 1,8,-1
 111 381 l 2,9,10
 96 410 96 410 80.5 428 c 128,-1,11
 65 446 65 446 49 454 c 1,12,-1
 87 482 l 1,13,14
 126 482 126 482 146 452 c 0,15,16
 157 435 157 435 230 298 c 1,17,-1
 329 470 l 1,18,-1
 409 470 l 1,19,-1
 266 244 l 1,20,-1
 326 135 l 2,21,22
 351 89 351 89 371 66.5 c 128,-1,23
 391 44 391 44 418 44 c 1,24,-1
 421 -1 l 1,0,1
EndSplineSet
EndChar

StartChar: y
Encoding: 121 121 92
Width: 528
GlyphClass: 2
Flags: W
LayerCount: 2
Fore
SplineSet
91 401 m 0,0,1
 91 449 91 449 79 472 c 1,2,-1
 136 482 l 1,3,4
 153 478 153 478 157.5 462 c 128,-1,5
 162 446 162 446 162 429 c 0,6,7
 162 417 162 417 158 293 c 128,-1,8
 154 169 154 169 154 162 c 0,9,10
 154 109 154 109 169 77 c 128,-1,11
 184 45 184 45 226 45 c 128,-1,12
 268 45 268 45 295 73 c 128,-1,13
 322 101 322 101 338 146 c 0,14,15
 370 238 370 238 370 345 c 2,16,-1
 370 470 l 1,17,-1
 437 470 l 1,18,-1
 438 30 l 2,19,20
 438 -97 438 -97 391.5 -168.5 c 128,-1,21
 345 -240 345 -240 235 -240 c 0,22,23
 195 -240 195 -240 153 -225.5 c 128,-1,24
 111 -211 111 -211 86 -185 c 1,25,-1
 97 -146 l 1,26,27
 155 -184 155 -184 232.5 -184 c 128,-1,28
 310 -184 310 -184 339.5 -129.5 c 128,-1,29
 369 -75 369 -75 369 30 c 0,30,31
 369 88 369 88 376 119 c 1,32,-1
 370 119 l 1,33,34
 333 -12 333 -12 211 -12 c 0,35,36
 134 -12 134 -12 108 27 c 128,-1,37
 82 66 82 66 82 140 c 0,38,39
 82 148 82 148 86.5 271 c 128,-1,40
 91 394 91 394 91 401 c 0,0,1
EndSplineSet
EndChar

StartChar: z
Encoding: 122 122 93
Width: 402
GlyphClass: 2
Flags: W
LayerCount: 2
Fore
SplineSet
277 418 m 1,0,1
 257 415 257 415 189.5 415 c 128,-1,2
 122 415 122 415 56 404 c 1,3,-1
 47 465 l 1,4,5
 64 475 64 475 100 475 c 2,6,-1
 374 470 l 1,7,-1
 374 452 l 1,8,-1
 132 55 l 1,9,-1
 215 55 l 2,10,11
 320 55 320 55 362 66 c 1,12,-1
 371 5 l 1,13,14
 358 -6 358 -6 304 -6 c 0,15,16
 278 -6 278 -6 30 0 c 1,17,-1
 30 18 l 1,18,-1
 277 412 l 1,19,-1
 277 418 l 1,0,1
EndSplineSet
EndChar

StartChar: braceleft
Encoding: 123 123 94
Width: 307
GlyphClass: 2
Flags: W
LayerCount: 2
Fore
SplineSet
123 176 m 0,0,1
 123 213 123 213 110 239 c 128,-1,2
 97 265 97 265 60 277 c 1,3,-1
 66 305 l 1,4,5
 123 326 123 326 123 405 c 0,6,7
 123 409 123 409 120 491.5 c 128,-1,8
 117 574 117 574 117 594 c 128,-1,9
 117 614 117 614 120 639 c 128,-1,10
 123 664 123 664 136 691 c 0,11,12
 160 745 160 745 242 745 c 0,13,14
 276 745 276 745 303 733 c 1,15,-1
 294 692 l 1,16,17
 281 695 281 695 259 695 c 128,-1,18
 237 695 237 695 222 686 c 0,19,20
 194 667 194 667 194 595 c 0,21,22
 194 584 194 584 197 502.5 c 128,-1,23
 200 421 200 421 200 414 c 0,24,25
 200 365 200 365 187.5 336.5 c 128,-1,26
 175 308 175 308 137 288 c 1,27,28
 175 268 175 268 187.5 239.5 c 128,-1,29
 200 211 200 211 200 162 c 0,30,31
 200 154 200 154 196.5 67 c 128,-1,32
 193 -20 193 -20 193 -31.5 c 128,-1,33
 193 -43 193 -43 194.5 -59 c 128,-1,34
 196 -75 196 -75 202 -92 c 0,35,36
 213 -129 213 -129 261 -129 c 1,37,-1
 294 -126 l 1,38,-1
 303 -168 l 1,39,40
 278 -179 278 -179 239.5 -179 c 128,-1,41
 201 -179 201 -179 174 -166 c 1,42,43
 117 -136 117 -136 117 -23 c 0,44,45
 117 -15 117 -15 120 78 c 128,-1,46
 123 171 123 171 123 176 c 0,0,1
EndSplineSet
EndChar

StartChar: bar
Encoding: 124 124 95
Width: 176
GlyphClass: 2
Flags: W
LayerCount: 2
Fore
SplineSet
63 -169 m 1,0,-1
 63 733 l 1,1,-1
 113 733 l 1,2,-1
 113 -169 l 1,3,-1
 63 -169 l 1,0,-1
EndSplineSet
EndChar

StartChar: braceright
Encoding: 125 125 96
Width: 307
GlyphClass: 2
Flags: W
LayerCount: 2
Fore
SplineSet
13 -126 m 1,0,1
 26 -129 26 -129 48 -129 c 128,-1,2
 70 -129 70 -129 85 -119 c 0,3,4
 114 -100 114 -100 114 -31 c 1,5,6
 107 154 107 154 107 182 c 0,7,8
 107 255 107 255 170 288 c 1,9,10
 132 308 132 308 119.5 336.5 c 128,-1,11
 107 365 107 365 107 414 c 0,12,13
 107 423 107 423 110 504 c 128,-1,14
 113 585 113 585 113 597 c 128,-1,15
 113 609 113 609 112 623.5 c 128,-1,16
 111 638 111 638 105 657 c 0,17,18
 93 695 93 695 46 695 c 1,19,-1
 13 692 l 1,20,-1
 4 733 l 1,21,22
 31 745 31 745 68.5 745 c 128,-1,23
 106 745 106 745 132 732 c 0,24,25
 190 702 190 702 190 589 c 0,26,27
 190 579 190 579 187 494 c 128,-1,28
 184 409 184 409 184 405 c 0,29,30
 184 326 184 326 241 305 c 1,31,-1
 247 277 l 1,32,33
 210 265 210 265 197 239 c 128,-1,34
 184 213 184 213 184 176 c 0,35,36
 184 173 184 173 187 82.5 c 128,-1,37
 190 -8 190 -8 190 -28 c 128,-1,38
 190 -48 190 -48 187 -73 c 128,-1,39
 184 -98 184 -98 172 -125 c 0,40,41
 146 -179 146 -179 65 -179 c 0,42,43
 29 -179 29 -179 4 -168 c 1,44,-1
 13 -126 l 1,0,1
EndSplineSet
EndChar

StartChar: asciitilde
Encoding: 126 126 97
Width: 590
GlyphClass: 2
Flags: W
LayerCount: 2
Fore
SplineSet
128.5 285 m 128,-1,1
 159 302 159 302 193 302 c 0,2,3
 231 302 231 302 288.5 285 c 128,-1,4
 346 268 346 268 363 265.5 c 128,-1,5
 380 263 380 263 401 263 c 0,6,7
 455 263 455 263 480 286 c 1,8,-1
 510 270 l 1,9,10
 465 203 465 203 389 203 c 0,11,12
 361 203 361 203 283.5 223 c 128,-1,13
 206 243 206 243 190 243 c 0,14,15
 144 243 144 243 110 220 c 1,16,-1
 80 236 l 1,17,0
 98 268 98 268 128.5 285 c 128,-1,1
EndSplineSet
EndChar

StartChar: exclamdown
Encoding: 161 161 98
Width: 237
GlyphClass: 2
Flags: W
LayerCount: 2
Fore
SplineSet
138 387 m 0,0,1
 90 387 90 387 90 436 c 0,2,3
 90 482 90 482 136 482 c 128,-1,4
 182 482 182 482 182 434.5 c 128,-1,5
 182 387 182 387 138 387 c 0,6,7
 90 387 90 387 90 436 c 0,8,9
 90 482 90 482 136 482 c 128,-1,10
 182 482 182 482 182 434.5 c 128,-1,11
 182 387 182 387 138 387 c 0,0,1
137 -241 m 0,12,13
 135 -241 135 -241 80 -228 c 1,14,-1
 108 287 l 1,15,-1
 161 287 l 1,16,-1
 160 -158 l 2,17,18
 160 -203 160 -203 155 -222 c 128,-1,19
 150 -241 150 -241 137 -241 c 0,12,13
EndSplineSet
EndChar

StartChar: cent
Encoding: 162 162 99
Width: 412
GlyphClass: 2
Flags: W
LayerCount: 2
Fore
SplineSet
54 288 m 0,0,1
 54 392 54 392 101 465 c 128,-1,2
 148 538 148 538 236 550 c 1,3,-1
 242 671 l 1,4,5
 267 671 267 671 282 666 c 1,6,-1
 276 552 l 1,7,8
 330 550 330 550 373 532 c 1,9,-1
 362 480 l 1,10,11
 321 494 321 494 274 494 c 1,12,-1
 257 117 l 1,13,14
 320 119 320 119 371 152 c 1,15,-1
 382 113 l 1,16,17
 336 65 336 65 254 58 c 1,18,-1
 249 -59 l 1,19,-1
 209 -59 l 1,20,-1
 214 59 l 1,21,22
 54 74 54 74 54 288 c 0,0,1
129 286 m 0,23,24
 129 142 129 142 217 121 c 1,25,-1
 234 489 l 1,26,27
 129 461 129 461 129 286 c 0,23,24
EndSplineSet
EndChar

StartChar: sterling
Encoding: 163 163 100
Width: 570
GlyphClass: 2
Flags: W
LayerCount: 2
Fore
SplineSet
111 312 m 1,0,-1
 111 374 l 1,1,-1
 179 374 l 1,2,3
 171 443 171 443 171 461 c 0,4,5
 171 559 171 559 222 615 c 128,-1,6
 273 671 273 671 368 671 c 0,7,8
 427 671 427 671 473 651 c 1,9,-1
 462 599 l 1,10,11
 421 613 421 613 376 613 c 0,12,13
 307 613 307 613 276 576.5 c 128,-1,14
 245 540 245 540 245 467 c 0,15,16
 245 448 245 448 254 374 c 1,17,-1
 442 374 l 1,18,-1
 433 312 l 1,19,-1
 261 312 l 1,20,21
 278 183 278 183 278 158 c 128,-1,22
 278 133 278 133 264.5 102 c 128,-1,23
 251 71 251 71 225 61 c 1,24,-1
 494 64 l 1,25,-1
 498 0 l 1,26,-1
 125 0 l 1,27,-1
 125 27 l 1,28,29
 202 71 202 71 202 172 c 0,30,31
 202 188 202 188 187 312 c 1,32,-1
 111 312 l 1,0,-1
EndSplineSet
EndChar

StartChar: currency
Encoding: 164 164 101
Width: 462
GlyphClass: 2
Flags: W
LayerCount: 2
Fore
SplineSet
105 208 m 1,0,1
 82 243 82 243 82 289.5 c 128,-1,2
 82 336 82 336 107 373 c 1,3,-1
 63 419 l 1,4,-1
 105 461 l 1,5,-1
 150 416 l 1,6,7
 188 439 188 439 232 439 c 128,-1,8
 276 439 276 439 311 416 c 1,9,-1
 357 461 l 1,10,-1
 399 420 l 1,11,-1
 354 375 l 1,12,13
 381 337 381 337 381 291 c 128,-1,14
 381 245 381 245 357 208 c 1,15,-1
 402 164 l 1,16,-1
 355 117 l 1,17,-1
 310 162 l 1,18,19
 274 140 274 140 230.5 140 c 128,-1,20
 187 140 187 140 151 162 c 1,21,-1
 107 117 l 1,22,-1
 60 163 l 1,23,-1
 105 208 l 1,0,1
130 289 m 128,-1,25
 130 248 130 248 160 218 c 128,-1,26
 190 188 190 188 231 188 c 128,-1,27
 272 188 272 188 302.5 218 c 128,-1,28
 333 248 333 248 333 289 c 128,-1,29
 333 330 333 330 302.5 361 c 128,-1,30
 272 392 272 392 231.5 392 c 128,-1,31
 191 392 191 392 160.5 361 c 128,-1,24
 130 330 130 330 130 289 c 128,-1,25
EndSplineSet
EndChar

StartChar: yen
Encoding: 165 165 102
Width: 570
GlyphClass: 2
Flags: W
LayerCount: 2
Fore
SplineSet
496 310 m 1,0,1
 496 306 496 306 496 295 c 128,-1,2
 496 284 496 284 489 268 c 1,3,-1
 323 262 l 1,4,-1
 323 205 l 1,5,-1
 491 212 l 1,6,7
 491 208 491 208 491 197 c 128,-1,8
 491 186 491 186 484 170 c 1,9,-1
 323 164 l 1,10,-1
 323 0 l 1,11,-1
 248 0 l 1,12,-1
 248 161 l 1,13,-1
 75 155 l 1,14,-1
 77 195 l 1,15,-1
 248 202 l 1,16,-1
 248 259 l 1,17,-1
 80 253 l 1,18,-1
 82 293 l 1,19,-1
 242 299 l 1,20,-1
 57 659 l 1,21,-1
 132 668 l 1,22,-1
 289 357 l 1,23,-1
 442 659 l 1,24,-1
 522 659 l 1,25,-1
 330 303 l 1,26,-1
 496 310 l 1,0,1
EndSplineSet
EndChar

StartChar: brokenbar
Encoding: 166 166 103
Width: 176
GlyphClass: 2
Flags: W
LayerCount: 2
Fore
SplineSet
67 342 m 1,0,-1
 63 733 l 1,1,-1
 113 733 l 1,2,-1
 111 342 l 1,3,-1
 67 342 l 1,0,-1
63 -169 m 1,4,-1
 66 222 l 1,5,-1
 111 222 l 1,6,-1
 113 -169 l 1,7,-1
 63 -169 l 1,4,-1
EndSplineSet
EndChar

StartChar: section
Encoding: 167 167 104
Width: 833
GlyphClass: 2
Flags: W
LayerCount: 2
Fore
SplineSet
613 11 m 0,0,1
 613 -72 613 -72 558.5 -115.5 c 128,-1,2
 504 -159 504 -159 415 -159 c 0,3,4
 373 -159 373 -159 328 -144.5 c 128,-1,5
 283 -130 283 -130 254 -105 c 1,6,-1
 269 -57 l 1,7,8
 341 -97 341 -97 406 -97 c 128,-1,9
 471 -97 471 -97 507 -70 c 128,-1,10
 543 -43 543 -43 543 8 c 256,11,12
 543 59 543 59 484 94 c 0,13,14
 458 110 458 110 426.5 124 c 128,-1,15
 395 138 395 138 363.5 155 c 128,-1,16
 332 172 332 172 306 192 c 0,17,18
 247 237 247 237 247 317 c 0,19,20
 247 352 247 352 267.5 384.5 c 128,-1,21
 288 417 288 417 320 434 c 1,22,23
 270 482 270 482 270 552 c 128,-1,24
 270 622 270 622 321 662 c 128,-1,25
 372 702 372 702 446.5 702 c 128,-1,26
 521 702 521 702 584 672 c 1,27,-1
 570 622 l 1,28,29
 507 643 507 643 456.5 643 c 128,-1,30
 406 643 406 643 373 620.5 c 128,-1,31
 340 598 340 598 340 560 c 128,-1,32
 340 522 340 522 362.5 497 c 128,-1,33
 385 472 385 472 419 456.5 c 128,-1,34
 453 441 453 441 493 420.5 c 128,-1,35
 533 400 533 400 567 379.5 c 128,-1,36
 601 359 601 359 623.5 323 c 128,-1,37
 646 287 646 287 646 245.5 c 128,-1,38
 646 204 646 204 624.5 171 c 128,-1,39
 603 138 603 138 570 121 c 1,40,41
 613 75 613 75 613 11 c 0,0,1
357 405 m 1,42,43
 319 372 319 372 319 325.5 c 128,-1,44
 319 279 319 279 352.5 252 c 128,-1,45
 386 225 386 225 447.5 198 c 128,-1,46
 509 171 509 171 536 151 c 1,47,48
 574 184 574 184 574 236 c 0,49,50
 574 267 574 267 551.5 292 c 128,-1,51
 529 317 529 317 500.5 331 c 128,-1,52
 472 345 472 345 427.5 366.5 c 128,-1,53
 383 388 383 388 357 405 c 1,42,43
EndSplineSet
EndChar

StartChar: dieresis
Encoding: 168 168 105
Width: 533
GlyphClass: 2
Flags: W
LayerCount: 2
Fore
SplineSet
145 601 m 0,0,1
 145 645 145 645 188 645 c 0,2,3
 206 645 206 645 216.5 633.5 c 128,-1,4
 227 622 227 622 227 602.5 c 128,-1,5
 227 583 227 583 216 571.5 c 128,-1,6
 205 560 205 560 186 560 c 128,-1,7
 167 560 167 560 156 571 c 128,-1,8
 145 582 145 582 145 601 c 0,0,1
305 601 m 0,9,10
 305 645 305 645 348 645 c 0,11,12
 366 645 366 645 376.5 633.5 c 128,-1,13
 387 622 387 622 387 602.5 c 128,-1,14
 387 583 387 583 376 571.5 c 128,-1,15
 365 560 365 560 346 560 c 128,-1,16
 327 560 327 560 316 571 c 128,-1,17
 305 582 305 582 305 601 c 0,9,10
EndSplineSet
EndChar

StartChar: copyright
Encoding: 169 169 106
Width: 810
GlyphClass: 2
Flags: W
LayerCount: 2
Fore
SplineSet
152 88 m 128,-1,1
 48 192 48 192 48 340.5 c 128,-1,2
 48 489 48 489 152 593.5 c 128,-1,3
 256 698 256 698 404 698 c 128,-1,4
 552 698 552 698 657 593 c 128,-1,5
 762 488 762 488 762 340 c 128,-1,6
 762 192 762 192 657.5 88 c 128,-1,7
 553 -16 553 -16 404.5 -16 c 128,-1,0
 256 -16 256 -16 152 88 c 128,-1,1
404 24 m 128,-1,9
 534 24 534 24 627 117 c 128,-1,10
 720 210 720 210 720 340.5 c 128,-1,11
 720 471 720 471 627 564.5 c 128,-1,12
 534 658 534 658 404 658 c 128,-1,13
 274 658 274 658 182 564.5 c 128,-1,14
 90 471 90 471 90 340.5 c 128,-1,15
 90 210 90 210 182 117 c 128,-1,8
 274 24 274 24 404 24 c 128,-1,9
537 166 m 1,16,17
 488 114 488 114 400.5 114 c 128,-1,18
 313 114 313 114 275 174 c 128,-1,19
 237 234 237 234 237 338.5 c 128,-1,20
 237 443 237 443 287 507.5 c 128,-1,21
 337 572 337 572 430 572 c 0,22,23
 477 572 477 572 515 557 c 1,24,-1
 501 505 l 1,25,26
 466 513 466 513 437 513 c 0,27,28
 366 513 366 513 337 468.5 c 128,-1,29
 308 424 308 424 308 342 c 128,-1,30
 308 260 308 260 331 216 c 128,-1,31
 354 172 354 172 415.5 172 c 128,-1,32
 477 172 477 172 523 206 c 1,33,-1
 537 166 l 1,16,17
EndSplineSet
EndChar

StartChar: ordfeminine
Encoding: 170 170 107
Width: 410
GlyphClass: 2
Flags: W
LayerCount: 2
Fore
SplineSet
269 598 m 2,0,-1
 269 642 l 1,1,2
 247 651 247 651 216 651 c 0,3,4
 123 651 123 651 123 514 c 0,5,6
 123 415 123 415 183 415 c 0,7,8
 269 415 269 415 269 598 c 2,0,-1
173 370 m 0,9,10
 62 370 62 370 62 515 c 0,11,12
 62 596 62 596 102 646 c 128,-1,13
 142 696 142 696 217 696 c 0,14,15
 273 696 273 696 322 674 c 1,16,-1
 322 516 l 2,17,18
 322 480 322 480 323.5 463.5 c 128,-1,19
 325 447 325 447 336.5 432 c 128,-1,20
 348 417 348 417 372 417 c 1,21,-1
 374 376 l 1,22,23
 363 372 363 372 348 372 c 0,24,25
 310 372 310 372 295 391 c 128,-1,26
 280 410 280 410 280 428 c 128,-1,27
 280 446 280 446 282 456 c 1,28,-1
 277 456 l 1,29,30
 267 416 267 416 239.5 393 c 128,-1,31
 212 370 212 370 173 370 c 0,9,10
EndSplineSet
EndChar

StartChar: guillemotleft
Encoding: 171 171 108
Width: 516
GlyphClass: 2
Flags: W
LayerCount: 2
Fore
SplineSet
71 200 m 2,0,1
 60 210 60 210 60 222 c 0,2,3
 60 240 60 240 71 253 c 1,4,-1
 264 423 l 1,5,6
 271 423 271 423 282.5 403 c 128,-1,7
 294 383 294 383 294 375 c 1,8,-1
 141 226 l 1,9,-1
 294 77 l 1,10,11
 294 69 294 69 282.5 49 c 128,-1,12
 271 29 271 29 264 29 c 1,13,-1
 71 200 l 2,0,1
233 200 m 2,14,15
 222 210 222 210 222 222 c 0,16,17
 222 240 222 240 233 253 c 1,18,-1
 426 423 l 1,19,20
 433 423 433 423 444.5 403 c 128,-1,21
 456 383 456 383 456 375 c 1,22,-1
 303 226 l 1,23,-1
 456 77 l 1,24,25
 456 69 456 69 444.5 49 c 128,-1,26
 433 29 433 29 426 29 c 1,27,-1
 233 200 l 2,14,15
EndSplineSet
EndChar

StartChar: logicalnot
Encoding: 172 172 109
Width: 531
GlyphClass: 2
Flags: W
LayerCount: 2
Fore
SplineSet
51 218 m 1,0,-1
 51 278 l 1,1,-1
 480 277 l 1,2,-1
 480 114 l 1,3,-1
 430 117 l 1,4,-1
 430 224 l 1,5,6
 401 218 401 218 341 218 c 2,7,-1
 51 218 l 1,0,-1
EndSplineSet
EndChar

StartChar: registered
Encoding: 174 174 110
Width: 560
GlyphClass: 2
Flags: W
LayerCount: 2
Fore
SplineSet
115.5 336.5 m 128,-1,1
 48 404 48 404 48 500.5 c 128,-1,2
 48 597 48 597 115.5 665 c 128,-1,3
 183 733 183 733 279.5 733 c 128,-1,4
 376 733 376 733 444 665 c 128,-1,5
 512 597 512 597 512 500.5 c 128,-1,6
 512 404 512 404 444 336.5 c 128,-1,7
 376 269 376 269 279.5 269 c 128,-1,0
 183 269 183 269 115.5 336.5 c 128,-1,1
142.5 363 m 128,-1,9
 199 306 199 306 279.5 306 c 128,-1,10
 360 306 360 306 417 363 c 128,-1,11
 474 420 474 420 474 500.5 c 128,-1,12
 474 581 474 581 417 638.5 c 128,-1,13
 360 696 360 696 279.5 696 c 128,-1,14
 199 696 199 696 142.5 638.5 c 128,-1,15
 86 581 86 581 86 500.5 c 128,-1,8
 86 420 86 420 142.5 363 c 128,-1,9
278 644 m 0,16,17
 369 644 369 644 369 573 c 0,18,19
 369 512 369 512 310 492 c 1,20,-1
 345 426 l 2,21,22
 361 395 361 395 388 395 c 1,23,-1
 389 367 l 1,24,25
 380 364 380 364 366 364 c 0,26,27
 329 364 329 364 305 412 c 2,28,-1
 268 487 l 1,29,-1
 239 487 l 1,30,-1
 239 367 l 1,31,-1
 192 367 l 1,32,-1
 193 639 l 1,33,34
 238 644 238 644 278 644 c 0,16,17
239 523 m 1,35,-1
 255 523 l 2,36,37
 287 523 287 523 304 533.5 c 128,-1,38
 321 544 321 544 321 571 c 0,39,40
 321 608 321 608 273 608 c 0,41,42
 251 608 251 608 239 606 c 1,43,-1
 239 523 l 1,35,-1
EndSplineSet
EndChar

StartChar: degree
Encoding: 176 176 111
Width: 351
GlyphClass: 2
Flags: W
LayerCount: 2
Fore
SplineSet
56 582 m 128,-1,1
 56 632 56 632 90.5 667 c 128,-1,2
 125 702 125 702 175 702 c 128,-1,3
 225 702 225 702 260 667 c 128,-1,4
 295 632 295 632 295 582 c 128,-1,5
 295 532 295 532 260 497.5 c 128,-1,6
 225 463 225 463 175.5 463 c 128,-1,7
 126 463 126 463 91 497.5 c 128,-1,0
 56 532 56 532 56 582 c 128,-1,1
123 635.5 m 128,-1,9
 101 613 101 613 101 582.5 c 128,-1,10
 101 552 101 552 123 530 c 128,-1,11
 145 508 145 508 175.5 508 c 128,-1,12
 206 508 206 508 228 530 c 128,-1,13
 250 552 250 552 250 582.5 c 128,-1,14
 250 613 250 613 228 635.5 c 128,-1,15
 206 658 206 658 175.5 658 c 128,-1,8
 145 658 145 658 123 635.5 c 128,-1,9
EndSplineSet
EndChar

StartChar: plusminus
Encoding: 177 177 112
Width: 409
GlyphClass: 2
Flags: W
LayerCount: 2
Fore
SplineSet
171 150 m 1,0,-1
 171 471 l 1,1,-1
 238 471 l 1,2,-1
 238 150 l 1,3,-1
 171 150 l 1,0,-1
51 277 m 1,4,-1
 51 344 l 1,5,-1
 358 340 l 1,6,-1
 352 281 l 1,7,-1
 51 277 l 1,4,-1
51 18 m 1,8,-1
 51 85 l 1,9,-1
 358 81 l 1,10,-1
 352 22 l 1,11,-1
 51 18 l 1,8,-1
EndSplineSet
EndChar

StartChar: twosuperior
Encoding: 178 178 113
Width: 333
GlyphClass: 2
Flags: W
LayerCount: 2
Fore
SplineSet
36 376 m 1,0,-1
 36 400 l 1,1,2
 208 549 208 549 208 641 c 0,3,4
 208 696 208 696 140 696 c 0,5,6
 104 696 104 696 65 683 c 1,7,-1
 53 727 l 1,8,9
 97 745 97 745 146 745 c 0,10,11
 269 745 269 745 269 643 c 0,12,13
 269 592 269 592 225 527.5 c 128,-1,14
 181 463 181 463 129 419 c 1,15,-1
 275 419 l 1,16,-1
 277 376 l 1,17,-1
 36 376 l 1,0,-1
EndSplineSet
EndChar

StartChar: threesuperior
Encoding: 179 179 114
Width: 345
GlyphClass: 2
Flags: W
LayerCount: 2
Fore
SplineSet
148 415 m 0,0,1
 222 415 222 415 222 482 c 0,2,3
 222 546 222 546 142 546 c 2,4,-1
 99 546 l 1,5,-1
 99 587 l 1,6,7
 128 591 128 591 153 591 c 128,-1,8
 178 591 178 591 191 588 c 1,9,10
 215 612 215 612 215 651 c 0,11,12
 215 696 215 696 152 696 c 0,13,14
 113 696 113 696 76 683 c 1,15,-1
 65 727 l 1,16,17
 109 745 109 745 162.5 745 c 128,-1,18
 216 745 216 745 246 724.5 c 128,-1,19
 276 704 276 704 276 655.5 c 128,-1,20
 276 607 276 607 234 574 c 1,21,22
 283 550 283 550 283 488 c 0,23,24
 283 370 283 370 157 370 c 0,25,26
 87 370 87 370 42 404 c 1,27,-1
 55 445 l 1,28,29
 98 415 98 415 148 415 c 0,0,1
EndSplineSet
EndChar

StartChar: acute
Encoding: 180 180 115
Width: 264
GlyphClass: 2
Flags: W
LayerCount: 2
Fore
SplineSet
82 550 m 1,0,-1
 141 633 l 2,1,2
 178 686 178 686 199 686 c 1,3,-1
 211 683 l 1,4,-1
 241 648 l 1,5,-1
 112 530 l 1,6,-1
 82 550 l 1,0,-1
EndSplineSet
EndChar

StartChar: mu
Encoding: 181 181 116
AltUni2: 0003bc.ffffffff.0
Width: 551
GlyphClass: 2
Flags: W
LayerCount: 2
Fore
SplineSet
108 387 m 1,0,1
 108 446 108 446 96 472 c 1,2,-1
 153 482 l 1,3,4
 170 477 170 477 174.5 459.5 c 128,-1,5
 179 442 179 442 179 424 c 0,6,7
 179 411 179 411 175 288.5 c 128,-1,8
 171 166 171 166 171 152 c 128,-1,9
 171 138 171 138 172.5 120.5 c 128,-1,10
 174 103 174 103 182 84 c 1,11,12
 196 45 196 45 250 45 c 0,13,14
 290 45 290 45 318.5 73.5 c 128,-1,15
 347 102 347 102 360 149 c 0,16,17
 385 234 385 234 385 335 c 2,18,-1
 385 470 l 1,19,-1
 452 470 l 1,20,-1
 452 197 l 2,21,22
 452 108 452 108 465 74.5 c 128,-1,23
 478 41 478 41 523 41 c 1,24,-1
 525 -4 l 1,25,26
 509 -8 509 -8 485 -8 c 0,27,28
 435 -8 435 -8 415.5 21.5 c 128,-1,29
 396 51 396 51 396 90 c 0,30,31
 396 101 396 101 397 113 c 1,32,-1
 391 113 l 1,33,34
 357 -12 357 -12 235 -12 c 0,35,36
 178 -12 178 -12 159 28 c 1,37,-1
 154 27 l 1,38,39
 159 7 159 7 159 -47 c 2,40,-1
 159 -228 l 1,41,-1
 92 -216 l 1,42,-1
 108 387 l 1,0,1
EndSplineSet
EndChar

StartChar: paragraph
Encoding: 182 182 117
Width: 630
GlyphClass: 2
Flags: W
LayerCount: 2
Fore
SplineSet
445 0 m 1,0,-1
 445 682 l 1,1,-1
 520 682 l 1,2,-1
 520 0 l 1,3,-1
 445 0 l 1,0,-1
325 0 m 1,4,-1
 325 325 l 1,5,-1
 265 326 l 2,6,7
 169 328 169 328 114.5 375 c 128,-1,8
 60 422 60 422 60 510 c 128,-1,9
 60 598 60 598 113 646 c 128,-1,10
 166 694 166 694 253 694 c 0,11,12
 323 694 323 694 385 682 c 1,13,-1
 388 0 l 1,14,-1
 325 0 l 1,4,-1
EndSplineSet
EndChar

StartChar: periodcentered
Encoding: 183 183 118
Width: 208
GlyphClass: 2
Flags: W
LayerCount: 2
Fore
SplineSet
60 217 m 0,0,1
 60 264 60 264 106 264 c 0,2,3
 148 264 148 264 148 218.5 c 128,-1,4
 148 173 148 173 104 173 c 128,-1,5
 60 173 60 173 60 217 c 0,0,1
EndSplineSet
EndChar

StartChar: cedilla
Encoding: 184 184 119
Width: 412
GlyphClass: 2
Flags: W
LayerCount: 2
Fore
SplineSet
202 -161 m 0,0,1
 245 -161 245 -161 245 -119 c 0,2,3
 245 -80 245 -80 188 -65 c 1,4,-1
 216 39 l 1,5,-1
 257 28 l 1,6,-1
 239 -38 l 1,7,8
 306 -59 306 -59 306 -118 c 0,9,10
 306 -155 306 -155 279 -178 c 128,-1,11
 252 -201 252 -201 214 -201 c 0,12,13
 178 -201 178 -201 156 -185 c 1,14,-1
 165 -155 l 1,15,16
 180 -161 180 -161 202 -161 c 0,0,1
EndSplineSet
EndChar

StartChar: onesuperior
Encoding: 185 185 120
Width: 310
GlyphClass: 2
Flags: W
LayerCount: 2
Fore
SplineSet
69 376 m 1,0,-1
 69 419 l 1,1,-1
 136 419 l 1,2,-1
 138 674 l 1,3,-1
 61 632 l 1,4,-1
 36 665 l 1,5,-1
 138 745 l 1,6,-1
 198 735 l 1,7,-1
 198 419 l 1,8,-1
 262 419 l 1,9,-1
 262 376 l 1,10,-1
 69 376 l 1,0,-1
EndSplineSet
EndChar

StartChar: ordmasculine
Encoding: 186 186 121
Width: 397
GlyphClass: 2
Flags: W
LayerCount: 2
Fore
SplineSet
194 415 m 0,0,1
 278 415 278 415 278 541 c 0,2,3
 278 594 278 594 261 622.5 c 128,-1,4
 244 651 244 651 200 651 c 128,-1,5
 156 651 156 651 136.5 616 c 128,-1,6
 117 581 117 581 117 528 c 128,-1,7
 117 475 117 475 133.5 445 c 128,-1,8
 150 415 150 415 194 415 c 0,0,1
300.5 418.5 m 128,-1,10
 262 370 262 370 191.5 370 c 128,-1,11
 121 370 121 370 89.5 409.5 c 128,-1,12
 58 449 58 449 58 527 c 128,-1,13
 58 605 58 605 93.5 650.5 c 128,-1,14
 129 696 129 696 199 696 c 128,-1,15
 269 696 269 696 304 655 c 128,-1,16
 339 614 339 614 339 540.5 c 128,-1,9
 339 467 339 467 300.5 418.5 c 128,-1,10
EndSplineSet
EndChar

StartChar: guillemotright
Encoding: 187 187 122
Width: 516
GlyphClass: 2
Flags: W
LayerCount: 2
Fore
SplineSet
445 253 m 2,0,1
 456 242 456 242 456 230 c 0,2,3
 456 213 456 213 445 200 c 1,4,-1
 252 29 l 1,5,6
 245 29 245 29 233.5 49 c 128,-1,7
 222 69 222 69 222 77 c 1,8,-1
 375 226 l 1,9,-1
 222 375 l 1,10,11
 222 383 222 383 233.5 403 c 128,-1,12
 245 423 245 423 252 423 c 1,13,-1
 445 253 l 2,0,1
283 253 m 2,14,15
 294 242 294 242 294 230 c 0,16,17
 294 213 294 213 283 200 c 1,18,-1
 90 29 l 1,19,20
 83 29 83 29 71.5 49 c 128,-1,21
 60 69 60 69 60 77 c 1,22,-1
 213 226 l 1,23,-1
 60 375 l 1,24,25
 60 383 60 383 71.5 403 c 128,-1,26
 83 423 83 423 90 423 c 1,27,-1
 283 253 l 2,14,15
EndSplineSet
EndChar

StartChar: onequarter
Encoding: 188 188 123
Width: 900
GlyphClass: 2
Flags: W
LayerCount: 2
Fore
SplineSet
162 302 m 1,0,-1
 162 345 l 1,1,-1
 229 345 l 1,2,-1
 231 600 l 1,3,-1
 154 558 l 1,4,-1
 129 591 l 1,5,-1
 231 671 l 1,6,-1
 291 661 l 1,7,-1
 291 345 l 1,8,-1
 355 345 l 1,9,-1
 355 302 l 1,10,-1
 162 302 l 1,0,-1
542 102 m 1,11,-1
 542 126 l 1,12,-1
 629 369 l 1,13,-1
 685 358 l 1,14,-1
 608 145 l 1,15,-1
 705 145 l 1,16,-1
 705 261 l 1,17,-1
 764 261 l 1,18,-1
 764 145 l 1,19,-1
 806 145 l 1,20,-1
 801 102 l 1,21,-1
 764 102 l 1,22,-1
 764 0 l 1,23,-1
 705 0 l 1,24,-1
 705 102 l 1,25,-1
 542 102 l 1,11,-1
683 671 m 1,26,-1
 249 -33 l 1,27,28
 227 -26 227 -26 215 -12 c 1,29,-1
 649 692 l 1,30,31
 671 685 671 685 683 671 c 1,26,-1
EndSplineSet
EndChar

StartChar: onehalf
Encoding: 189 189 124
Width: 900
GlyphClass: 2
Flags: W
LayerCount: 2
Fore
SplineSet
531 7 m 1,0,-1
 531 31 l 1,1,2
 703 180 703 180 703 272 c 0,3,4
 703 327 703 327 635 327 c 0,5,6
 599 327 599 327 560 314 c 1,7,-1
 548 358 l 1,8,9
 592 376 592 376 641 376 c 0,10,11
 764 376 764 376 764 274 c 0,12,13
 764 223 764 223 720 158.5 c 128,-1,14
 676 94 676 94 624 50 c 1,15,-1
 770 50 l 1,16,-1
 772 7 l 1,17,-1
 531 7 l 1,0,-1
162 302 m 1,18,-1
 162 345 l 1,19,-1
 229 345 l 1,20,-1
 231 600 l 1,21,-1
 154 558 l 1,22,-1
 129 591 l 1,23,-1
 231 671 l 1,24,-1
 291 661 l 1,25,-1
 291 345 l 1,26,-1
 355 345 l 1,27,-1
 355 302 l 1,28,-1
 162 302 l 1,18,-1
683 671 m 1,29,-1
 249 -33 l 1,30,31
 227 -26 227 -26 215 -12 c 1,32,-1
 649 692 l 1,33,34
 671 685 671 685 683 671 c 1,29,-1
EndSplineSet
EndChar

StartChar: threequarters
Encoding: 190 190 125
Width: 900
GlyphClass: 2
Flags: W
LayerCount: 2
Fore
SplineSet
542 102 m 1,0,-1
 542 126 l 1,1,-1
 629 369 l 1,2,-1
 685 358 l 1,3,-1
 608 145 l 1,4,-1
 705 145 l 1,5,-1
 705 261 l 1,6,-1
 764 261 l 1,7,-1
 764 145 l 1,8,-1
 806 145 l 1,9,-1
 801 102 l 1,10,-1
 764 102 l 1,11,-1
 764 0 l 1,12,-1
 705 0 l 1,13,-1
 705 102 l 1,14,-1
 542 102 l 1,0,-1
683 671 m 1,15,-1
 249 -33 l 1,16,17
 227 -26 227 -26 215 -12 c 1,18,-1
 649 692 l 1,19,20
 671 685 671 685 683 671 c 1,15,-1
218 341 m 0,21,22
 292 341 292 341 292 408 c 0,23,24
 292 472 292 472 212 472 c 2,25,-1
 169 472 l 1,26,-1
 169 513 l 1,27,28
 198 517 198 517 223 517 c 128,-1,29
 248 517 248 517 261 514 c 1,30,31
 285 538 285 538 285 577 c 0,32,33
 285 622 285 622 222 622 c 0,34,35
 183 622 183 622 146 609 c 1,36,-1
 135 653 l 1,37,38
 179 671 179 671 232.5 671 c 128,-1,39
 286 671 286 671 316 650.5 c 128,-1,40
 346 630 346 630 346 581.5 c 128,-1,41
 346 533 346 533 304 500 c 1,42,43
 353 476 353 476 353 414 c 0,44,45
 353 296 353 296 227 296 c 0,46,47
 157 296 157 296 112 330 c 1,48,-1
 125 371 l 1,49,50
 168 341 168 341 218 341 c 0,21,22
EndSplineSet
EndChar

StartChar: questiondown
Encoding: 191 191 126
Width: 340
GlyphClass: 2
Flags: W
LayerCount: 2
Fore
SplineSet
236 387 m 0,0,1
 192 387 192 387 192 434.5 c 128,-1,2
 192 482 192 482 238 482 c 128,-1,3
 284 482 284 482 284 436 c 0,4,5
 284 387 284 387 236 387 c 0,6,7
 192 387 192 387 192 434.5 c 128,-1,8
 192 482 192 482 238 482 c 128,-1,9
 284 482 284 482 284 436 c 0,10,11
 284 387 284 387 236 387 c 0,0,1
216 -240 m 0,12,13
 125 -240 125 -240 80 -187 c 128,-1,14
 35 -134 35 -134 35 -36 c 0,15,16
 35 163 35 163 198 163 c 1,17,-1
 215 162 l 1,18,-1
 209 270 l 1,19,-1
 257 282 l 1,20,21
 274 279 274 279 279 261.5 c 128,-1,22
 284 244 284 244 285 200 c 2,23,-1
 286 104 l 1,24,25
 257 111 257 111 214 111 c 0,26,27
 155 111 155 111 133.5 73.5 c 128,-1,28
 112 36 112 36 112 -36.5 c 128,-1,29
 112 -109 112 -109 138.5 -143.5 c 128,-1,30
 165 -178 165 -178 230 -178 c 0,31,32
 257 -178 257 -178 286 -172 c 1,33,-1
 295 -220 l 1,34,35
 256 -240 256 -240 216 -240 c 0,12,13
EndSplineSet
EndChar

StartChar: Agrave
Encoding: 192 192 127
Width: 569
GlyphClass: 2
Flags: W
LayerCount: 2
Fore
SplineSet
22 0 m 1,0,-1
 246 690 l 1,1,-1
 321 699 l 1,2,-1
 546 0 l 1,3,-1
 469 0 l 1,4,-1
 408 195 l 1,5,-1
 159 195 l 1,6,-1
 99 0 l 1,7,-1
 22 0 l 1,0,-1
288 618 m 2,8,-1
 282 618 l 1,9,10
 281 591 281 591 272 561 c 2,11,-1
 179 260 l 1,12,-1
 388 260 l 1,13,-1
 298 561 l 2,14,15
 292 583 292 583 289.5 600.5 c 128,-1,16
 287 618 287 618 288 618 c 2,8,-1
197 838 m 1,17,18
 203 846 203 846 219 846 c 128,-1,19
 235 846 235 846 279 812 c 1,20,-1
 361 751 l 1,21,-1
 339 723 l 1,22,-1
 180 795 l 1,23,-1
 197 838 l 1,17,18
EndSplineSet
EndChar

StartChar: Aacute
Encoding: 193 193 128
Width: 569
GlyphClass: 2
Flags: W
LayerCount: 2
Fore
SplineSet
22 0 m 1,0,-1
 246 690 l 1,1,-1
 321 699 l 1,2,-1
 546 0 l 1,3,-1
 469 0 l 1,4,-1
 408 195 l 1,5,-1
 159 195 l 1,6,-1
 99 0 l 1,7,-1
 22 0 l 1,0,-1
288 618 m 2,8,-1
 282 618 l 1,9,10
 281 591 281 591 272 561 c 2,11,-1
 179 260 l 1,12,-1
 388 260 l 1,13,-1
 298 561 l 2,14,15
 292 583 292 583 289.5 600.5 c 128,-1,16
 287 618 287 618 288 618 c 2,8,-1
374 837 m 1,17,-1
 391 794 l 1,18,-1
 232 722 l 1,19,-1
 210 750 l 1,20,-1
 292 811 l 1,21,22
 336 845 336 845 351 845 c 128,-1,23
 366 845 366 845 374 837 c 1,17,-1
EndSplineSet
EndChar

StartChar: Acircumflex
Encoding: 194 194 129
Width: 569
GlyphClass: 2
Flags: W
LayerCount: 2
Fore
SplineSet
22 0 m 1,0,-1
 246 690 l 1,1,-1
 321 699 l 1,2,-1
 546 0 l 1,3,-1
 469 0 l 1,4,-1
 408 195 l 1,5,-1
 159 195 l 1,6,-1
 99 0 l 1,7,-1
 22 0 l 1,0,-1
288 618 m 2,8,-1
 282 618 l 1,9,10
 281 591 281 591 272 561 c 2,11,-1
 179 260 l 1,12,-1
 388 260 l 1,13,-1
 298 561 l 2,14,15
 292 583 292 583 289.5 600.5 c 128,-1,16
 287 618 287 618 288 618 c 2,8,-1
191 724 m 1,17,-1
 169 752 l 1,18,-1
 238 833 l 1,19,-1
 309 842 l 1,20,21
 324 835 324 835 340 816 c 2,22,-1
 395 752 l 1,23,-1
 373 724 l 1,24,-1
 282 792 l 1,25,-1
 191 724 l 1,17,-1
EndSplineSet
EndChar

StartChar: Atilde
Encoding: 195 195 130
Width: 569
GlyphClass: 2
Flags: W
LayerCount: 2
Fore
SplineSet
22 0 m 1,0,-1
 246 690 l 1,1,-1
 321 699 l 1,2,-1
 546 0 l 1,3,-1
 469 0 l 1,4,-1
 408 195 l 1,5,-1
 159 195 l 1,6,-1
 99 0 l 1,7,-1
 22 0 l 1,0,-1
288 618 m 2,8,-1
 282 618 l 1,9,10
 281 591 281 591 272 561 c 2,11,-1
 179 260 l 1,12,-1
 388 260 l 1,13,-1
 298 561 l 2,14,15
 292 583 292 583 289.5 600.5 c 128,-1,16
 287 618 287 618 288 618 c 2,8,-1
164.5 827 m 128,-1,18
 186 847 186 847 213 847 c 0,19,20
 241 847 241 847 284 830 c 0,21,22
 341 807 341 807 353 807 c 0,23,24
 381 807 381 807 404 840 c 1,25,-1
 434 824 l 1,26,27
 425 786 425 786 403.5 766.5 c 128,-1,28
 382 747 382 747 357 747 c 128,-1,29
 332 747 332 747 279 767 c 128,-1,30
 226 787 226 787 217 787 c 0,31,32
 188 787 188 787 164 754 c 1,33,-1
 134 770 l 1,34,17
 143 807 143 807 164.5 827 c 128,-1,18
EndSplineSet
EndChar

StartChar: Adieresis
Encoding: 196 196 131
Width: 569
GlyphClass: 2
Flags: W
LayerCount: 2
Fore
SplineSet
22 0 m 1,0,-1
 246 690 l 1,1,-1
 321 699 l 1,2,-1
 546 0 l 1,3,-1
 469 0 l 1,4,-1
 408 195 l 1,5,-1
 159 195 l 1,6,-1
 99 0 l 1,7,-1
 22 0 l 1,0,-1
288 618 m 2,8,-1
 282 618 l 1,9,10
 281 591 281 591 272 561 c 2,11,-1
 179 260 l 1,12,-1
 388 260 l 1,13,-1
 298 561 l 2,14,15
 292 583 292 583 289.5 600.5 c 128,-1,16
 287 618 287 618 288 618 c 2,8,-1
168 786 m 0,17,18
 168 830 168 830 211 830 c 0,19,20
 229 830 229 830 239.5 818.5 c 128,-1,21
 250 807 250 807 250 787.5 c 128,-1,22
 250 768 250 768 239 756.5 c 128,-1,23
 228 745 228 745 209 745 c 128,-1,24
 190 745 190 745 179 756 c 128,-1,25
 168 767 168 767 168 786 c 0,17,18
328 786 m 0,26,27
 328 830 328 830 371 830 c 0,28,29
 389 830 389 830 399.5 818.5 c 128,-1,30
 410 807 410 807 410 787.5 c 128,-1,31
 410 768 410 768 399 756.5 c 128,-1,32
 388 745 388 745 369 745 c 128,-1,33
 350 745 350 745 339 756 c 128,-1,34
 328 767 328 767 328 786 c 0,26,27
EndSplineSet
EndChar

StartChar: Aring
Encoding: 197 197 132
Width: 569
GlyphClass: 2
Flags: W
LayerCount: 2
Fore
SplineSet
22 0 m 1,0,-1
 246 690 l 1,1,-1
 321 699 l 1,2,-1
 546 0 l 1,3,-1
 469 0 l 1,4,-1
 408 195 l 1,5,-1
 159 195 l 1,6,-1
 99 0 l 1,7,-1
 22 0 l 1,0,-1
288 618 m 2,8,-1
 282 618 l 1,9,10
 281 591 281 591 272 561 c 2,11,-1
 179 260 l 1,12,-1
 388 260 l 1,13,-1
 298 561 l 2,14,15
 292 583 292 583 289.5 600.5 c 128,-1,16
 287 618 287 618 288 618 c 2,8,-1
243 822 m 0,17,18
 243 778 243 778 287 778 c 128,-1,19
 331 778 331 778 331 823.5 c 128,-1,20
 331 869 331 869 289 869 c 0,21,22
 243 869 243 869 243 822 c 0,17,18
217.5 757 m 128,-1,24
 192 781 192 781 192 823.5 c 128,-1,25
 192 866 192 866 217.5 890 c 128,-1,26
 243 914 243 914 288 914 c 128,-1,27
 333 914 333 914 357.5 889.5 c 128,-1,28
 382 865 382 865 382 823.5 c 128,-1,29
 382 782 382 782 357 757.5 c 128,-1,30
 332 733 332 733 287.5 733 c 128,-1,23
 243 733 243 733 217.5 757 c 128,-1,24
EndSplineSet
EndChar

StartChar: AE
Encoding: 198 198 133
Width: 722
GlyphClass: 2
Flags: W
LayerCount: 2
Fore
SplineSet
424 98.5 m 128,-1,1
 424 76 424 76 422 59 c 1,2,-1
 690 67 l 1,3,-1
 690 0 l 1,4,-1
 354 -9 l 1,5,-1
 341 195 l 1,6,-1
 147 195 l 1,7,-1
 72 0 l 1,8,-1
 -8 0 l 1,9,-1
 271 690 l 1,10,-1
 648 699 l 1,11,-1
 648 633 l 1,12,-1
 387 627 l 1,13,14
 394 586 394 586 404 402 c 1,15,-1
 634 409 l 1,16,-1
 638 343 l 1,17,-1
 408 336 l 1,18,0
 424 121 424 121 424 98.5 c 128,-1,1
172 260 m 1,19,-1
 336 261 l 1,20,-1
 313 628 l 1,21,-1
 307 628 l 1,22,23
 304 600 304 600 293 571 c 2,24,-1
 172 260 l 1,19,-1
EndSplineSet
EndChar

StartChar: Ccedilla
Encoding: 199 199 134
Width: 521
GlyphClass: 2
Flags: W
LayerCount: 2
Fore
SplineSet
271 -161 m 0,0,1
 314 -161 314 -161 314 -119 c 0,2,3
 314 -80 314 -80 257 -65 c 1,4,-1
 272 -9 l 1,5,6
 157 7 157 7 111 108 c 0,7,8
 70 198 70 198 70 345.5 c 128,-1,9
 70 493 70 493 144 593.5 c 128,-1,10
 218 694 218 694 350 694 c 0,11,12
 414 694 414 694 473 674 c 1,13,-1
 458 618 l 1,14,15
 407 628 407 628 359 628 c 0,16,17
 150 628 150 628 150 338 c 0,18,19
 150 131 150 131 240 76 c 0,20,21
 277 54 277 54 331 54 c 0,22,23
 418 54 418 54 488 112 c 1,24,-1
 504 61 l 1,25,26
 438 -12 438 -12 316 -12 c 2,27,-1
 315 -12 l 1,28,-1
 308 -38 l 1,29,30
 375 -59 375 -59 375 -118 c 0,31,32
 375 -155 375 -155 348 -178 c 128,-1,33
 321 -201 321 -201 283 -201 c 0,34,35
 247 -201 247 -201 225 -185 c 1,36,-1
 234 -155 l 1,37,38
 249 -161 249 -161 271 -161 c 0,0,1
EndSplineSet
EndChar

StartChar: Egrave
Encoding: 200 200 135
Width: 508
GlyphClass: 2
Flags: W
LayerCount: 2
Fore
SplineSet
198 154 m 2,0,1
 198 101 198 101 192 65 c 1,2,-1
 469 65 l 1,3,-1
 466 0 l 1,4,-1
 120 0 l 1,5,-1
 123 690 l 1,6,-1
 469 690 l 1,7,-1
 466 625 l 1,8,-1
 197 625 l 1,9,10
 200 596 200 596 200 536 c 2,11,-1
 198 405 l 1,12,-1
 438 405 l 1,13,-1
 438 340 l 1,14,-1
 198 340 l 1,15,-1
 198 154 l 2,0,1
188 838 m 1,16,17
 194 846 194 846 210 846 c 128,-1,18
 226 846 226 846 270 812 c 1,19,-1
 352 751 l 1,20,-1
 330 723 l 1,21,-1
 171 795 l 1,22,-1
 188 838 l 1,16,17
EndSplineSet
EndChar

StartChar: Eacute
Encoding: 201 201 136
Width: 508
GlyphClass: 2
Flags: W
LayerCount: 2
Fore
SplineSet
198 154 m 2,0,1
 198 101 198 101 192 65 c 1,2,-1
 469 65 l 1,3,-1
 466 0 l 1,4,-1
 120 0 l 1,5,-1
 123 690 l 1,6,-1
 469 690 l 1,7,-1
 466 625 l 1,8,-1
 197 625 l 1,9,10
 200 596 200 596 200 536 c 2,11,-1
 198 405 l 1,12,-1
 438 405 l 1,13,-1
 438 340 l 1,14,-1
 198 340 l 1,15,-1
 198 154 l 2,0,1
393 838 m 1,16,-1
 410 795 l 1,17,-1
 251 723 l 1,18,-1
 229 751 l 1,19,-1
 311 812 l 1,20,21
 355 846 355 846 370 846 c 128,-1,22
 385 846 385 846 393 838 c 1,16,-1
EndSplineSet
EndChar

StartChar: Ecircumflex
Encoding: 202 202 137
Width: 508
GlyphClass: 2
Flags: W
LayerCount: 2
Fore
SplineSet
198 154 m 2,0,1
 198 101 198 101 192 65 c 1,2,-1
 469 65 l 1,3,-1
 466 0 l 1,4,-1
 120 0 l 1,5,-1
 123 690 l 1,6,-1
 469 690 l 1,7,-1
 466 625 l 1,8,-1
 197 625 l 1,9,10
 200 596 200 596 200 536 c 2,11,-1
 198 405 l 1,12,-1
 438 405 l 1,13,-1
 438 340 l 1,14,-1
 198 340 l 1,15,-1
 198 154 l 2,0,1
203 725 m 1,16,-1
 181 753 l 1,17,-1
 250 834 l 1,18,-1
 321 843 l 1,19,20
 336 836 336 836 352 817 c 2,21,-1
 407 753 l 1,22,-1
 385 725 l 1,23,-1
 294 793 l 1,24,-1
 203 725 l 1,16,-1
EndSplineSet
EndChar

StartChar: Edieresis
Encoding: 203 203 138
Width: 508
GlyphClass: 2
Flags: W
LayerCount: 2
Fore
SplineSet
198 154 m 2,0,1
 198 101 198 101 192 65 c 1,2,-1
 469 65 l 1,3,-1
 466 0 l 1,4,-1
 120 0 l 1,5,-1
 123 690 l 1,6,-1
 469 690 l 1,7,-1
 466 625 l 1,8,-1
 197 625 l 1,9,10
 200 596 200 596 200 536 c 2,11,-1
 198 405 l 1,12,-1
 438 405 l 1,13,-1
 438 340 l 1,14,-1
 198 340 l 1,15,-1
 198 154 l 2,0,1
168 786 m 0,16,17
 168 830 168 830 211 830 c 0,18,19
 229 830 229 830 239.5 818.5 c 128,-1,20
 250 807 250 807 250 787.5 c 128,-1,21
 250 768 250 768 239 756.5 c 128,-1,22
 228 745 228 745 209 745 c 128,-1,23
 190 745 190 745 179 756 c 128,-1,24
 168 767 168 767 168 786 c 0,16,17
328 786 m 0,25,26
 328 830 328 830 371 830 c 0,27,28
 389 830 389 830 399.5 818.5 c 128,-1,29
 410 807 410 807 410 787.5 c 128,-1,30
 410 768 410 768 399 756.5 c 128,-1,31
 388 745 388 745 369 745 c 128,-1,32
 350 745 350 745 339 756 c 128,-1,33
 328 767 328 767 328 786 c 0,25,26
EndSplineSet
EndChar

StartChar: Igrave
Encoding: 204 204 139
Width: 323
GlyphClass: 2
Flags: W
LayerCount: 2
Fore
SplineSet
200 690 m 1,0,-1
 200 0 l 1,1,-1
 122 0 l 1,2,-1
 125 690 l 1,3,-1
 200 690 l 1,0,-1
73 838 m 1,4,5
 79 846 79 846 95 846 c 128,-1,6
 111 846 111 846 155 812 c 1,7,-1
 237 751 l 1,8,-1
 215 723 l 1,9,-1
 56 795 l 1,10,-1
 73 838 l 1,4,5
EndSplineSet
EndChar

StartChar: Iacute
Encoding: 205 205 140
Width: 323
GlyphClass: 2
Flags: W
LayerCount: 2
Fore
SplineSet
200 690 m 1,0,-1
 200 0 l 1,1,-1
 122 0 l 1,2,-1
 125 690 l 1,3,-1
 200 690 l 1,0,-1
251 838 m 1,4,-1
 268 795 l 1,5,-1
 109 723 l 1,6,-1
 87 751 l 1,7,-1
 169 812 l 1,8,9
 213 846 213 846 228 846 c 128,-1,10
 243 846 243 846 251 838 c 1,4,-1
EndSplineSet
EndChar

StartChar: Icircumflex
Encoding: 206 206 141
Width: 323
GlyphClass: 2
Flags: W
LayerCount: 2
Fore
SplineSet
200 690 m 1,0,-1
 200 0 l 1,1,-1
 122 0 l 1,2,-1
 125 690 l 1,3,-1
 200 690 l 1,0,-1
71 724 m 1,4,-1
 49 752 l 1,5,-1
 118 833 l 1,6,-1
 189 842 l 1,7,8
 204 835 204 835 220 816 c 2,9,-1
 275 752 l 1,10,-1
 253 724 l 1,11,-1
 162 792 l 1,12,-1
 71 724 l 1,4,-1
EndSplineSet
EndChar

StartChar: Idieresis
Encoding: 207 207 142
Width: 323
GlyphClass: 2
Flags: W
LayerCount: 2
Fore
SplineSet
57 786 m 0,0,1
 57 830 57 830 100 830 c 0,2,3
 118 830 118 830 128.5 818.5 c 128,-1,4
 139 807 139 807 139 787.5 c 128,-1,5
 139 768 139 768 128 756.5 c 128,-1,6
 117 745 117 745 98 745 c 128,-1,7
 79 745 79 745 68 756 c 128,-1,8
 57 767 57 767 57 786 c 0,0,1
187 786 m 0,9,10
 187 830 187 830 230 830 c 0,11,12
 248 830 248 830 258.5 818.5 c 128,-1,13
 269 807 269 807 269 787.5 c 128,-1,14
 269 768 269 768 258 756.5 c 128,-1,15
 247 745 247 745 228 745 c 128,-1,16
 209 745 209 745 198 756 c 128,-1,17
 187 767 187 767 187 786 c 0,9,10
200 690 m 1,18,-1
 200 0 l 1,19,-1
 122 0 l 1,20,-1
 125 690 l 1,21,-1
 200 690 l 1,18,-1
EndSplineSet
EndChar

StartChar: Eth
Encoding: 208 208 143
Width: 636
GlyphClass: 2
Flags: W
LayerCount: 2
Fore
SplineSet
310 694 m 0,0,1
 568 694 568 694 568 349 c 0,2,3
 568 196 568 196 500 95 c 0,4,5
 467 45 467 45 411.5 16.5 c 128,-1,6
 356 -12 356 -12 285 -12 c 0,7,8
 172 -12 172 -12 120 11 c 1,9,-1
 121 324 l 1,10,-1
 45 323 l 1,11,-1
 45 385 l 1,12,-1
 122 384 l 1,13,-1
 123 682 l 1,14,15
 205 694 205 694 310 694 c 0,0,1
275 53 m 0,16,17
 386 53 386 53 437 136.5 c 128,-1,18
 488 220 488 220 488 352 c 0,19,20
 488 629 488 629 286 629 c 1,21,-1
 198 625 l 1,22,-1
 198 383 l 1,23,-1
 344 381 l 1,24,-1
 338 327 l 1,25,-1
 198 325 l 1,26,-1
 198 58 l 1,27,28
 226 53 226 53 275 53 c 0,16,17
EndSplineSet
EndChar

StartChar: Ntilde
Encoding: 209 209 144
Width: 700
GlyphClass: 2
Flags: W
LayerCount: 2
Fore
SplineSet
505 162 m 2,0,-1
 505 690 l 1,1,-1
 580 690 l 1,2,-1
 577 0 l 1,3,-1
 476 0 l 1,4,-1
 213 559 l 1,5,-1
 191 610 l 1,6,-1
 186 609 l 1,7,8
 195 588 195 588 195 528 c 2,9,-1
 195 0 l 1,10,-1
 120 0 l 1,11,-1
 123 690 l 1,12,-1
 224 690 l 1,13,-1
 487 131 l 1,14,-1
 509 80 l 1,15,-1
 514 81 l 1,16,17
 505 102 505 102 505 162 c 2,0,-1
235.5 818 m 128,-1,19
 257 838 257 838 284 838 c 0,20,21
 312 838 312 838 354 821 c 0,22,23
 412 798 412 798 424 798 c 0,24,25
 452 798 452 798 475 831 c 1,26,-1
 505 815 l 1,27,28
 496 777 496 777 474.5 757.5 c 128,-1,29
 453 738 453 738 428 738 c 128,-1,30
 403 738 403 738 350 758 c 128,-1,31
 297 778 297 778 288 778 c 0,32,33
 259 778 259 778 235 745 c 1,34,-1
 205 761 l 1,35,18
 214 798 214 798 235.5 818 c 128,-1,19
EndSplineSet
EndChar

StartChar: Ograve
Encoding: 210 210 145
Width: 693
GlyphClass: 2
Flags: W
LayerCount: 2
Fore
SplineSet
340 51 m 0,0,1
 396 51 396 51 436.5 77.5 c 128,-1,2
 477 104 477 104 500 150 c 0,3,4
 542 238 542 238 542 365 c 0,5,6
 542 518 542 518 486 584 c 0,7,8
 441 636 441 636 355 636 c 0,9,10
 301 636 301 636 260.5 611 c 128,-1,11
 220 586 220 586 198 543 c 0,12,13
 153 458 153 458 153 339 c 0,14,15
 153 51 153 51 340 51 c 0,0,1
331 -12 m 0,16,17
 265 -12 265 -12 212 13 c 128,-1,18
 159 38 159 38 129 86 c 0,19,20
 73 177 73 177 73 339 c 0,21,22
 73 554 73 554 196 651 c 0,23,24
 261 702 261 702 355 702 c 0,25,26
 498 702 498 702 559 614 c 128,-1,27
 620 526 620 526 620 364 c 0,28,29
 620 169 620 169 524 64 c 0,30,31
 455 -12 455 -12 331 -12 c 0,16,17
252 843 m 1,32,33
 258 851 258 851 274 851 c 128,-1,34
 290 851 290 851 334 817 c 1,35,-1
 416 756 l 1,36,-1
 394 728 l 1,37,-1
 235 800 l 1,38,-1
 252 843 l 1,32,33
EndSplineSet
EndChar

StartChar: Oacute
Encoding: 211 211 146
Width: 693
GlyphClass: 2
Flags: W
LayerCount: 2
Fore
SplineSet
340 51 m 0,0,1
 396 51 396 51 436.5 77.5 c 128,-1,2
 477 104 477 104 500 150 c 0,3,4
 542 238 542 238 542 365 c 0,5,6
 542 518 542 518 486 584 c 0,7,8
 441 636 441 636 355 636 c 0,9,10
 301 636 301 636 260.5 611 c 128,-1,11
 220 586 220 586 198 543 c 0,12,13
 153 458 153 458 153 339 c 0,14,15
 153 51 153 51 340 51 c 0,0,1
331 -12 m 0,16,17
 265 -12 265 -12 212 13 c 128,-1,18
 159 38 159 38 129 86 c 0,19,20
 73 177 73 177 73 339 c 0,21,22
 73 554 73 554 196 651 c 0,23,24
 261 702 261 702 355 702 c 0,25,26
 498 702 498 702 559 614 c 128,-1,27
 620 526 620 526 620 364 c 0,28,29
 620 169 620 169 524 64 c 0,30,31
 455 -12 455 -12 331 -12 c 0,16,17
456 843 m 1,32,-1
 473 800 l 1,33,-1
 314 728 l 1,34,-1
 292 756 l 1,35,-1
 374 817 l 1,36,37
 418 851 418 851 433 851 c 128,-1,38
 448 851 448 851 456 843 c 1,32,-1
EndSplineSet
EndChar

StartChar: Ocircumflex
Encoding: 212 212 147
Width: 693
GlyphClass: 2
Flags: W
LayerCount: 2
Fore
SplineSet
340 51 m 0,0,1
 396 51 396 51 436.5 77.5 c 128,-1,2
 477 104 477 104 500 150 c 0,3,4
 542 238 542 238 542 365 c 0,5,6
 542 518 542 518 486 584 c 0,7,8
 441 636 441 636 355 636 c 0,9,10
 301 636 301 636 260.5 611 c 128,-1,11
 220 586 220 586 198 543 c 0,12,13
 153 458 153 458 153 339 c 0,14,15
 153 51 153 51 340 51 c 0,0,1
331 -12 m 0,16,17
 265 -12 265 -12 212 13 c 128,-1,18
 159 38 159 38 129 86 c 0,19,20
 73 177 73 177 73 339 c 0,21,22
 73 554 73 554 196 651 c 0,23,24
 261 702 261 702 355 702 c 0,25,26
 498 702 498 702 559 614 c 128,-1,27
 620 526 620 526 620 364 c 0,28,29
 620 169 620 169 524 64 c 0,30,31
 455 -12 455 -12 331 -12 c 0,16,17
255 725 m 1,32,-1
 233 753 l 1,33,-1
 302 834 l 1,34,-1
 373 843 l 1,35,36
 388 836 388 836 404 817 c 2,37,-1
 459 753 l 1,38,-1
 437 725 l 1,39,-1
 346 793 l 1,40,-1
 255 725 l 1,32,-1
EndSplineSet
EndChar

StartChar: Otilde
Encoding: 213 213 148
Width: 693
GlyphClass: 2
Flags: W
LayerCount: 2
Fore
SplineSet
340 51 m 0,0,1
 396 51 396 51 436.5 77.5 c 128,-1,2
 477 104 477 104 500 150 c 0,3,4
 542 238 542 238 542 365 c 0,5,6
 542 518 542 518 486 584 c 0,7,8
 441 636 441 636 355 636 c 0,9,10
 301 636 301 636 260.5 611 c 128,-1,11
 220 586 220 586 198 543 c 0,12,13
 153 458 153 458 153 339 c 0,14,15
 153 51 153 51 340 51 c 0,0,1
331 -12 m 0,16,17
 265 -12 265 -12 212 13 c 128,-1,18
 159 38 159 38 129 86 c 0,19,20
 73 177 73 177 73 339 c 0,21,22
 73 554 73 554 196 651 c 0,23,24
 261 702 261 702 355 702 c 0,25,26
 498 702 498 702 559 614 c 128,-1,27
 620 526 620 526 620 364 c 0,28,29
 620 169 620 169 524 64 c 0,30,31
 455 -12 455 -12 331 -12 c 0,16,17
226.5 830 m 128,-1,33
 248 850 248 850 275 850 c 0,34,35
 303 850 303 850 346 833 c 0,36,37
 403 810 403 810 415 810 c 0,38,39
 443 810 443 810 466 843 c 1,40,-1
 496 827 l 1,41,42
 487 789 487 789 465.5 769.5 c 128,-1,43
 444 750 444 750 417 750 c 0,44,45
 387 750 387 750 322 777 c 0,46,47
 290 790 290 790 279 790 c 0,48,49
 250 790 250 790 226 757 c 1,50,-1
 196 773 l 1,51,32
 205 810 205 810 226.5 830 c 128,-1,33
EndSplineSet
EndChar

StartChar: Odieresis
Encoding: 214 214 149
Width: 693
GlyphClass: 2
Flags: W
LayerCount: 2
Fore
SplineSet
340 51 m 0,0,1
 396 51 396 51 436.5 77.5 c 128,-1,2
 477 104 477 104 500 150 c 0,3,4
 542 238 542 238 542 365 c 0,5,6
 542 518 542 518 486 584 c 0,7,8
 441 636 441 636 355 636 c 0,9,10
 301 636 301 636 260.5 611 c 128,-1,11
 220 586 220 586 198 543 c 0,12,13
 153 458 153 458 153 339 c 0,14,15
 153 51 153 51 340 51 c 0,0,1
331 -12 m 0,16,17
 265 -12 265 -12 212 13 c 128,-1,18
 159 38 159 38 129 86 c 0,19,20
 73 177 73 177 73 339 c 0,21,22
 73 554 73 554 196 651 c 0,23,24
 261 702 261 702 355 702 c 0,25,26
 498 702 498 702 559 614 c 128,-1,27
 620 526 620 526 620 364 c 0,28,29
 620 169 620 169 524 64 c 0,30,31
 455 -12 455 -12 331 -12 c 0,16,17
235 787 m 0,32,33
 235 831 235 831 278 831 c 0,34,35
 296 831 296 831 306.5 819.5 c 128,-1,36
 317 808 317 808 317 788.5 c 128,-1,37
 317 769 317 769 306 757.5 c 128,-1,38
 295 746 295 746 276 746 c 128,-1,39
 257 746 257 746 246 757 c 128,-1,40
 235 768 235 768 235 787 c 0,32,33
395 787 m 0,41,42
 395 831 395 831 438 831 c 0,43,44
 456 831 456 831 466.5 819.5 c 128,-1,45
 477 808 477 808 477 788.5 c 128,-1,46
 477 769 477 769 466 757.5 c 128,-1,47
 455 746 455 746 436 746 c 128,-1,48
 417 746 417 746 406 757 c 128,-1,49
 395 768 395 768 395 787 c 0,41,42
EndSplineSet
EndChar

StartChar: multiply
Encoding: 215 215 150
Width: 357
GlyphClass: 2
Flags: W
LayerCount: 2
Fore
SplineSet
35 197 m 1,0,-1
 277 434 l 1,1,-1
 319 393 l 1,2,-1
 82 151 l 1,3,-1
 35 197 l 1,0,-1
275 150 m 1,4,-1
 38 392 l 1,5,-1
 80 434 l 1,6,-1
 322 197 l 1,7,-1
 275 150 l 1,4,-1
EndSplineSet
EndChar

StartChar: Oslash
Encoding: 216 216 151
Width: 687
GlyphClass: 2
Flags: W
LayerCount: 2
Fore
SplineSet
70 339 m 0,0,1
 70 554 70 554 193 651 c 0,2,3
 258 702 258 702 352 702 c 0,4,5
 410 702 410 702 453 687 c 1,6,-1
 478 750 l 1,7,8
 500 748 500 748 515 735 c 1,9,-1
 489 672 l 1,10,11
 617 603 617 603 617 364 c 0,12,13
 617 169 617 169 521 64 c 0,14,15
 489 29 489 29 441.5 8.5 c 128,-1,16
 394 -12 394 -12 334.5 -12 c 128,-1,17
 275 -12 275 -12 224 7 c 1,18,-1
 192 -74 l 1,19,20
 170 -72 170 -72 155 -59 c 1,21,-1
 188 25 l 1,22,23
 70 99 70 99 70 339 c 0,0,1
250 72 m 1,24,25
 286 51 286 51 339.5 51 c 128,-1,26
 393 51 393 51 433.5 77.5 c 128,-1,27
 474 104 474 104 496 150 c 0,28,29
 539 238 539 238 539 365 c 0,30,31
 539 542 539 542 462 602 c 1,32,-1
 250 72 l 1,24,25
150 339 m 0,33,34
 150 167 150 167 217 97 c 1,35,-1
 427 622 l 1,36,37
 394 636 394 636 346 636 c 128,-1,38
 298 636 298 636 257.5 611 c 128,-1,39
 217 586 217 586 194 543 c 0,40,41
 150 458 150 458 150 339 c 0,33,34
EndSplineSet
EndChar

StartChar: Ugrave
Encoding: 217 217 152
Width: 652
GlyphClass: 2
Flags: W
LayerCount: 2
Fore
SplineSet
209.5 100 m 128,-1,1
 249 53 249 53 324.5 53 c 128,-1,2
 400 53 400 53 438 93.5 c 128,-1,3
 476 134 476 134 476 211 c 2,4,-1
 476 690 l 1,5,-1
 549 690 l 1,6,-1
 551 215 l 2,7,8
 552 106 552 106 493 47 c 128,-1,9
 434 -12 434 -12 324 -12 c 128,-1,10
 214 -12 214 -12 156 49.5 c 128,-1,11
 98 111 98 111 99 225 c 2,12,-1
 102 690 l 1,13,-1
 174 702 l 1,14,-1
 171 227 l 2,15,0
 170 147 170 147 209.5 100 c 128,-1,1
224 838 m 1,16,17
 230 846 230 846 246 846 c 128,-1,18
 262 846 262 846 306 812 c 1,19,-1
 388 751 l 1,20,-1
 366 723 l 1,21,-1
 207 795 l 1,22,-1
 224 838 l 1,16,17
EndSplineSet
EndChar

StartChar: Uacute
Encoding: 218 218 153
Width: 652
GlyphClass: 2
Flags: W
LayerCount: 2
Fore
SplineSet
209.5 100 m 128,-1,1
 249 53 249 53 324.5 53 c 128,-1,2
 400 53 400 53 438 93.5 c 128,-1,3
 476 134 476 134 476 211 c 2,4,-1
 476 690 l 1,5,-1
 549 690 l 1,6,-1
 551 215 l 2,7,8
 552 106 552 106 493 47 c 128,-1,9
 434 -12 434 -12 324 -12 c 128,-1,10
 214 -12 214 -12 156 49.5 c 128,-1,11
 98 111 98 111 99 225 c 2,12,-1
 102 690 l 1,13,-1
 174 702 l 1,14,-1
 171 227 l 2,15,0
 170 147 170 147 209.5 100 c 128,-1,1
438 838 m 1,16,-1
 455 795 l 1,17,-1
 296 723 l 1,18,-1
 274 751 l 1,19,-1
 356 812 l 1,20,21
 400 846 400 846 415 846 c 128,-1,22
 430 846 430 846 438 838 c 1,16,-1
EndSplineSet
EndChar

StartChar: Ucircumflex
Encoding: 219 219 154
Width: 652
GlyphClass: 2
Flags: W
LayerCount: 2
Fore
SplineSet
209.5 100 m 128,-1,1
 249 53 249 53 324.5 53 c 128,-1,2
 400 53 400 53 438 93.5 c 128,-1,3
 476 134 476 134 476 211 c 2,4,-1
 476 690 l 1,5,-1
 549 690 l 1,6,-1
 551 215 l 2,7,8
 552 106 552 106 493 47 c 128,-1,9
 434 -12 434 -12 324 -12 c 128,-1,10
 214 -12 214 -12 156 49.5 c 128,-1,11
 98 111 98 111 99 225 c 2,12,-1
 102 690 l 1,13,-1
 174 702 l 1,14,-1
 171 227 l 2,15,0
 170 147 170 147 209.5 100 c 128,-1,1
239 725 m 1,16,-1
 217 753 l 1,17,-1
 286 834 l 1,18,-1
 357 843 l 1,19,20
 372 836 372 836 388 817 c 2,21,-1
 443 753 l 1,22,-1
 421 725 l 1,23,-1
 330 793 l 1,24,-1
 239 725 l 1,16,-1
EndSplineSet
EndChar

StartChar: Udieresis
Encoding: 220 220 155
Width: 652
GlyphClass: 2
Flags: W
LayerCount: 2
Fore
SplineSet
209.5 100 m 128,-1,1
 249 53 249 53 324.5 53 c 128,-1,2
 400 53 400 53 438 93.5 c 128,-1,3
 476 134 476 134 476 211 c 2,4,-1
 476 690 l 1,5,-1
 549 690 l 1,6,-1
 551 215 l 2,7,8
 552 106 552 106 493 47 c 128,-1,9
 434 -12 434 -12 324 -12 c 128,-1,10
 214 -12 214 -12 156 49.5 c 128,-1,11
 98 111 98 111 99 225 c 2,12,-1
 102 690 l 1,13,-1
 174 702 l 1,14,-1
 171 227 l 2,15,0
 170 147 170 147 209.5 100 c 128,-1,1
205 787 m 0,16,17
 205 831 205 831 248 831 c 0,18,19
 266 831 266 831 276.5 819.5 c 128,-1,20
 287 808 287 808 287 788.5 c 128,-1,21
 287 769 287 769 276 757.5 c 128,-1,22
 265 746 265 746 246 746 c 128,-1,23
 227 746 227 746 216 757 c 128,-1,24
 205 768 205 768 205 787 c 0,16,17
365 787 m 0,25,26
 365 831 365 831 408 831 c 0,27,28
 426 831 426 831 436.5 819.5 c 128,-1,29
 447 808 447 808 447 788.5 c 128,-1,30
 447 769 447 769 436 757.5 c 128,-1,31
 425 746 425 746 406 746 c 128,-1,32
 387 746 387 746 376 757 c 128,-1,33
 365 768 365 768 365 787 c 0,25,26
EndSplineSet
EndChar

StartChar: Yacute
Encoding: 221 221 156
Width: 485
GlyphClass: 2
Flags: W
LayerCount: 2
Fore
SplineSet
201 0 m 1,0,-1
 201 310 l 1,1,-1
 10 690 l 1,2,-1
 85 699 l 1,3,-1
 242 378 l 1,4,-1
 395 690 l 1,5,-1
 475 690 l 1,6,-1
 276 310 l 1,7,-1
 276 0 l 1,8,-1
 201 0 l 1,0,-1
353 838 m 1,9,-1
 370 795 l 1,10,-1
 211 723 l 1,11,-1
 189 751 l 1,12,-1
 271 812 l 1,13,14
 315 846 315 846 330 846 c 128,-1,15
 345 846 345 846 353 838 c 1,9,-1
EndSplineSet
EndChar

StartChar: Thorn
Encoding: 222 222 157
Width: 833
GlyphClass: 2
Flags: W
LayerCount: 2
Fore
SplineSet
198 690 m 1,0,-1
 198 596 l 1,1,2
 256 600 256 600 310 600 c 0,3,4
 401 600 401 600 457 553.5 c 128,-1,5
 513 507 513 507 513 421 c 0,6,7
 513 225 513 225 258 222 c 1,8,-1
 198 221 l 1,9,-1
 198 0 l 1,10,-1
 120 0 l 1,11,-1
 123 690 l 1,12,-1
 198 690 l 1,0,-1
296 535 m 0,13,14
 220 535 220 535 198 531 c 1,15,-1
 198 283 l 1,16,-1
 260 284 l 2,17,18
 433 287 433 287 433 416 c 0,19,20
 433 535 433 535 296 535 c 0,13,14
EndSplineSet
EndChar

StartChar: germandbls
Encoding: 223 223 158
Width: 550
GlyphClass: 2
Flags: W
LayerCount: 2
Fore
SplineSet
40 417 m 1,0,-1
 40 460 l 1,1,-1
 120 470 l 1,2,-1
 120 553 l 2,3,4
 120 644 120 644 164.5 694.5 c 128,-1,5
 209 745 209 745 290 745 c 128,-1,6
 371 745 371 745 421 707.5 c 128,-1,7
 471 670 471 670 471 603 c 0,8,9
 471 562 471 562 444 515.5 c 128,-1,10
 417 469 417 469 390 428.5 c 128,-1,11
 363 388 363 388 363 362 c 128,-1,12
 363 336 363 336 379 315 c 128,-1,13
 395 294 395 294 417.5 276.5 c 128,-1,14
 440 259 440 259 463 240 c 0,15,16
 518 193 518 193 518 127.5 c 128,-1,17
 518 62 518 62 470 25 c 128,-1,18
 422 -12 422 -12 353 -12 c 0,19,20
 326 -12 326 -12 295 -3 c 128,-1,21
 264 6 264 6 245 21 c 1,22,-1
 257 61 l 1,23,24
 306 43 306 43 350.5 43 c 128,-1,25
 395 43 395 43 423 63.5 c 128,-1,26
 451 84 451 84 451 115 c 128,-1,27
 451 146 451 146 435 167.5 c 128,-1,28
 419 189 419 189 396.5 207 c 128,-1,29
 374 225 374 225 351 245 c 0,30,31
 296 293 296 293 296 360 c 0,32,33
 296 398 296 398 350 478 c 128,-1,34
 404 558 404 558 404 600 c 128,-1,35
 404 642 404 642 374.5 665.5 c 128,-1,36
 345 689 345 689 292 689 c 128,-1,37
 239 689 239 689 215.5 655 c 128,-1,38
 192 621 192 621 192 557 c 2,39,-1
 191 -93 l 2,40,41
 191 -135 191 -135 186 -153.5 c 128,-1,42
 181 -172 181 -172 163 -175 c 1,43,-1
 107 -163 l 1,44,45
 122 -145 122 -145 122 -79 c 2,46,-1
 120 417 l 1,47,-1
 40 417 l 1,0,-1
EndSplineSet
EndChar

StartChar: agrave
Encoding: 224 224 159
Width: 531
GlyphClass: 2
Flags: W
LayerCount: 2
Fore
SplineSet
278 429 m 0,0,1
 130 429 130 429 130 206 c 0,2,3
 130 43 130 43 229 43 c 0,4,5
 271 43 271 43 299.5 71.5 c 128,-1,6
 328 100 328 100 342 149 c 0,7,8
 365 234 365 234 365 341 c 2,9,-1
 365 414 l 1,10,11
 331 429 331 429 278 429 c 0,0,1
376 93 m 0,12,13
 376 105 376 105 378 119 c 1,14,-1
 372 119 l 1,15,16
 355 59 355 59 317.5 23.5 c 128,-1,17
 280 -12 280 -12 222 -12 c 0,18,19
 55 -12 55 -12 55 218 c 0,20,21
 55 329 55 329 111.5 405.5 c 128,-1,22
 168 482 168 482 278 482 c 0,23,24
 365 482 365 482 432 451 c 1,25,-1
 432 197 l 2,26,27
 432 164 432 164 434 126.5 c 128,-1,28
 436 89 436 89 450 68 c 0,29,30
 467 41 467 41 507 41 c 1,31,-1
 509 -4 l 1,32,-1
 469 -8 l 1,33,34
 416 -8 416 -8 393 29 c 0,35,36
 376 56 376 56 376 93 c 0,12,13
228 686 m 0,37,38
 249 686 249 686 286 633 c 2,39,-1
 345 550 l 1,40,-1
 315 530 l 1,41,-1
 186 648 l 1,42,-1
 216 683 l 1,43,44
 221 686 221 686 228 686 c 0,37,38
EndSplineSet
EndChar

StartChar: aacute
Encoding: 225 225 160
Width: 531
GlyphClass: 2
Flags: W
LayerCount: 2
Fore
SplineSet
278 429 m 0,0,1
 130 429 130 429 130 206 c 0,2,3
 130 43 130 43 229 43 c 0,4,5
 271 43 271 43 299.5 71.5 c 128,-1,6
 328 100 328 100 342 149 c 0,7,8
 365 234 365 234 365 341 c 2,9,-1
 365 414 l 1,10,11
 331 429 331 429 278 429 c 0,0,1
376 93 m 0,12,13
 376 105 376 105 378 119 c 1,14,-1
 372 119 l 1,15,16
 355 59 355 59 317.5 23.5 c 128,-1,17
 280 -12 280 -12 222 -12 c 0,18,19
 55 -12 55 -12 55 218 c 0,20,21
 55 329 55 329 111.5 405.5 c 128,-1,22
 168 482 168 482 278 482 c 0,23,24
 365 482 365 482 432 451 c 1,25,-1
 432 197 l 2,26,27
 432 164 432 164 434 126.5 c 128,-1,28
 436 89 436 89 450 68 c 0,29,30
 467 41 467 41 507 41 c 1,31,-1
 509 -4 l 1,32,-1
 469 -8 l 1,33,34
 416 -8 416 -8 393 29 c 0,35,36
 376 56 376 56 376 93 c 0,12,13
217 550 m 1,37,-1
 276 633 l 2,38,39
 313 686 313 686 334 686 c 1,40,-1
 346 683 l 1,41,-1
 376 648 l 1,42,-1
 247 530 l 1,43,-1
 217 550 l 1,37,-1
EndSplineSet
EndChar

StartChar: acircumflex
Encoding: 226 226 161
Width: 531
GlyphClass: 2
Flags: W
LayerCount: 2
Fore
SplineSet
278 429 m 0,0,1
 130 429 130 429 130 206 c 0,2,3
 130 43 130 43 229 43 c 0,4,5
 271 43 271 43 299.5 71.5 c 128,-1,6
 328 100 328 100 342 149 c 0,7,8
 365 234 365 234 365 341 c 2,9,-1
 365 414 l 1,10,11
 331 429 331 429 278 429 c 0,0,1
376 93 m 0,12,13
 376 105 376 105 378 119 c 1,14,-1
 372 119 l 1,15,16
 355 59 355 59 317.5 23.5 c 128,-1,17
 280 -12 280 -12 222 -12 c 0,18,19
 55 -12 55 -12 55 218 c 0,20,21
 55 329 55 329 111.5 405.5 c 128,-1,22
 168 482 168 482 278 482 c 0,23,24
 365 482 365 482 432 451 c 1,25,-1
 432 197 l 2,26,27
 432 164 432 164 434 126.5 c 128,-1,28
 436 89 436 89 450 68 c 0,29,30
 467 41 467 41 507 41 c 1,31,-1
 509 -4 l 1,32,-1
 469 -8 l 1,33,34
 416 -8 416 -8 393 29 c 0,35,36
 376 56 376 56 376 93 c 0,12,13
148 550 m 1,37,-1
 221 650 l 1,38,-1
 291 659 l 1,39,40
 312 652 312 652 326 630 c 1,41,-1
 382 550 l 1,42,-1
 352 530 l 1,43,-1
 265 609 l 1,44,-1
 178 530 l 1,45,-1
 148 550 l 1,37,-1
EndSplineSet
EndChar

StartChar: atilde
Encoding: 227 227 162
Width: 531
GlyphClass: 2
Flags: W
LayerCount: 2
Fore
SplineSet
365 341 m 2,0,-1
 365 414 l 1,1,2
 336 429 336 429 278 429 c 0,3,4
 130 429 130 429 130 206 c 0,5,6
 130 43 130 43 229 43 c 0,7,8
 271 43 271 43 299.5 71.5 c 128,-1,9
 328 100 328 100 342 149 c 0,10,11
 365 234 365 234 365 341 c 2,0,-1
222 -12 m 0,12,13
 135 -12 135 -12 95 48 c 128,-1,14
 55 108 55 108 55 218.5 c 128,-1,15
 55 329 55 329 111.5 405.5 c 128,-1,16
 168 482 168 482 278 482 c 0,17,18
 317 482 317 482 355.5 474 c 128,-1,19
 394 466 394 466 432 451 c 1,20,-1
 432 197 l 2,21,22
 432 95 432 95 450 68 c 0,23,24
 467 41 467 41 507 41 c 1,25,-1
 509 -4 l 1,26,27
 493 -8 493 -8 469 -8 c 0,28,29
 416 -8 416 -8 393 29 c 0,30,31
 376 56 376 56 376 93 c 0,32,33
 376 105 376 105 378 119 c 1,34,-1
 372 119 l 1,35,36
 355 59 355 59 317.5 23.5 c 128,-1,37
 280 -12 280 -12 222 -12 c 0,12,13
146.5 629 m 128,-1,39
 168 649 168 649 195 649 c 0,40,41
 223 649 223 649 266 632 c 0,42,43
 323 609 323 609 335 609 c 0,44,45
 363 609 363 609 386 642 c 1,46,-1
 416 626 l 1,47,48
 407 588 407 588 385.5 568.5 c 128,-1,49
 364 549 364 549 337 549 c 0,50,51
 307 549 307 549 242 576 c 0,52,53
 210 589 210 589 199 589 c 0,54,55
 170 589 170 589 146 556 c 1,56,-1
 116 572 l 1,57,38
 125 609 125 609 146.5 629 c 128,-1,39
EndSplineSet
EndChar

StartChar: adieresis
Encoding: 228 228 163
Width: 531
GlyphClass: 2
Flags: W
LayerCount: 2
Fore
SplineSet
278 429 m 0,0,1
 130 429 130 429 130 206 c 0,2,3
 130 43 130 43 229 43 c 0,4,5
 271 43 271 43 299.5 71.5 c 128,-1,6
 328 100 328 100 342 149 c 0,7,8
 365 234 365 234 365 341 c 2,9,-1
 365 414 l 1,10,11
 331 429 331 429 278 429 c 0,0,1
376 93 m 0,12,13
 376 105 376 105 378 119 c 1,14,-1
 372 119 l 1,15,16
 355 59 355 59 317.5 23.5 c 128,-1,17
 280 -12 280 -12 222 -12 c 0,18,19
 55 -12 55 -12 55 218 c 0,20,21
 55 329 55 329 111.5 405.5 c 128,-1,22
 168 482 168 482 278 482 c 0,23,24
 365 482 365 482 432 451 c 1,25,-1
 432 197 l 2,26,27
 432 164 432 164 434 126.5 c 128,-1,28
 436 89 436 89 450 68 c 0,29,30
 467 41 467 41 507 41 c 1,31,-1
 509 -4 l 1,32,-1
 469 -8 l 1,33,34
 416 -8 416 -8 393 29 c 0,35,36
 376 56 376 56 376 93 c 0,12,13
145 601 m 0,37,38
 145 645 145 645 188 645 c 0,39,40
 206 645 206 645 216.5 633.5 c 128,-1,41
 227 622 227 622 227 602.5 c 128,-1,42
 227 583 227 583 216 571.5 c 128,-1,43
 205 560 205 560 186 560 c 128,-1,44
 167 560 167 560 156 571 c 128,-1,45
 145 582 145 582 145 601 c 0,37,38
305 601 m 0,46,47
 305 645 305 645 348 645 c 0,48,49
 366 645 366 645 376.5 633.5 c 128,-1,50
 387 622 387 622 387 602.5 c 128,-1,51
 387 583 387 583 376 571.5 c 128,-1,52
 365 560 365 560 346 560 c 128,-1,53
 327 560 327 560 316 571 c 128,-1,54
 305 582 305 582 305 601 c 0,46,47
EndSplineSet
EndChar

StartChar: aring
Encoding: 229 229 164
Width: 531
GlyphClass: 2
Flags: W
LayerCount: 2
Fore
SplineSet
278 429 m 0,0,1
 130 429 130 429 130 206 c 0,2,3
 130 43 130 43 229 43 c 0,4,5
 271 43 271 43 299.5 71.5 c 128,-1,6
 328 100 328 100 342 149 c 0,7,8
 365 234 365 234 365 341 c 2,9,-1
 365 414 l 1,10,11
 331 429 331 429 278 429 c 0,0,1
376 93 m 0,12,13
 376 105 376 105 378 119 c 1,14,-1
 372 119 l 1,15,16
 355 59 355 59 317.5 23.5 c 128,-1,17
 280 -12 280 -12 222 -12 c 0,18,19
 55 -12 55 -12 55 218 c 0,20,21
 55 329 55 329 111.5 405.5 c 128,-1,22
 168 482 168 482 278 482 c 0,23,24
 365 482 365 482 432 451 c 1,25,-1
 432 197 l 2,26,27
 432 164 432 164 434 126.5 c 128,-1,28
 436 89 436 89 450 68 c 0,29,30
 467 41 467 41 507 41 c 1,31,-1
 509 -4 l 1,32,-1
 469 -8 l 1,33,34
 416 -8 416 -8 393 29 c 0,35,36
 376 56 376 56 376 93 c 0,12,13
224 625 m 0,37,38
 224 581 224 581 268 581 c 128,-1,39
 312 581 312 581 312 626.5 c 128,-1,40
 312 672 312 672 270 672 c 0,41,42
 224 672 224 672 224 625 c 0,37,38
198.5 560 m 128,-1,44
 173 584 173 584 173 626.5 c 128,-1,45
 173 669 173 669 198.5 693 c 128,-1,46
 224 717 224 717 269 717 c 128,-1,47
 314 717 314 717 338.5 692.5 c 128,-1,48
 363 668 363 668 363 626.5 c 128,-1,49
 363 585 363 585 338 560.5 c 128,-1,50
 313 536 313 536 268.5 536 c 128,-1,43
 224 536 224 536 198.5 560 c 128,-1,44
EndSplineSet
EndChar

StartChar: ae
Encoding: 230 230 165
Width: 691
GlyphClass: 2
Flags: W
LayerCount: 2
Fore
SplineSet
502 -12 m 0,0,1
 395 -12 395 -12 349 64 c 1,2,3
 306 -12 306 -12 220.5 -12 c 128,-1,4
 135 -12 135 -12 95 48 c 128,-1,5
 55 108 55 108 55 218.5 c 128,-1,6
 55 329 55 329 111.5 405.5 c 128,-1,7
 168 482 168 482 278 482 c 0,8,9
 355 482 355 482 411 448 c 1,10,11
 461 482 461 482 524.5 482 c 128,-1,12
 588 482 588 482 624.5 452.5 c 128,-1,13
 661 423 661 423 661 371.5 c 128,-1,14
 661 320 661 320 636.5 287.5 c 128,-1,15
 612 255 612 255 570 238 c 0,16,17
 491 206 491 206 387 206 c 1,18,19
 387 47 387 47 514 47 c 0,20,21
 578 47 578 47 635 82 c 1,22,-1
 646 43 l 1,23,24
 621 18 621 18 580.5 3 c 128,-1,25
 540 -12 540 -12 502 -12 c 0,0,1
278 429 m 0,26,27
 130 429 130 429 130 206 c 0,28,29
 130 43 130 43 229 43 c 0,30,31
 292 43 292 43 328 114 c 1,32,33
 314 160 314 160 314 228 c 0,34,35
 314 335 314 335 365 404 c 1,36,-1
 365 410 l 1,37,38
 326 429 326 429 278 429 c 0,26,27
588 367 m 0,39,40
 588 396 588 396 570 411 c 128,-1,41
 552 426 552 426 522 426 c 0,42,43
 462 426 462 426 428 376.5 c 128,-1,44
 394 327 394 327 389 257 c 1,45,46
 588 257 588 257 588 367 c 0,39,40
EndSplineSet
EndChar

StartChar: ccedilla
Encoding: 231 231 166
Width: 412
GlyphClass: 2
Flags: W
LayerCount: 2
Fore
SplineSet
207 -161 m 0,0,1
 250 -161 250 -161 250 -119 c 0,2,3
 250 -80 250 -80 193 -65 c 1,4,-1
 208 -10 l 1,5,6
 54 9 54 9 54 218 c 0,7,8
 54 332 54 332 109.5 407 c 128,-1,9
 165 482 165 482 268 482 c 0,10,11
 327 482 327 482 373 462 c 1,12,-1
 362 410 l 1,13,14
 321 424 321 424 276 424 c 0,15,16
 129 424 129 424 129 216 c 0,17,18
 129 47 129 47 253 47 c 0,19,20
 316 47 316 47 371 82 c 1,21,-1
 382 43 l 1,22,23
 334 -7 334 -7 251 -12 c 1,24,-1
 244 -38 l 1,25,26
 311 -59 311 -59 311 -118 c 0,27,28
 311 -155 311 -155 284 -178 c 128,-1,29
 257 -201 257 -201 219 -201 c 0,30,31
 183 -201 183 -201 161 -185 c 1,32,-1
 170 -155 l 1,33,34
 185 -161 185 -161 207 -161 c 0,0,1
EndSplineSet
EndChar

StartChar: egrave
Encoding: 232 232 167
Width: 433
GlyphClass: 2
Flags: W
LayerCount: 2
Fore
SplineSet
330 367 m 0,0,1
 330 396 330 396 312 411 c 128,-1,2
 294 426 294 426 264 426 c 0,3,4
 204 426 204 426 170 376.5 c 128,-1,5
 136 327 136 327 131 257 c 1,6,7
 330 257 330 257 330 367 c 0,0,1
244 -12 m 0,8,9
 56 -12 56 -12 56 228 c 0,10,11
 56 338 56 338 111.5 410 c 128,-1,12
 167 482 167 482 268 482 c 0,13,14
 330 482 330 482 366.5 452.5 c 128,-1,15
 403 423 403 423 403 371.5 c 128,-1,16
 403 320 403 320 378.5 287.5 c 128,-1,17
 354 255 354 255 312 238 c 0,18,19
 233 206 233 206 129 206 c 1,20,21
 129 47 129 47 256 47 c 0,22,23
 320 47 320 47 377 82 c 1,24,-1
 388 43 l 1,25,26
 363 18 363 18 322.5 3 c 128,-1,27
 282 -12 282 -12 244 -12 c 0,8,9
179 686 m 0,28,29
 200 686 200 686 237 633 c 2,30,-1
 296 550 l 1,31,-1
 266 530 l 1,32,-1
 137 648 l 1,33,-1
 167 683 l 1,34,35
 172 686 172 686 179 686 c 0,28,29
EndSplineSet
EndChar

StartChar: eacute
Encoding: 233 233 168
Width: 433
GlyphClass: 2
Flags: W
LayerCount: 2
Fore
SplineSet
330 367 m 0,0,1
 330 396 330 396 312 411 c 128,-1,2
 294 426 294 426 264 426 c 0,3,4
 204 426 204 426 170 376.5 c 128,-1,5
 136 327 136 327 131 257 c 1,6,7
 330 257 330 257 330 367 c 0,0,1
244 -12 m 0,8,9
 56 -12 56 -12 56 228 c 0,10,11
 56 338 56 338 111.5 410 c 128,-1,12
 167 482 167 482 268 482 c 0,13,14
 330 482 330 482 366.5 452.5 c 128,-1,15
 403 423 403 423 403 371.5 c 128,-1,16
 403 320 403 320 378.5 287.5 c 128,-1,17
 354 255 354 255 312 238 c 0,18,19
 233 206 233 206 129 206 c 1,20,21
 129 47 129 47 256 47 c 0,22,23
 320 47 320 47 377 82 c 1,24,-1
 388 43 l 1,25,26
 363 18 363 18 322.5 3 c 128,-1,27
 282 -12 282 -12 244 -12 c 0,8,9
208 550 m 1,28,-1
 267 633 l 2,29,30
 304 686 304 686 325 686 c 1,31,-1
 337 683 l 1,32,-1
 367 648 l 1,33,-1
 238 530 l 1,34,-1
 208 550 l 1,28,-1
EndSplineSet
EndChar

StartChar: ecircumflex
Encoding: 234 234 169
Width: 433
GlyphClass: 2
Flags: W
LayerCount: 2
Fore
SplineSet
330 367 m 0,0,1
 330 396 330 396 312 411 c 128,-1,2
 294 426 294 426 264 426 c 0,3,4
 204 426 204 426 170 376.5 c 128,-1,5
 136 327 136 327 131 257 c 1,6,7
 330 257 330 257 330 367 c 0,0,1
244 -12 m 0,8,9
 56 -12 56 -12 56 228 c 0,10,11
 56 338 56 338 111.5 410 c 128,-1,12
 167 482 167 482 268 482 c 0,13,14
 330 482 330 482 366.5 452.5 c 128,-1,15
 403 423 403 423 403 371.5 c 128,-1,16
 403 320 403 320 378.5 287.5 c 128,-1,17
 354 255 354 255 312 238 c 0,18,19
 233 206 233 206 129 206 c 1,20,21
 129 47 129 47 256 47 c 0,22,23
 320 47 320 47 377 82 c 1,24,-1
 388 43 l 1,25,26
 363 18 363 18 322.5 3 c 128,-1,27
 282 -12 282 -12 244 -12 c 0,8,9
129 550 m 1,28,-1
 202 650 l 1,29,-1
 272 659 l 1,30,31
 293 652 293 652 307 630 c 1,32,-1
 363 550 l 1,33,-1
 333 530 l 1,34,-1
 246 609 l 1,35,-1
 159 530 l 1,36,-1
 129 550 l 1,28,-1
EndSplineSet
EndChar

StartChar: edieresis
Encoding: 235 235 170
Width: 433
GlyphClass: 2
Flags: W
LayerCount: 2
Fore
SplineSet
330 367 m 0,0,1
 330 396 330 396 312 411 c 128,-1,2
 294 426 294 426 264 426 c 0,3,4
 204 426 204 426 170 376.5 c 128,-1,5
 136 327 136 327 131 257 c 1,6,7
 330 257 330 257 330 367 c 0,0,1
244 -12 m 0,8,9
 56 -12 56 -12 56 228 c 0,10,11
 56 338 56 338 111.5 410 c 128,-1,12
 167 482 167 482 268 482 c 0,13,14
 330 482 330 482 366.5 452.5 c 128,-1,15
 403 423 403 423 403 371.5 c 128,-1,16
 403 320 403 320 378.5 287.5 c 128,-1,17
 354 255 354 255 312 238 c 0,18,19
 233 206 233 206 129 206 c 1,20,21
 129 47 129 47 256 47 c 0,22,23
 320 47 320 47 377 82 c 1,24,-1
 388 43 l 1,25,26
 363 18 363 18 322.5 3 c 128,-1,27
 282 -12 282 -12 244 -12 c 0,8,9
123 601 m 0,28,29
 123 645 123 645 166 645 c 0,30,31
 184 645 184 645 194.5 633.5 c 128,-1,32
 205 622 205 622 205 602.5 c 128,-1,33
 205 583 205 583 194 571.5 c 128,-1,34
 183 560 183 560 164 560 c 128,-1,35
 145 560 145 560 134 571 c 128,-1,36
 123 582 123 582 123 601 c 0,28,29
283 601 m 0,37,38
 283 645 283 645 326 645 c 0,39,40
 344 645 344 645 354.5 633.5 c 128,-1,41
 365 622 365 622 365 602.5 c 128,-1,42
 365 583 365 583 354 571.5 c 128,-1,43
 343 560 343 560 324 560 c 128,-1,44
 305 560 305 560 294 571 c 128,-1,45
 283 582 283 582 283 601 c 0,37,38
EndSplineSet
EndChar

StartChar: igrave
Encoding: 236 236 171
Width: 264
GlyphClass: 2
Flags: W
LayerCount: 2
Fore
SplineSet
92 84 m 2,0,-1
 92 470 l 1,1,-1
 164 470 l 1,2,-1
 164 127 l 2,3,4
 164 74 164 74 172 58.5 c 128,-1,5
 180 43 180 43 218 43 c 1,6,-1
 220 -1 l 1,7,8
 200 -8 200 -8 180 -8 c 0,9,10
 131 -8 131 -8 111.5 12.5 c 128,-1,11
 92 33 92 33 92 84 c 2,0,-1
62 686 m 0,12,13
 83 686 83 686 120 633 c 2,14,-1
 179 550 l 1,15,-1
 149 530 l 1,16,-1
 20 648 l 1,17,-1
 50 683 l 1,18,19
 55 686 55 686 62 686 c 0,12,13
EndSplineSet
EndChar

StartChar: iacute
Encoding: 237 237 172
Width: 264
GlyphClass: 2
Flags: W
LayerCount: 2
Fore
SplineSet
92 84 m 2,0,-1
 92 470 l 1,1,-1
 164 470 l 1,2,-1
 164 127 l 2,3,4
 164 74 164 74 172 58.5 c 128,-1,5
 180 43 180 43 218 43 c 1,6,-1
 220 -1 l 1,7,8
 200 -8 200 -8 180 -8 c 0,9,10
 131 -8 131 -8 111.5 12.5 c 128,-1,11
 92 33 92 33 92 84 c 2,0,-1
77 550 m 1,12,-1
 136 633 l 2,13,14
 173 686 173 686 194 686 c 1,15,-1
 206 683 l 1,16,-1
 236 648 l 1,17,-1
 107 530 l 1,18,-1
 77 550 l 1,12,-1
EndSplineSet
EndChar

StartChar: icircumflex
Encoding: 238 238 173
Width: 264
GlyphClass: 2
Flags: W
LayerCount: 2
Fore
SplineSet
92 84 m 2,0,-1
 92 470 l 1,1,-1
 164 470 l 1,2,-1
 164 127 l 2,3,4
 164 74 164 74 172 58.5 c 128,-1,5
 180 43 180 43 218 43 c 1,6,-1
 220 -1 l 1,7,8
 200 -8 200 -8 180 -8 c 0,9,10
 131 -8 131 -8 111.5 12.5 c 128,-1,11
 92 33 92 33 92 84 c 2,0,-1
14 550 m 1,12,-1
 87 650 l 1,13,-1
 157 659 l 1,14,15
 178 652 178 652 192 630 c 1,16,-1
 248 550 l 1,17,-1
 218 530 l 1,18,-1
 131 609 l 1,19,-1
 44 530 l 1,20,-1
 14 550 l 1,12,-1
EndSplineSet
EndChar

StartChar: idieresis
Encoding: 239 239 174
Width: 264
GlyphClass: 2
Flags: W
LayerCount: 2
Fore
SplineSet
19 601 m 0,0,1
 19 645 19 645 62 645 c 0,2,3
 80 645 80 645 90.5 633.5 c 128,-1,4
 101 622 101 622 101 602.5 c 128,-1,5
 101 583 101 583 90 571.5 c 128,-1,6
 79 560 79 560 60 560 c 128,-1,7
 41 560 41 560 30 571 c 128,-1,8
 19 582 19 582 19 601 c 0,0,1
163 601 m 0,9,10
 163 645 163 645 206 645 c 0,11,12
 224 645 224 645 234.5 633.5 c 128,-1,13
 245 622 245 622 245 602.5 c 128,-1,14
 245 583 245 583 234 571.5 c 128,-1,15
 223 560 223 560 204 560 c 128,-1,16
 185 560 185 560 174 571 c 128,-1,17
 163 582 163 582 163 601 c 0,9,10
92 84 m 2,18,-1
 92 470 l 1,19,-1
 164 470 l 1,20,-1
 164 127 l 2,21,22
 164 74 164 74 172 58.5 c 128,-1,23
 180 43 180 43 218 43 c 1,24,-1
 220 -1 l 1,25,26
 200 -8 200 -8 180 -8 c 0,27,28
 131 -8 131 -8 111.5 12.5 c 128,-1,29
 92 33 92 33 92 84 c 2,18,-1
EndSplineSet
EndChar

StartChar: eth
Encoding: 240 240 175
Width: 514
GlyphClass: 2
Flags: W
LayerCount: 2
Fore
SplineSet
370 27 m 0,0,1
 322 -12 322 -12 251 -12 c 0,2,3
 163 -12 163 -12 108 52.5 c 128,-1,4
 53 117 53 117 53 212 c 128,-1,5
 53 307 53 307 101.5 367.5 c 128,-1,6
 150 428 150 428 241 428 c 0,7,8
 294 428 294 428 353 412 c 1,9,10
 327 487 327 487 284 557 c 1,11,-1
 148 505 l 1,12,-1
 128 563 l 1,13,-1
 250 606 l 1,14,15
 204 669 204 669 154 716 c 1,16,-1
 207 748 l 1,17,18
 268 698 268 698 318 631 c 1,19,-1
 452 682 l 1,20,-1
 464 620 l 1,21,-1
 353 582 l 1,22,23
 457 420 457 420 457 259.5 c 128,-1,24
 457 99 457 99 370 27 c 0,0,1
257 366 m 0,25,26
 129 366 129 366 129 209 c 0,27,28
 129 141 129 141 160 95.5 c 128,-1,29
 191 50 191 50 251 50 c 0,30,31
 351 50 351 50 374 186 c 0,32,33
 380 222 380 222 380 262 c 128,-1,34
 380 302 380 302 370 352 c 1,35,36
 309 366 309 366 257 366 c 0,25,26
EndSplineSet
EndChar

StartChar: ntilde
Encoding: 241 241 176
Width: 545
GlyphClass: 2
Flags: W
LayerCount: 2
Fore
SplineSet
161 450 m 2,0,1
 161 397 161 397 153 361 c 1,2,-1
 159 361 l 1,3,4
 173 417 173 417 213.5 449.5 c 128,-1,5
 254 482 254 482 312 482 c 0,6,7
 391 482 391 482 421 442.5 c 128,-1,8
 451 403 451 403 451 324 c 0,9,10
 451 321 451 321 449.5 222 c 128,-1,11
 448 123 448 123 448 96 c 128,-1,12
 448 69 448 69 454.5 56 c 128,-1,13
 461 43 461 43 497 43 c 1,14,-1
 499 -2 l 1,15,16
 485 -8 485 -8 458 -8 c 0,17,18
 410 -8 410 -8 392.5 14 c 128,-1,19
 375 36 375 36 375 84 c 0,20,21
 375 86 375 86 377 192 c 128,-1,22
 379 298 379 298 379 302 c 0,23,24
 379 360 379 360 364 392.5 c 128,-1,25
 349 425 349 425 304.5 425 c 128,-1,26
 260 425 260 425 230.5 397 c 128,-1,27
 201 369 201 369 186 324 c 0,28,29
 159 237 159 237 159 139 c 2,30,-1
 159 0 l 1,31,-1
 90 0 l 1,32,-1
 90 470 l 1,33,-1
 161 479 l 1,34,-1
 161 450 l 2,0,1
151 630 m 128,-1,36
 173 650 173 650 203.5 650 c 128,-1,37
 234 650 234 650 287 629.5 c 128,-1,38
 340 609 340 609 353 609 c 0,39,40
 382 609 382 609 405 643 c 1,41,-1
 436 627 l 1,42,43
 427 588 427 588 405 568 c 128,-1,44
 383 548 383 548 353 548 c 128,-1,45
 323 548 323 548 270 568.5 c 128,-1,46
 217 589 217 589 205 589 c 0,47,48
 174 589 174 589 151 555 c 1,49,-1
 120 571 l 1,50,35
 129 610 129 610 151 630 c 128,-1,36
EndSplineSet
EndChar

StartChar: ograve
Encoding: 242 242 177
Width: 520
GlyphClass: 2
Flags: W
LayerCount: 2
Fore
SplineSet
252 41 m 0,0,1
 302 41 302 41 334 72 c 128,-1,2
 366 103 366 103 377.5 147 c 128,-1,3
 389 191 389 191 389 248 c 0,4,5
 389 427 389 427 262 427 c 0,6,7
 215 427 215 427 184 397 c 0,8,9
 128 344 128 344 128 228 c 0,10,11
 128 41 128 41 252 41 c 0,0,1
408.5 62.5 m 128,-1,13
 353 -12 353 -12 248.5 -12 c 128,-1,14
 144 -12 144 -12 100 48.5 c 128,-1,15
 56 109 56 109 56 226 c 128,-1,16
 56 343 56 343 107 412.5 c 128,-1,17
 158 482 158 482 261 482 c 128,-1,18
 364 482 364 482 414 419.5 c 128,-1,19
 464 357 464 357 464 247 c 128,-1,12
 464 137 464 137 408.5 62.5 c 128,-1,13
192 686 m 0,20,21
 213 686 213 686 250 633 c 2,22,-1
 309 550 l 1,23,-1
 279 530 l 1,24,-1
 150 648 l 1,25,-1
 180 683 l 1,26,27
 185 686 185 686 192 686 c 0,20,21
EndSplineSet
EndChar

StartChar: oacute
Encoding: 243 243 178
Width: 520
GlyphClass: 2
Flags: W
LayerCount: 2
Fore
SplineSet
252 41 m 0,0,1
 302 41 302 41 334 72 c 128,-1,2
 366 103 366 103 377.5 147 c 128,-1,3
 389 191 389 191 389 248 c 0,4,5
 389 427 389 427 262 427 c 0,6,7
 215 427 215 427 184 397 c 0,8,9
 128 344 128 344 128 228 c 0,10,11
 128 41 128 41 252 41 c 0,0,1
408.5 62.5 m 128,-1,13
 353 -12 353 -12 248.5 -12 c 128,-1,14
 144 -12 144 -12 100 48.5 c 128,-1,15
 56 109 56 109 56 226 c 128,-1,16
 56 343 56 343 107 412.5 c 128,-1,17
 158 482 158 482 261 482 c 128,-1,18
 364 482 364 482 414 419.5 c 128,-1,19
 464 357 464 357 464 247 c 128,-1,12
 464 137 464 137 408.5 62.5 c 128,-1,13
211 550 m 1,20,-1
 270 633 l 2,21,22
 307 686 307 686 328 686 c 1,23,-1
 340 683 l 1,24,-1
 370 648 l 1,25,-1
 241 530 l 1,26,-1
 211 550 l 1,20,-1
EndSplineSet
EndChar

StartChar: ocircumflex
Encoding: 244 244 179
Width: 520
GlyphClass: 2
Flags: W
LayerCount: 2
Fore
SplineSet
252 41 m 0,0,1
 302 41 302 41 334 72 c 128,-1,2
 366 103 366 103 377.5 147 c 128,-1,3
 389 191 389 191 389 248 c 0,4,5
 389 427 389 427 262 427 c 0,6,7
 215 427 215 427 184 397 c 0,8,9
 128 344 128 344 128 228 c 0,10,11
 128 41 128 41 252 41 c 0,0,1
408.5 62.5 m 128,-1,13
 353 -12 353 -12 248.5 -12 c 128,-1,14
 144 -12 144 -12 100 48.5 c 128,-1,15
 56 109 56 109 56 226 c 128,-1,16
 56 343 56 343 107 412.5 c 128,-1,17
 158 482 158 482 261 482 c 128,-1,18
 364 482 364 482 414 419.5 c 128,-1,19
 464 357 464 357 464 247 c 128,-1,12
 464 137 464 137 408.5 62.5 c 128,-1,13
142 550 m 1,20,-1
 215 650 l 1,21,-1
 285 659 l 1,22,23
 306 652 306 652 320 630 c 1,24,-1
 376 550 l 1,25,-1
 346 530 l 1,26,-1
 259 609 l 1,27,-1
 172 530 l 1,28,-1
 142 550 l 1,20,-1
EndSplineSet
EndChar

StartChar: otilde
Encoding: 245 245 180
Width: 520
GlyphClass: 2
Flags: W
LayerCount: 2
Fore
SplineSet
252 41 m 0,0,1
 302 41 302 41 334 72 c 128,-1,2
 366 103 366 103 377.5 147 c 128,-1,3
 389 191 389 191 389 248 c 0,4,5
 389 427 389 427 262 427 c 0,6,7
 215 427 215 427 184 397 c 0,8,9
 128 344 128 344 128 228 c 0,10,11
 128 41 128 41 252 41 c 0,0,1
408.5 62.5 m 128,-1,13
 353 -12 353 -12 248.5 -12 c 128,-1,14
 144 -12 144 -12 100 48.5 c 128,-1,15
 56 109 56 109 56 226 c 128,-1,16
 56 343 56 343 107 412.5 c 128,-1,17
 158 482 158 482 261 482 c 128,-1,18
 364 482 364 482 414 419.5 c 128,-1,19
 464 357 464 357 464 247 c 128,-1,12
 464 137 464 137 408.5 62.5 c 128,-1,13
140.5 629 m 128,-1,21
 162 649 162 649 189 649 c 0,22,23
 217 649 217 649 259 632 c 0,24,25
 317 609 317 609 329 609 c 0,26,27
 357 609 357 609 380 642 c 1,28,-1
 410 626 l 1,29,30
 401 588 401 588 379.5 568.5 c 128,-1,31
 358 549 358 549 333 549 c 128,-1,32
 308 549 308 549 255 569 c 128,-1,33
 202 589 202 589 193 589 c 0,34,35
 164 589 164 589 140 556 c 1,36,-1
 110 572 l 1,37,20
 119 609 119 609 140.5 629 c 128,-1,21
EndSplineSet
EndChar

StartChar: odieresis
Encoding: 246 246 181
Width: 520
GlyphClass: 2
Flags: W
LayerCount: 2
Fore
SplineSet
252 41 m 0,0,1
 302 41 302 41 334 72 c 128,-1,2
 366 103 366 103 377.5 147 c 128,-1,3
 389 191 389 191 389 248 c 0,4,5
 389 427 389 427 262 427 c 0,6,7
 215 427 215 427 184 397 c 0,8,9
 128 344 128 344 128 228 c 0,10,11
 128 41 128 41 252 41 c 0,0,1
408.5 62.5 m 128,-1,13
 353 -12 353 -12 248.5 -12 c 128,-1,14
 144 -12 144 -12 100 48.5 c 128,-1,15
 56 109 56 109 56 226 c 128,-1,16
 56 343 56 343 107 412.5 c 128,-1,17
 158 482 158 482 261 482 c 128,-1,18
 364 482 364 482 414 419.5 c 128,-1,19
 464 357 464 357 464 247 c 128,-1,12
 464 137 464 137 408.5 62.5 c 128,-1,13
139 601 m 0,20,21
 139 645 139 645 182 645 c 0,22,23
 200 645 200 645 210.5 633.5 c 128,-1,24
 221 622 221 622 221 602.5 c 128,-1,25
 221 583 221 583 210 571.5 c 128,-1,26
 199 560 199 560 180 560 c 128,-1,27
 161 560 161 560 150 571 c 128,-1,28
 139 582 139 582 139 601 c 0,20,21
299 601 m 0,29,30
 299 645 299 645 342 645 c 0,31,32
 360 645 360 645 370.5 633.5 c 128,-1,33
 381 622 381 622 381 602.5 c 128,-1,34
 381 583 381 583 370 571.5 c 128,-1,35
 359 560 359 560 340 560 c 128,-1,36
 321 560 321 560 310 571 c 128,-1,37
 299 582 299 582 299 601 c 0,29,30
EndSplineSet
EndChar

StartChar: divide
Encoding: 247 247 182
Width: 401
GlyphClass: 2
Flags: W
LayerCount: 2
Fore
SplineSet
243 434 m 128,-1,1
 243 393 243 393 203.5 393 c 128,-1,2
 164 393 164 393 164 434 c 128,-1,3
 164 475 164 475 205 475 c 0,4,0
 243 475 243 475 243 434 c 128,-1,1
243 142 m 128,-1,6
 243 101 243 101 203.5 101 c 128,-1,7
 164 101 164 101 164 142 c 128,-1,8
 164 183 164 183 205 183 c 0,9,5
 243 183 243 183 243 142 c 128,-1,6
51 257 m 1,10,-1
 51 324 l 1,11,-1
 358 320 l 1,12,-1
 352 261 l 1,13,-1
 51 257 l 1,10,-1
EndSplineSet
EndChar

StartChar: oslash
Encoding: 248 248 183
Width: 520
GlyphClass: 2
Flags: W
LayerCount: 2
Fore
SplineSet
56 228 m 0,0,1
 56 343 56 343 107 412.5 c 128,-1,2
 158 482 158 482 262 482 c 0,3,4
 296 482 296 482 331 472 c 1,5,-1
 357 536 l 1,6,7
 379 534 379 534 394 521 c 1,8,-1
 368 457 l 1,9,10
 464 405 464 405 464 248 c 0,11,12
 464 137 464 137 408.5 62.5 c 128,-1,13
 353 -12 353 -12 252 -12 c 0,14,15
 210 -12 210 -12 179 -3 c 1,16,-1
 150 -74 l 1,17,18
 128 -72 128 -72 113 -59 c 1,19,-1
 142 12 l 1,20,21
 56 60 56 60 56 228 c 0,0,1
252 41 m 0,22,23
 302 41 302 41 334 72 c 128,-1,24
 366 103 366 103 377.5 147 c 128,-1,25
 389 191 389 191 389 248 c 0,26,27
 389 357 389 357 344 399 c 1,28,-1
 201 50 l 1,29,30
 222 41 222 41 252 41 c 0,22,23
168 75 m 1,31,-1
 309 419 l 1,32,33
 288 427 288 427 262 427 c 0,34,35
 215 427 215 427 184 397 c 0,36,37
 128 344 128 344 128 231.5 c 128,-1,38
 128 119 128 119 168 75 c 1,31,-1
EndSplineSet
EndChar

StartChar: ugrave
Encoding: 249 249 184
Width: 533
GlyphClass: 2
Flags: W
LayerCount: 2
Fore
SplineSet
90 401 m 0,0,1
 90 449 90 449 78 472 c 1,2,-1
 135 482 l 1,3,4
 152 478 152 478 156.5 462 c 128,-1,5
 161 446 161 446 161 429 c 0,6,7
 161 417 161 417 157 291.5 c 128,-1,8
 153 166 153 166 153 152 c 128,-1,9
 153 138 153 138 154.5 120.5 c 128,-1,10
 156 103 156 103 164 84 c 1,11,12
 178 45 178 45 232 45 c 0,13,14
 272 45 272 45 300.5 73.5 c 128,-1,15
 329 102 329 102 342 149 c 0,16,17
 367 234 367 234 367 335 c 2,18,-1
 367 470 l 1,19,-1
 434 470 l 1,20,-1
 434 197 l 2,21,22
 434 108 434 108 447 74.5 c 128,-1,23
 460 41 460 41 505 41 c 1,24,-1
 507 -4 l 1,25,26
 491 -8 491 -8 467 -8 c 0,27,28
 417 -8 417 -8 397.5 21.5 c 128,-1,29
 378 51 378 51 378 90 c 0,30,31
 378 101 378 101 379 113 c 1,32,-1
 373 113 l 1,33,34
 357 52 357 52 314.5 20 c 128,-1,35
 272 -12 272 -12 203.5 -12 c 128,-1,36
 135 -12 135 -12 108 30 c 128,-1,37
 81 72 81 72 81 145 c 0,38,39
 81 154 81 154 85.5 274 c 128,-1,40
 90 394 90 394 90 401 c 0,0,1
199 686 m 0,42,43
 220 686 220 686 257 633 c 2,44,-1
 316 550 l 1,45,-1
 286 530 l 1,46,-1
 157 648 l 1,47,-1
 187 683 l 1,48,41
 192 686 192 686 199 686 c 0,42,43
EndSplineSet
EndChar

StartChar: uacute
Encoding: 250 250 185
Width: 533
GlyphClass: 2
Flags: W
LayerCount: 2
Fore
SplineSet
90 401 m 0,0,1
 90 449 90 449 78 472 c 1,2,-1
 135 482 l 1,3,4
 152 478 152 478 156.5 462 c 128,-1,5
 161 446 161 446 161 429 c 0,6,7
 161 417 161 417 157 291.5 c 128,-1,8
 153 166 153 166 153 152 c 128,-1,9
 153 138 153 138 154.5 120.5 c 128,-1,10
 156 103 156 103 164 84 c 1,11,12
 178 45 178 45 232 45 c 0,13,14
 272 45 272 45 300.5 73.5 c 128,-1,15
 329 102 329 102 342 149 c 0,16,17
 367 234 367 234 367 335 c 2,18,-1
 367 470 l 1,19,-1
 434 470 l 1,20,-1
 434 197 l 2,21,22
 434 108 434 108 447 74.5 c 128,-1,23
 460 41 460 41 505 41 c 1,24,-1
 507 -4 l 1,25,26
 491 -8 491 -8 467 -8 c 0,27,28
 417 -8 417 -8 397.5 21.5 c 128,-1,29
 378 51 378 51 378 90 c 0,30,31
 378 101 378 101 379 113 c 1,32,-1
 373 113 l 1,33,34
 357 52 357 52 314.5 20 c 128,-1,35
 272 -12 272 -12 203.5 -12 c 128,-1,36
 135 -12 135 -12 108 30 c 128,-1,37
 81 72 81 72 81 145 c 0,38,39
 81 154 81 154 85.5 274 c 128,-1,40
 90 394 90 394 90 401 c 0,0,1
220 550 m 1,41,-1
 279 633 l 2,42,43
 316 686 316 686 337 686 c 1,44,-1
 349 683 l 1,45,-1
 379 648 l 1,46,-1
 250 530 l 1,47,-1
 220 550 l 1,41,-1
EndSplineSet
EndChar

StartChar: ucircumflex
Encoding: 251 251 186
Width: 533
GlyphClass: 2
Flags: W
LayerCount: 2
Fore
SplineSet
90 401 m 0,0,1
 90 449 90 449 78 472 c 1,2,-1
 135 482 l 1,3,4
 152 478 152 478 156.5 462 c 128,-1,5
 161 446 161 446 161 429 c 0,6,7
 161 417 161 417 157 291.5 c 128,-1,8
 153 166 153 166 153 152 c 128,-1,9
 153 138 153 138 154.5 120.5 c 128,-1,10
 156 103 156 103 164 84 c 1,11,12
 178 45 178 45 232 45 c 0,13,14
 272 45 272 45 300.5 73.5 c 128,-1,15
 329 102 329 102 342 149 c 0,16,17
 367 234 367 234 367 335 c 2,18,-1
 367 470 l 1,19,-1
 434 470 l 1,20,-1
 434 197 l 2,21,22
 434 108 434 108 447 74.5 c 128,-1,23
 460 41 460 41 505 41 c 1,24,-1
 507 -4 l 1,25,26
 491 -8 491 -8 467 -8 c 0,27,28
 417 -8 417 -8 397.5 21.5 c 128,-1,29
 378 51 378 51 378 90 c 0,30,31
 378 101 378 101 379 113 c 1,32,-1
 373 113 l 1,33,34
 357 52 357 52 314.5 20 c 128,-1,35
 272 -12 272 -12 203.5 -12 c 128,-1,36
 135 -12 135 -12 108 30 c 128,-1,37
 81 72 81 72 81 145 c 0,38,39
 81 154 81 154 85.5 274 c 128,-1,40
 90 394 90 394 90 401 c 0,0,1
149 550 m 1,41,-1
 222 650 l 1,42,-1
 292 659 l 1,43,44
 313 652 313 652 327 630 c 1,45,-1
 383 550 l 1,46,-1
 353 530 l 1,47,-1
 266 609 l 1,48,-1
 179 530 l 1,49,-1
 149 550 l 1,41,-1
EndSplineSet
EndChar

StartChar: udieresis
Encoding: 252 252 187
Width: 533
GlyphClass: 2
Flags: W
LayerCount: 2
Fore
SplineSet
90 401 m 0,0,1
 90 449 90 449 78 472 c 1,2,-1
 135 482 l 1,3,4
 152 478 152 478 156.5 462 c 128,-1,5
 161 446 161 446 161 429 c 0,6,7
 161 417 161 417 157 291.5 c 128,-1,8
 153 166 153 166 153 152 c 128,-1,9
 153 138 153 138 154.5 120.5 c 128,-1,10
 156 103 156 103 164 84 c 1,11,12
 178 45 178 45 232 45 c 0,13,14
 272 45 272 45 300.5 73.5 c 128,-1,15
 329 102 329 102 342 149 c 0,16,17
 367 234 367 234 367 335 c 2,18,-1
 367 470 l 1,19,-1
 434 470 l 1,20,-1
 434 197 l 2,21,22
 434 108 434 108 447 74.5 c 128,-1,23
 460 41 460 41 505 41 c 1,24,-1
 507 -4 l 1,25,26
 491 -8 491 -8 467 -8 c 0,27,28
 417 -8 417 -8 397.5 21.5 c 128,-1,29
 378 51 378 51 378 90 c 0,30,31
 378 101 378 101 379 113 c 1,32,-1
 373 113 l 1,33,34
 357 52 357 52 314.5 20 c 128,-1,35
 272 -12 272 -12 203.5 -12 c 128,-1,36
 135 -12 135 -12 108 30 c 128,-1,37
 81 72 81 72 81 145 c 0,38,39
 81 154 81 154 85.5 274 c 128,-1,40
 90 394 90 394 90 401 c 0,0,1
145 601 m 0,41,42
 145 645 145 645 188 645 c 0,43,44
 206 645 206 645 216.5 633.5 c 128,-1,45
 227 622 227 622 227 602.5 c 128,-1,46
 227 583 227 583 216 571.5 c 128,-1,47
 205 560 205 560 186 560 c 128,-1,48
 167 560 167 560 156 571 c 128,-1,49
 145 582 145 582 145 601 c 0,41,42
305 601 m 0,50,51
 305 645 305 645 348 645 c 0,52,53
 366 645 366 645 376.5 633.5 c 128,-1,54
 387 622 387 622 387 602.5 c 128,-1,55
 387 583 387 583 376 571.5 c 128,-1,56
 365 560 365 560 346 560 c 128,-1,57
 327 560 327 560 316 571 c 128,-1,58
 305 582 305 582 305 601 c 0,50,51
EndSplineSet
EndChar

StartChar: yacute
Encoding: 253 253 188
Width: 528
GlyphClass: 2
Flags: W
LayerCount: 2
Fore
SplineSet
91 401 m 0,0,1
 91 449 91 449 79 472 c 1,2,-1
 136 482 l 1,3,4
 153 478 153 478 157.5 462 c 128,-1,5
 162 446 162 446 162 429 c 0,6,7
 162 417 162 417 158 293 c 128,-1,8
 154 169 154 169 154 162 c 0,9,10
 154 109 154 109 169 77 c 128,-1,11
 184 45 184 45 226 45 c 128,-1,12
 268 45 268 45 295 73 c 128,-1,13
 322 101 322 101 338 146 c 0,14,15
 370 238 370 238 370 345 c 2,16,-1
 370 470 l 1,17,-1
 437 470 l 1,18,-1
 438 30 l 2,19,20
 438 -97 438 -97 391.5 -168.5 c 128,-1,21
 345 -240 345 -240 235 -240 c 0,22,23
 195 -240 195 -240 153 -225.5 c 128,-1,24
 111 -211 111 -211 86 -185 c 1,25,-1
 97 -146 l 1,26,27
 155 -184 155 -184 232.5 -184 c 128,-1,28
 310 -184 310 -184 339.5 -129.5 c 128,-1,29
 369 -75 369 -75 369 30 c 0,30,31
 369 88 369 88 376 119 c 1,32,-1
 370 119 l 1,33,34
 333 -12 333 -12 211 -12 c 0,35,36
 134 -12 134 -12 108 27 c 128,-1,37
 82 66 82 66 82 140 c 0,38,39
 82 148 82 148 86.5 271 c 128,-1,40
 91 394 91 394 91 401 c 0,0,1
225 550 m 1,41,-1
 284 633 l 2,42,43
 321 686 321 686 342 686 c 1,44,-1
 354 683 l 1,45,-1
 384 648 l 1,46,-1
 255 530 l 1,47,-1
 225 550 l 1,41,-1
EndSplineSet
EndChar

StartChar: thorn
Encoding: 254 254 189
Width: 525
GlyphClass: 2
Flags: W
LayerCount: 2
Fore
SplineSet
159 460 m 2,0,1
 159 407 159 407 151 371 c 1,2,-1
 157 371 l 1,3,4
 179 428 179 428 215 455 c 128,-1,5
 251 482 251 482 310 482 c 0,6,7
 397 482 397 482 432 425.5 c 128,-1,8
 467 369 467 369 467 256 c 128,-1,9
 467 143 467 143 411.5 65.5 c 128,-1,10
 356 -12 356 -12 244 -12 c 0,11,12
 201 -12 201 -12 157 6 c 1,13,-1
 157 -228 l 1,14,-1
 90 -228 l 1,15,-1
 90 734 l 1,16,-1
 159 745 l 1,17,-1
 159 460 l 2,0,1
157 159 m 2,18,-1
 157 56 l 1,19,20
 186 41 186 41 244 41 c 0,21,22
 392 41 392 41 392 275 c 0,23,24
 392 425 392 425 298 425 c 0,25,26
 245 425 245 425 211.5 380 c 128,-1,27
 178 335 178 335 167.5 279.5 c 128,-1,28
 157 224 157 224 157 159 c 2,18,-1
EndSplineSet
EndChar

StartChar: ydieresis
Encoding: 255 255 190
Width: 528
GlyphClass: 2
Flags: W
LayerCount: 2
Fore
SplineSet
91 401 m 0,0,1
 91 449 91 449 79 472 c 1,2,-1
 136 482 l 1,3,4
 153 478 153 478 157.5 462 c 128,-1,5
 162 446 162 446 162 429 c 0,6,7
 162 417 162 417 158 293 c 128,-1,8
 154 169 154 169 154 162 c 0,9,10
 154 109 154 109 169 77 c 128,-1,11
 184 45 184 45 226 45 c 128,-1,12
 268 45 268 45 295 73 c 128,-1,13
 322 101 322 101 338 146 c 0,14,15
 370 238 370 238 370 345 c 2,16,-1
 370 470 l 1,17,-1
 437 470 l 1,18,-1
 438 30 l 2,19,20
 438 -97 438 -97 391.5 -168.5 c 128,-1,21
 345 -240 345 -240 235 -240 c 0,22,23
 195 -240 195 -240 153 -225.5 c 128,-1,24
 111 -211 111 -211 86 -185 c 1,25,-1
 97 -146 l 1,26,27
 155 -184 155 -184 232.5 -184 c 128,-1,28
 310 -184 310 -184 339.5 -129.5 c 128,-1,29
 369 -75 369 -75 369 30 c 0,30,31
 369 88 369 88 376 119 c 1,32,-1
 370 119 l 1,33,34
 333 -12 333 -12 211 -12 c 0,35,36
 134 -12 134 -12 108 27 c 128,-1,37
 82 66 82 66 82 140 c 0,38,39
 82 148 82 148 86.5 271 c 128,-1,40
 91 394 91 394 91 401 c 0,0,1
145 601 m 0,41,42
 145 645 145 645 188 645 c 0,43,44
 206 645 206 645 216.5 633.5 c 128,-1,45
 227 622 227 622 227 602.5 c 128,-1,46
 227 583 227 583 216 571.5 c 128,-1,47
 205 560 205 560 186 560 c 128,-1,48
 167 560 167 560 156 571 c 128,-1,49
 145 582 145 582 145 601 c 0,41,42
305 601 m 0,50,51
 305 645 305 645 348 645 c 0,52,53
 366 645 366 645 376.5 633.5 c 128,-1,54
 387 622 387 622 387 602.5 c 128,-1,55
 387 583 387 583 376 571.5 c 128,-1,56
 365 560 365 560 346 560 c 128,-1,57
 327 560 327 560 316 571 c 128,-1,58
 305 582 305 582 305 601 c 0,50,51
EndSplineSet
EndChar

StartChar: Aogonek
Encoding: 260 260 191
Width: 569
GlyphClass: 2
Flags: W
LayerCount: 2
Fore
SplineSet
288 618 m 2,0,-1
 282 618 l 1,1,2
 281 591 281 591 272 561 c 2,3,-1
 179 260 l 1,4,-1
 388 260 l 1,5,-1
 298 561 l 2,6,7
 292 583 292 583 289.5 600.5 c 128,-1,8
 287 618 287 618 288 618 c 2,0,-1
480.5 -146.5 m 128,-1,10
 491 -157 491 -157 509.5 -157 c 128,-1,11
 528 -157 528 -157 540 -151 c 1,12,-1
 551 -188 l 1,13,14
 533 -204 533 -204 493.5 -204 c 128,-1,15
 454 -204 454 -204 430 -185.5 c 128,-1,16
 406 -167 406 -167 406 -136.5 c 128,-1,17
 406 -106 406 -106 424 -69 c 128,-1,18
 442 -32 442 -32 469 0 c 1,19,-1
 408 195 l 1,20,-1
 159 195 l 1,21,-1
 99 0 l 1,22,-1
 22 0 l 1,23,-1
 246 690 l 1,24,-1
 321 699 l 1,25,-1
 546 0 l 1,26,-1
 518 0 l 1,27,28
 470 -73 470 -73 470 -120 c 0,29,9
 470 -136 470 -136 480.5 -146.5 c 128,-1,10
EndSplineSet
EndChar

StartChar: aogonek
Encoding: 261 261 192
Width: 531
GlyphClass: 2
Flags: W
LayerCount: 2
Fore
SplineSet
437 -3 m 1,0,1
 376 15 376 15 376 91 c 0,2,3
 376 105 376 105 378 119 c 1,4,-1
 372 119 l 1,5,6
 355 59 355 59 317.5 23.5 c 128,-1,7
 280 -12 280 -12 222 -12 c 0,8,9
 135 -12 135 -12 95 48 c 128,-1,10
 55 108 55 108 55 218.5 c 128,-1,11
 55 329 55 329 111.5 405.5 c 128,-1,12
 168 482 168 482 278 482 c 0,13,14
 317 482 317 482 355.5 474 c 128,-1,15
 394 466 394 466 432 451 c 1,16,-1
 432 197 l 2,17,18
 432 95 432 95 450 68 c 0,19,20
 467 41 467 41 507 41 c 1,21,-1
 509 -4 l 1,22,23
 499 -6 499 -6 484 -7 c 1,24,25
 441 -74 441 -74 441 -120 c 0,26,27
 441 -136 441 -136 451.5 -146.5 c 128,-1,28
 462 -157 462 -157 480.5 -157 c 128,-1,29
 499 -157 499 -157 511 -151 c 1,30,-1
 522 -188 l 1,31,32
 504 -204 504 -204 464.5 -204 c 128,-1,33
 425 -204 425 -204 401 -185.5 c 128,-1,34
 377 -167 377 -167 377 -131 c 0,35,36
 377 -78 377 -78 437 -3 c 1,0,1
365 341 m 2,37,-1
 365 414 l 1,38,39
 336 429 336 429 278 429 c 0,40,41
 130 429 130 429 130 206 c 0,42,43
 130 43 130 43 229 43 c 0,44,45
 271 43 271 43 299.5 71.5 c 128,-1,46
 328 100 328 100 342 149 c 0,47,48
 365 234 365 234 365 341 c 2,37,-1
EndSplineSet
EndChar

StartChar: Eogonek
Encoding: 280 280 193
Width: 508
GlyphClass: 2
Flags: W
LayerCount: 2
Fore
SplineSet
198 154 m 2,0,1
 198 101 198 101 192 65 c 1,2,-1
 469 65 l 1,3,-1
 466 0 l 1,4,-1
 120 0 l 1,5,-1
 123 690 l 1,6,-1
 469 690 l 1,7,-1
 466 625 l 1,8,-1
 197 625 l 1,9,10
 200 596 200 596 200 536 c 2,11,-1
 198 405 l 1,12,-1
 438 405 l 1,13,-1
 438 340 l 1,14,-1
 198 340 l 1,15,-1
 198 154 l 2,0,1
446 -151 m 1,16,-1
 457 -188 l 1,17,-1
 452 -192 l 1,18,19
 435 -204 435 -204 388 -204 c 0,20,21
 360 -204 360 -204 336 -185.5 c 128,-1,22
 312 -167 312 -167 312 -136.5 c 128,-1,23
 312 -106 312 -106 330 -69 c 128,-1,24
 348 -32 348 -32 375 0 c 1,25,-1
 424 0 l 1,26,27
 376 -73 376 -73 376 -120 c 0,28,29
 376 -136 376 -136 386.5 -146.5 c 128,-1,30
 397 -157 397 -157 416.5 -157 c 128,-1,31
 436 -157 436 -157 446 -151 c 1,16,-1
EndSplineSet
EndChar

StartChar: eogonek
Encoding: 281 281 194
Width: 433
GlyphClass: 2
Flags: W
LayerCount: 2
Fore
SplineSet
273.5 -146.5 m 128,-1,1
 284 -157 284 -157 302 -157 c 128,-1,2
 320 -157 320 -157 333 -148 c 1,3,-1
 344 -185 l 1,4,5
 326 -204 326 -204 286.5 -204 c 128,-1,6
 247 -204 247 -204 223 -185.5 c 128,-1,7
 199 -167 199 -167 199 -125 c 128,-1,8
 199 -83 199 -83 259 -11 c 1,9,10
 250 -12 250 -12 241 -12 c 0,11,12
 54 -12 54 -12 54 218 c 0,13,14
 54 332 54 332 109.5 407 c 128,-1,15
 165 482 165 482 268 482 c 0,16,17
 330 482 330 482 366.5 452.5 c 128,-1,18
 403 423 403 423 403 371.5 c 128,-1,19
 403 320 403 320 378.5 287.5 c 128,-1,20
 354 255 354 255 312 238 c 0,21,22
 233 206 233 206 129 206 c 1,23,24
 129 47 129 47 253 47 c 0,25,26
 316 47 316 47 371 82 c 1,27,-1
 382 43 l 1,28,29
 361 22 361 22 325 4 c 1,30,31
 303 -10 303 -10 283 -49.5 c 128,-1,32
 263 -89 263 -89 263 -112.5 c 128,-1,0
 263 -136 263 -136 273.5 -146.5 c 128,-1,1
330 367 m 0,33,34
 330 396 330 396 312 411 c 128,-1,35
 294 426 294 426 264 426 c 0,36,37
 204 426 204 426 170 376.5 c 128,-1,38
 136 327 136 327 131 257 c 1,39,40
 330 257 330 257 330 367 c 0,33,34
EndSplineSet
EndChar

StartChar: hbar
Encoding: 295 295 195
Width: 584
GlyphClass: 2
Flags: W
LayerCount: 2
Fore
SplineSet
200 460 m 2,0,1
 200 407 200 407 192 371 c 1,2,-1
 198 371 l 1,3,4
 238 482 238 482 351 482 c 0,5,6
 430 482 430 482 460 442.5 c 128,-1,7
 490 403 490 403 490 324 c 0,8,9
 490 321 490 321 488.5 222 c 128,-1,10
 487 123 487 123 487 96 c 128,-1,11
 487 69 487 69 493.5 56 c 128,-1,12
 500 43 500 43 536 43 c 1,13,-1
 538 -2 l 1,14,15
 524 -8 524 -8 497 -8 c 0,16,17
 449 -8 449 -8 431.5 14 c 128,-1,18
 414 36 414 36 414 84 c 0,19,20
 414 86 414 86 416 192 c 128,-1,21
 418 298 418 298 418 302 c 0,22,23
 418 360 418 360 403 392.5 c 128,-1,24
 388 425 388 425 337 425 c 128,-1,25
 286 425 286 425 252.5 380 c 128,-1,26
 219 335 219 335 208.5 279.5 c 128,-1,27
 198 224 198 224 198 159 c 2,28,-1
 198 0 l 1,29,-1
 129 0 l 1,30,-1
 129 555 l 1,31,-1
 65 554 l 1,32,-1
 65 611 l 1,33,-1
 129 610 l 1,34,-1
 129 733 l 1,35,-1
 200 745 l 1,36,-1
 200 609 l 1,37,-1
 363 607 l 1,38,-1
 357 558 l 1,39,-1
 200 556 l 1,40,-1
 200 460 l 2,0,1
EndSplineSet
EndChar

StartChar: Itilde
Encoding: 296 296 196
Width: 420
GlyphClass: 2
Flags: W
LayerCount: 2
Fore
SplineSet
248 690 m 1,0,-1
 248 0 l 1,1,-1
 170 0 l 1,2,-1
 173 690 l 1,3,-1
 248 690 l 1,0,-1
90.5 827 m 128,-1,5
 112 847 112 847 139 847 c 0,6,7
 167 847 167 847 209 830 c 0,8,9
 267 807 267 807 279 807 c 0,10,11
 307 807 307 807 330 840 c 1,12,-1
 360 824 l 1,13,14
 351 786 351 786 329.5 766.5 c 128,-1,15
 308 747 308 747 281 747 c 0,16,17
 251 747 251 747 186 774 c 0,18,19
 154 787 154 787 143 787 c 0,20,21
 114 787 114 787 90 754 c 1,22,-1
 60 770 l 1,23,4
 69 807 69 807 90.5 827 c 128,-1,5
EndSplineSet
EndChar

StartChar: itilde
Encoding: 297 297 197
Width: 388
GlyphClass: 2
Flags: W
LayerCount: 2
Fore
SplineSet
158 84 m 2,0,-1
 158 470 l 1,1,-1
 230 470 l 1,2,-1
 230 127 l 2,3,4
 230 74 230 74 238 58.5 c 128,-1,5
 246 43 246 43 284 43 c 1,6,-1
 286 -1 l 1,7,8
 266 -8 266 -8 246 -8 c 0,9,10
 197 -8 197 -8 177.5 12.5 c 128,-1,11
 158 33 158 33 158 84 c 2,0,-1
74.5 629 m 128,-1,13
 96 649 96 649 123 649 c 0,14,15
 151 649 151 649 193 632 c 0,16,17
 251 609 251 609 263 609 c 0,18,19
 291 609 291 609 314 642 c 1,20,-1
 344 626 l 1,21,22
 335 588 335 588 313.5 568.5 c 128,-1,23
 292 549 292 549 267 549 c 128,-1,24
 242 549 242 549 189 569 c 128,-1,25
 136 589 136 589 127 589 c 0,26,27
 98 589 98 589 74 556 c 1,28,-1
 44 572 l 1,29,12
 53 609 53 609 74.5 629 c 128,-1,13
EndSplineSet
EndChar

StartChar: Iogonek
Encoding: 302 302 198
Width: 323
GlyphClass: 2
Flags: W
LayerCount: 2
Fore
SplineSet
133.5 -146.5 m 128,-1,1
 144 -157 144 -157 162.5 -157 c 128,-1,2
 181 -157 181 -157 193 -151 c 1,3,-1
 204 -188 l 1,4,5
 186 -204 186 -204 146.5 -204 c 128,-1,6
 107 -204 107 -204 83 -185.5 c 128,-1,7
 59 -167 59 -167 59 -136.5 c 128,-1,8
 59 -106 59 -106 77 -69 c 128,-1,9
 95 -32 95 -32 122 0 c 1,10,-1
 125 690 l 1,11,-1
 200 690 l 1,12,-1
 200 0 l 1,13,-1
 171 0 l 1,14,15
 123 -73 123 -73 123 -120 c 0,16,0
 123 -136 123 -136 133.5 -146.5 c 128,-1,1
EndSplineSet
EndChar

StartChar: iogonek
Encoding: 303 303 199
Width: 264
GlyphClass: 2
Flags: W
LayerCount: 2
Fore
SplineSet
85 627 m 0,0,1
 85 674 85 674 131 674 c 0,2,3
 173 674 173 674 173 628.5 c 128,-1,4
 173 583 173 583 129 583 c 128,-1,5
 85 583 85 583 85 627 c 0,0,1
173 -8 m 1,6,7
 131 -75 131 -75 131 -120 c 0,8,9
 131 -136 131 -136 141.5 -146.5 c 128,-1,10
 152 -157 152 -157 171.5 -157 c 128,-1,11
 191 -157 191 -157 201 -151 c 1,12,-1
 212 -188 l 1,13,-1
 206 -192 l 1,14,15
 190 -204 190 -204 144 -204 c 0,16,17
 115 -204 115 -204 91 -185.5 c 128,-1,18
 67 -167 67 -167 67 -136 c 128,-1,19
 67 -105 67 -105 85 -68.5 c 128,-1,20
 103 -32 103 -32 129 0 c 1,21,22
 92 16 92 16 92 86 c 2,23,-1
 92 470 l 1,24,-1
 164 470 l 1,25,-1
 164 127 l 2,26,27
 164 74 164 74 172 58.5 c 128,-1,28
 180 43 180 43 218 43 c 1,29,-1
 220 -1 l 1,30,31
 197 -8 197 -8 173 -8 c 1,6,7
EndSplineSet
EndChar

StartChar: dotlessi
Encoding: 305 305 200
Width: 264
GlyphClass: 2
Flags: W
LayerCount: 2
Fore
SplineSet
92 84 m 2,0,-1
 92 470 l 1,1,-1
 164 470 l 1,2,-1
 164 127 l 2,3,4
 164 74 164 74 172 58.5 c 128,-1,5
 180 43 180 43 218 43 c 1,6,-1
 220 -1 l 1,7,8
 200 -8 200 -8 180 -8 c 0,9,10
 131 -8 131 -8 111.5 12.5 c 128,-1,11
 92 33 92 33 92 84 c 2,0,-1
EndSplineSet
EndChar

StartChar: IJ
Encoding: 306 306 201
Width: 642
GlyphClass: 2
Flags: W
LayerCount: 2
Fore
SplineSet
200 690 m 1,0,-1
 200 0 l 1,1,-1
 122 0 l 1,2,-1
 125 690 l 1,3,-1
 200 690 l 1,0,-1
445 119 m 2,4,-1
 445 690 l 1,5,-1
 520 702 l 1,6,-1
 520 106 l 2,7,8
 520 38 520 38 513.5 -6 c 128,-1,9
 507 -50 507 -50 488 -89 c 0,10,11
 453 -164 453 -164 335 -164 c 1,12,-1
 325 -105 l 1,13,14
 370 -105 370 -105 402 -82 c 0,15,16
 421 -68 421 -68 436 -20 c 0,17,18
 445 10 445 10 445 119 c 2,4,-1
EndSplineSet
EndChar

StartChar: ij
Encoding: 307 307 202
Width: 516
GlyphClass: 2
Flags: W
LayerCount: 2
Fore
SplineSet
174 -8 m 0,0,1
 128 -8 128 -8 110 14 c 128,-1,2
 92 36 92 36 92 86 c 2,3,-1
 92 470 l 1,4,-1
 164 470 l 1,5,-1
 164 127 l 2,6,7
 164 74 164 74 172 58.5 c 128,-1,8
 180 43 180 43 218 43 c 1,9,-1
 220 -1 l 1,10,11
 197 -8 197 -8 174 -8 c 0,0,1
85 627 m 0,12,13
 85 674 85 674 131 674 c 0,14,15
 173 674 173 674 173 628.5 c 128,-1,16
 173 583 173 583 129 583 c 128,-1,17
 85 583 85 583 85 627 c 0,12,13
225 -183 m 1,18,19
 239 -187 239 -187 261.5 -187 c 128,-1,20
 284 -187 284 -187 298.5 -182.5 c 128,-1,21
 313 -178 313 -178 322 -172 c 128,-1,22
 331 -166 331 -166 337.5 -153 c 128,-1,23
 344 -140 344 -140 347 -130 c 128,-1,24
 350 -120 350 -120 352 -100 c 128,-1,25
 354 -80 354 -80 354 -68 c 2,26,-1
 354 470 l 1,27,-1
 426 470 l 1,28,-1
 426 -31 l 2,29,30
 426 -138 426 -138 395 -189 c 128,-1,31
 364 -240 364 -240 274 -240 c 0,32,33
 241 -240 241 -240 215 -227 c 1,34,-1
 225 -183 l 1,18,19
345 627 m 0,35,36
 345 674 345 674 391 674 c 0,37,38
 433 674 433 674 433 628.5 c 128,-1,39
 433 583 433 583 389 583 c 128,-1,40
 345 583 345 583 345 627 c 0,35,36
EndSplineSet
EndChar

StartChar: Jcircumflex
Encoding: 308 308 203
Width: 319
GlyphClass: 2
Flags: W
LayerCount: 2
Fore
SplineSet
71 724 m 1,0,-1
 49 752 l 1,1,-1
 118 833 l 1,2,-1
 189 842 l 1,3,4
 204 835 204 835 220 816 c 2,5,-1
 275 752 l 1,6,-1
 253 724 l 1,7,-1
 162 792 l 1,8,-1
 71 724 l 1,0,-1
122 119 m 2,9,-1
 122 690 l 1,10,-1
 197 702 l 1,11,-1
 197 106 l 2,12,13
 197 38 197 38 190.5 -6 c 128,-1,14
 184 -50 184 -50 166 -89 c 0,15,16
 130 -164 130 -164 12 -164 c 1,17,-1
 2 -105 l 1,18,19
 47 -105 47 -105 78 -82 c 0,20,21
 98 -68 98 -68 112 -20 c 1,22,23
 122 10 122 10 122 119 c 2,9,-1
EndSplineSet
EndChar

StartChar: jcircumflex
Encoding: 309 309 204
Width: 303
GlyphClass: 2
Flags: W
LayerCount: 2
Fore
SplineSet
-39 -183 m 1,0,1
 -25 -187 -25 -187 -2.5 -187 c 128,-1,2
 20 -187 20 -187 34.5 -182.5 c 128,-1,3
 49 -178 49 -178 58 -172 c 128,-1,4
 67 -166 67 -166 73.5 -153 c 128,-1,5
 80 -140 80 -140 83 -130 c 128,-1,6
 86 -120 86 -120 88 -100 c 128,-1,7
 90 -80 90 -80 90 -68 c 2,8,-1
 90 470 l 1,9,-1
 162 470 l 1,10,-1
 162 -31 l 2,11,12
 162 -138 162 -138 131 -189 c 128,-1,13
 100 -240 100 -240 10 -240 c 0,14,15
 -23 -240 -23 -240 -49 -227 c 1,16,-1
 -39 -183 l 1,0,1
12 550 m 1,17,-1
 85 650 l 1,18,-1
 155 659 l 1,19,20
 176 652 176 652 190 630 c 1,21,-1
 246 550 l 1,22,-1
 216 530 l 1,23,-1
 129 609 l 1,24,-1
 42 530 l 1,25,-1
 12 550 l 1,17,-1
EndSplineSet
EndChar

StartChar: kcommaaccent
Encoding: 311 311 205
Width: 483
GlyphClass: 2
Flags: W
LayerCount: 2
Fore
SplineSet
90 0 m 1,0,-1
 90 733 l 1,1,-1
 158 745 l 1,2,-1
 159 470 l 2,3,4
 159 417 159 417 151 371 c 1,5,-1
 157 371 l 1,6,7
 174 422 174 422 215 452 c 128,-1,8
 256 482 256 482 311 482 c 128,-1,9
 366 482 366 482 401.5 452 c 128,-1,10
 437 422 437 422 437 367.5 c 128,-1,11
 437 313 437 313 394 276.5 c 128,-1,12
 351 240 351 240 287 226 c 1,13,-1
 345 125 l 2,14,15
 372 79 372 79 394 60.5 c 128,-1,16
 416 42 416 42 446 42 c 1,17,-1
 448 -3 l 1,18,19
 442 -8 442 -8 418 -8 c 0,20,21
 370 -8 370 -8 341 16.5 c 128,-1,22
 312 41 312 41 285 93 c 2,23,-1
 207 242 l 1,24,-1
 207 260 l 1,25,26
 270 260 270 260 316 288 c 128,-1,27
 362 316 362 316 362 368 c 0,28,29
 362 396 362 396 343.5 411 c 128,-1,30
 325 426 325 426 296 426 c 0,31,32
 249 426 249 426 216 391 c 0,33,34
 158 328 158 328 158 206 c 2,35,-1
 158 0 l 1,36,-1
 90 0 l 1,0,-1
278 -29 m 1,37,38
 296 -41 296 -41 296 -61 c 128,-1,39
 296 -81 296 -81 283 -105 c 1,40,-1
 244 -171 l 1,41,-1
 201 -149 l 1,42,-1
 219 -88 l 2,43,44
 228 -55 228 -55 222 -29 c 1,45,-1
 278 -29 l 1,37,38
EndSplineSet
EndChar

StartChar: kgreenlandic
Encoding: 312 312 206
Width: 458
GlyphClass: 2
Flags: W
LayerCount: 2
Fore
SplineSet
77 0 m 1,0,-1
 77 467 l 1,1,-1
 145 482 l 1,2,-1
 145 288 l 1,3,-1
 203 291 l 1,4,-1
 311 482 l 1,5,-1
 382 470 l 1,6,-1
 256 265 l 1,7,-1
 330 134 l 1,8,9
 360 84 360 84 381.5 64.5 c 128,-1,10
 403 45 403 45 433 45 c 1,11,-1
 435 -3 l 1,12,13
 427 -8 427 -8 404 -8 c 0,14,15
 359 -8 359 -8 333 17 c 128,-1,16
 307 42 307 42 275 99 c 2,17,-1
 201 234 l 1,18,-1
 145 231 l 1,19,-1
 145 0 l 1,20,-1
 77 0 l 1,0,-1
EndSplineSet
EndChar

StartChar: Ldotaccent
Encoding: 319 319 207
Width: 503
GlyphClass: 2
Flags: W
LayerCount: 2
Fore
SplineSet
198 154 m 2,0,1
 198 101 198 101 192 65 c 1,2,-1
 453 65 l 1,3,-1
 450 0 l 1,4,-1
 120 0 l 1,5,-1
 123 690 l 1,6,-1
 198 702 l 1,7,-1
 198 154 l 2,0,1
290 361 m 0,8,9
 290 408 290 408 336 408 c 0,10,11
 378 408 378 408 378 362.5 c 128,-1,12
 378 317 378 317 334 317 c 128,-1,13
 290 317 290 317 290 361 c 0,8,9
EndSplineSet
EndChar

StartChar: ldot
Encoding: 320 320 208
Width: 400
GlyphClass: 2
Flags: W
LayerCount: 2
Fore
SplineSet
255 361 m 0,0,1
 255 408 255 408 301 408 c 0,2,3
 343 408 343 408 343 362.5 c 128,-1,4
 343 317 343 317 299 317 c 128,-1,5
 255 317 255 317 255 361 c 0,0,1
92 86 m 2,6,-1
 92 733 l 1,7,-1
 164 745 l 1,8,-1
 164 127 l 2,9,10
 164 74 164 74 172 58.5 c 128,-1,11
 180 43 180 43 218 43 c 1,12,-1
 220 -1 l 1,13,14
 204 -8 204 -8 166 -8 c 128,-1,15
 128 -8 128 -8 110 14 c 128,-1,16
 92 36 92 36 92 86 c 2,6,-1
EndSplineSet
EndChar

StartChar: Lslash
Encoding: 321 321 209
Width: 455
GlyphClass: 2
Flags: W
LayerCount: 2
Fore
SplineSet
198 154 m 2,0,1
 198 101 198 101 192 65 c 1,2,-1
 453 65 l 1,3,-1
 450 0 l 1,4,-1
 120 0 l 1,5,-1
 121 338 l 1,6,-1
 30 289 l 1,7,8
 14 303 14 303 12 323 c 1,9,-1
 121 382 l 1,10,-1
 123 690 l 1,11,-1
 198 702 l 1,12,-1
 198 424 l 1,13,-1
 338 500 l 1,14,15
 356 486 356 486 356 466 c 1,16,-1
 198 380 l 1,17,-1
 198 154 l 2,0,1
EndSplineSet
EndChar

StartChar: lslash
Encoding: 322 322 210
Width: 264
GlyphClass: 2
Flags: W
LayerCount: 2
Fore
SplineSet
164 127 m 2,0,1
 164 74 164 74 172 58.5 c 128,-1,2
 180 43 180 43 218 43 c 1,3,-1
 220 -1 l 1,4,5
 204 -8 204 -8 166 -8 c 128,-1,6
 128 -8 128 -8 110 14 c 128,-1,7
 92 36 92 36 92 86 c 2,8,-1
 92 334 l 1,9,-1
 10 289 l 1,10,11
 -8 303 -8 303 -8 323 c 1,12,-1
 92 378 l 1,13,-1
 92 733 l 1,14,-1
 164 745 l 1,15,-1
 164 417 l 1,16,-1
 233 455 l 1,17,18
 251 441 251 441 251 421 c 1,19,-1
 164 373 l 1,20,-1
 164 127 l 2,0,1
EndSplineSet
EndChar

StartChar: Nacute
Encoding: 323 323 211
Width: 700
GlyphClass: 2
Flags: W
LayerCount: 2
Fore
SplineSet
464 838 m 1,0,-1
 481 795 l 1,1,-1
 322 723 l 1,2,-1
 300 751 l 1,3,-1
 382 812 l 1,4,5
 426 846 426 846 441 846 c 128,-1,6
 456 846 456 846 464 838 c 1,0,-1
505 162 m 2,7,-1
 505 690 l 1,8,-1
 580 690 l 1,9,-1
 577 0 l 1,10,-1
 476 0 l 1,11,-1
 213 559 l 1,12,-1
 191 610 l 1,13,-1
 186 609 l 1,14,15
 195 588 195 588 195 528 c 2,16,-1
 195 0 l 1,17,-1
 120 0 l 1,18,-1
 123 690 l 1,19,-1
 224 690 l 1,20,-1
 487 131 l 1,21,-1
 509 80 l 1,22,-1
 514 81 l 1,23,24
 505 102 505 102 505 162 c 2,7,-1
EndSplineSet
EndChar

StartChar: nacute
Encoding: 324 324 212
Width: 545
GlyphClass: 2
Flags: W
LayerCount: 2
Fore
SplineSet
258 550 m 1,0,-1
 317 633 l 2,1,2
 354 686 354 686 375 686 c 1,3,-1
 387 683 l 1,4,-1
 417 648 l 1,5,-1
 288 530 l 1,6,-1
 258 550 l 1,0,-1
161 450 m 2,7,8
 161 397 161 397 153 361 c 1,9,-1
 159 361 l 1,10,11
 173 417 173 417 213.5 449.5 c 128,-1,12
 254 482 254 482 312 482 c 0,13,14
 391 482 391 482 421 442.5 c 128,-1,15
 451 403 451 403 451 324 c 0,16,17
 451 321 451 321 449.5 222 c 128,-1,18
 448 123 448 123 448 96 c 128,-1,19
 448 69 448 69 454.5 56 c 128,-1,20
 461 43 461 43 497 43 c 1,21,-1
 499 -2 l 1,22,23
 485 -8 485 -8 458 -8 c 0,24,25
 410 -8 410 -8 392.5 14 c 128,-1,26
 375 36 375 36 375 84 c 0,27,28
 375 86 375 86 377 192 c 128,-1,29
 379 298 379 298 379 302 c 0,30,31
 379 360 379 360 364 392.5 c 128,-1,32
 349 425 349 425 304.5 425 c 128,-1,33
 260 425 260 425 230.5 397 c 128,-1,34
 201 369 201 369 186 324 c 0,35,36
 159 237 159 237 159 139 c 2,37,-1
 159 0 l 1,38,-1
 90 0 l 1,39,-1
 90 470 l 1,40,-1
 161 479 l 1,41,-1
 161 450 l 2,7,8
EndSplineSet
EndChar

StartChar: OE
Encoding: 338 338 213
Width: 833
GlyphClass: 2
Flags: W
LayerCount: 2
Fore
SplineSet
520 154 m 2,0,1
 520 101 520 101 514 65 c 1,2,-1
 791 65 l 1,3,-1
 788 0 l 1,4,-1
 442 0 l 1,5,6
 404 -12 404 -12 341 -12 c 0,7,8
 195 -12 195 -12 132.5 80 c 128,-1,9
 70 172 70 172 70 339 c 0,10,11
 70 554 70 554 193 651 c 0,12,13
 258 702 258 702 352 702 c 0,14,15
 402 702 402 702 445 690 c 1,16,-1
 791 690 l 1,17,-1
 788 625 l 1,18,-1
 519 625 l 1,19,20
 522 596 522 596 522 536 c 2,21,-1
 520 405 l 1,22,-1
 760 405 l 1,23,-1
 760 340 l 1,24,-1
 520 340 l 1,25,-1
 520 154 l 2,0,1
352 636 m 128,-1,27
 298 636 298 636 257.5 611 c 128,-1,28
 217 586 217 586 194 543 c 0,29,30
 150 458 150 458 150 339 c 0,31,32
 150 218 150 218 189 140 c 0,33,34
 234 51 234 51 341 51 c 0,35,36
 401 51 401 51 442 69 c 1,37,-1
 444 621 l 1,38,26
 406 636 406 636 352 636 c 128,-1,27
EndSplineSet
EndChar

StartChar: oe
Encoding: 339 339 214
Width: 759
GlyphClass: 2
Flags: W
LayerCount: 2
Fore
SplineSet
648.5 3 m 128,-1,1
 608 -12 608 -12 562.5 -12 c 128,-1,2
 517 -12 517 -12 476 12.5 c 128,-1,3
 435 37 435 37 414 84 c 1,4,5
 391 39 391 39 347.5 13.5 c 128,-1,6
 304 -12 304 -12 252 -12 c 0,7,8
 144 -12 144 -12 100 48.5 c 128,-1,9
 56 109 56 109 56 226 c 128,-1,10
 56 343 56 343 107 412.5 c 128,-1,11
 158 482 158 482 267 482 c 128,-1,12
 376 482 376 482 429 384 c 1,13,14
 454 429 454 429 498 455.5 c 128,-1,15
 542 482 542 482 599 482 c 128,-1,16
 656 482 656 482 692.5 452.5 c 128,-1,17
 729 423 729 423 729 371.5 c 128,-1,18
 729 320 729 320 704.5 287.5 c 128,-1,19
 680 255 680 255 638 238 c 0,20,21
 559 206 559 206 455 206 c 1,22,23
 455 47 455 47 582 47 c 0,24,25
 646 47 646 47 703 82 c 1,26,-1
 714 43 l 1,27,0
 689 18 689 18 648.5 3 c 128,-1,1
252 41 m 128,-1,29
 322 41 322 41 355.5 98.5 c 128,-1,30
 389 156 389 156 389 248 c 0,31,32
 389 427 389 427 262 427 c 0,33,34
 215 427 215 427 184 397 c 0,35,36
 128 344 128 344 128 228 c 0,37,38
 128 142 128 142 155 91.5 c 128,-1,28
 182 41 182 41 252 41 c 128,-1,29
656 367 m 0,39,40
 656 396 656 396 638 411 c 128,-1,41
 620 426 620 426 590 426 c 0,42,43
 530 426 530 426 496 376.5 c 128,-1,44
 462 327 462 327 457 257 c 1,45,46
 656 257 656 257 656 367 c 0,39,40
EndSplineSet
EndChar

StartChar: Racute
Encoding: 340 340 215
Width: 581
GlyphClass: 2
Flags: W
LayerCount: 2
Fore
SplineSet
123 682 m 1,0,1
 211 694 211 694 306 694 c 128,-1,2
 401 694 401 694 457 647 c 128,-1,3
 513 600 513 600 513 515 c 0,4,5
 513 370 513 370 366 330 c 1,6,-1
 466 133 l 2,7,8
 490 84 490 84 510.5 64.5 c 128,-1,9
 531 45 531 45 560 45 c 1,10,-1
 563 -3 l 1,11,12
 559 -7 559 -7 523.5 -7 c 128,-1,13
 488 -7 488 -7 460 18.5 c 128,-1,14
 432 44 432 44 405 98 c 2,15,-1
 293 318 l 1,16,17
 278 315 278 315 258 315 c 2,18,-1
 196 315 l 1,19,-1
 196 0 l 1,20,-1
 120 0 l 1,21,-1
 123 682 l 1,0,1
196 378 m 1,22,-1
 260 378 l 2,23,24
 433 378 433 378 433 511 c 0,25,26
 433 628 433 628 295 628 c 0,27,28
 239 628 239 628 196 622 c 1,29,-1
 196 378 l 1,22,-1
395 837 m 1,30,-1
 412 794 l 1,31,-1
 253 722 l 1,32,-1
 231 750 l 1,33,-1
 313 811 l 1,34,35
 357 845 357 845 372 845 c 128,-1,36
 387 845 387 845 395 837 c 1,30,-1
EndSplineSet
EndChar

StartChar: Rcommaaccent
Encoding: 342 342 216
Width: 581
GlyphClass: 2
Flags: W
LayerCount: 2
Fore
SplineSet
351 -29 m 1,0,1
 369 -41 369 -41 369 -61 c 128,-1,2
 369 -81 369 -81 356 -105 c 1,3,-1
 317 -171 l 1,4,-1
 274 -149 l 1,5,-1
 292 -88 l 2,6,7
 301 -55 301 -55 295 -29 c 1,8,-1
 351 -29 l 1,0,1
123 682 m 1,9,10
 211 694 211 694 306 694 c 128,-1,11
 401 694 401 694 457 647 c 128,-1,12
 513 600 513 600 513 515 c 0,13,14
 513 370 513 370 366 330 c 1,15,-1
 466 133 l 2,16,17
 490 84 490 84 510.5 64.5 c 128,-1,18
 531 45 531 45 560 45 c 1,19,-1
 563 -3 l 1,20,21
 559 -7 559 -7 523.5 -7 c 128,-1,22
 488 -7 488 -7 460 18.5 c 128,-1,23
 432 44 432 44 405 98 c 2,24,-1
 293 318 l 1,25,26
 278 315 278 315 258 315 c 2,27,-1
 196 315 l 1,28,-1
 196 0 l 1,29,-1
 120 0 l 1,30,-1
 123 682 l 1,9,10
196 378 m 1,31,-1
 260 378 l 2,32,33
 433 378 433 378 433 511 c 0,34,35
 433 628 433 628 295 628 c 0,36,37
 239 628 239 628 196 622 c 1,38,-1
 196 378 l 1,31,-1
EndSplineSet
EndChar

StartChar: rcommaaccent
Encoding: 343 343 217
Width: 367
GlyphClass: 2
Flags: W
LayerCount: 2
Fore
SplineSet
145 479 m 1,0,1
 165 471 165 471 165 423 c 128,-1,2
 165 375 165 375 158 347 c 1,3,-1
 164 347 l 1,4,5
 186 418 186 418 215 450 c 128,-1,6
 244 482 244 482 306 482 c 1,7,-1
 337 478 l 1,8,-1
 328 409 l 1,9,10
 315 412 315 412 296 412 c 0,11,12
 257 412 257 412 229.5 386.5 c 128,-1,13
 202 361 202 361 188 318 c 0,14,15
 164 241 164 241 164 145 c 2,16,-1
 164 0 l 1,17,-1
 95 0 l 1,18,-1
 95 323 l 2,19,20
 95 432 95 432 84 472 c 1,21,-1
 145 479 l 1,0,1
158 -29 m 1,22,23
 176 -41 176 -41 176 -61 c 128,-1,24
 176 -81 176 -81 163 -105 c 1,25,-1
 124 -171 l 1,26,-1
 81 -149 l 1,27,-1
 99 -88 l 2,28,29
 108 -55 108 -55 102 -29 c 1,30,-1
 158 -29 l 1,22,23
EndSplineSet
EndChar

StartChar: Rcaron
Encoding: 344 344 218
Width: 581
GlyphClass: 2
Flags: W
LayerCount: 2
Fore
SplineSet
123 682 m 1,0,1
 211 694 211 694 306 694 c 128,-1,2
 401 694 401 694 457 647 c 128,-1,3
 513 600 513 600 513 515 c 0,4,5
 513 370 513 370 366 330 c 1,6,-1
 466 133 l 2,7,8
 490 84 490 84 510.5 64.5 c 128,-1,9
 531 45 531 45 560 45 c 1,10,-1
 563 -3 l 1,11,12
 559 -7 559 -7 523.5 -7 c 128,-1,13
 488 -7 488 -7 460 18.5 c 128,-1,14
 432 44 432 44 405 98 c 2,15,-1
 293 318 l 1,16,17
 278 315 278 315 258 315 c 2,18,-1
 196 315 l 1,19,-1
 196 0 l 1,20,-1
 120 0 l 1,21,-1
 123 682 l 1,0,1
196 378 m 1,22,-1
 260 378 l 2,23,24
 433 378 433 378 433 511 c 0,25,26
 433 628 433 628 295 628 c 0,27,28
 239 628 239 628 196 622 c 1,29,-1
 196 378 l 1,22,-1
234 759 m 2,30,-1
 179 823 l 1,31,-1
 201 851 l 1,32,-1
 292 783 l 1,33,-1
 383 851 l 1,34,-1
 405 823 l 1,35,-1
 336 742 l 1,36,-1
 265 733 l 1,37,38
 250 740 250 740 234 759 c 2,30,-1
EndSplineSet
EndChar

StartChar: rcaron
Encoding: 345 345 219
Width: 336
GlyphClass: 2
Flags: W
LayerCount: 2
Fore
SplineSet
142 479 m 1,0,1
 162 471 162 471 162 427.5 c 128,-1,2
 162 384 162 384 155 347 c 1,3,-1
 161 347 l 1,4,5
 183 418 183 418 212 450 c 128,-1,6
 241 482 241 482 303 482 c 1,7,-1
 334 478 l 1,8,-1
 325 409 l 1,9,10
 312 412 312 412 293 412 c 0,11,12
 254 412 254 412 226.5 386.5 c 128,-1,13
 199 361 199 361 186 318 c 0,14,15
 161 241 161 241 161 145 c 2,16,-1
 161 0 l 1,17,-1
 92 0 l 1,18,-1
 92 323 l 2,19,20
 92 424 92 424 81 472 c 1,21,-1
 142 479 l 1,0,1
134 562 m 1,22,-1
 78 642 l 1,23,-1
 108 662 l 1,24,-1
 195 583 l 1,25,-1
 282 662 l 1,26,-1
 312 642 l 1,27,-1
 239 542 l 1,28,-1
 169 533 l 1,29,30
 148 540 148 540 134 562 c 1,22,-1
EndSplineSet
EndChar

StartChar: Scaron
Encoding: 352 352 220
Width: 480
GlyphClass: 2
Flags: W
LayerCount: 2
Fore
SplineSet
53 107 m 1,0,1
 132 53 132 53 205.5 53 c 128,-1,2
 279 53 279 53 320.5 87 c 128,-1,3
 362 121 362 121 362 181 c 0,4,5
 362 230 362 230 332 258 c 0,6,7
 300 289 300 289 232 320 c 0,8,9
 212 330 212 330 204 334 c 0,10,11
 136 366 136 366 98.5 408 c 128,-1,12
 61 450 61 450 61 527 c 128,-1,13
 61 604 61 604 118.5 653 c 128,-1,14
 176 702 176 702 257 702 c 128,-1,15
 338 702 338 702 405 673 c 1,16,-1
 390 618 l 1,17,18
 330 638 330 638 273 638 c 128,-1,19
 216 638 216 638 177 608.5 c 128,-1,20
 138 579 138 579 138 531 c 128,-1,21
 138 483 138 483 165 454 c 0,22,23
 196 422 196 422 275 386 c 1,24,25
 347 352 347 352 373 329 c 0,26,27
 409 296 409 296 418 276 c 1,28,29
 437 228 437 228 437 185 c 0,30,31
 437 94 437 94 374.5 41 c 128,-1,32
 312 -12 312 -12 214.5 -12 c 128,-1,33
 117 -12 117 -12 37 54 c 1,34,-1
 53 107 l 1,0,1
196 767 m 2,35,-1
 141 831 l 1,36,-1
 163 859 l 1,37,-1
 254 791 l 1,38,-1
 345 859 l 1,39,-1
 367 831 l 1,40,-1
 298 750 l 1,41,-1
 227 741 l 1,42,43
 212 748 212 748 196 767 c 2,35,-1
EndSplineSet
EndChar

StartChar: scaron
Encoding: 353 353 221
Width: 379
GlyphClass: 2
Flags: W
LayerCount: 2
Fore
SplineSet
176 43 m 0,0,1
 220 43 220 43 250 63.5 c 128,-1,2
 280 84 280 84 280 122 c 0,3,4
 280 162 280 162 242 185 c 0,5,6
 223 196 223 196 196 207.5 c 128,-1,7
 169 219 169 219 163 222 c 0,8,9
 113 244 113 244 85.5 274 c 128,-1,10
 58 304 58 304 58 359.5 c 128,-1,11
 58 415 58 415 103 448.5 c 128,-1,12
 148 482 148 482 209 482 c 128,-1,13
 270 482 270 482 319 458 c 1,14,-1
 308 413 l 1,15,16
 258 427 258 427 219.5 427 c 128,-1,17
 181 427 181 427 153 409.5 c 128,-1,18
 125 392 125 392 125 361 c 128,-1,19
 125 330 125 330 144 312.5 c 128,-1,20
 163 295 163 295 183.5 286 c 128,-1,21
 204 277 204 277 227.5 267.5 c 128,-1,22
 251 258 251 258 258 254 c 128,-1,23
 265 250 265 250 284 239.5 c 128,-1,24
 303 229 303 229 310.5 220 c 128,-1,25
 318 211 318 211 328 196 c 1,26,27
 347 171 347 171 347 125 c 0,28,29
 347 59 347 59 298 23.5 c 128,-1,30
 249 -12 249 -12 173.5 -12 c 128,-1,31
 98 -12 98 -12 40 38 c 1,32,-1
 51 78 l 1,33,34
 108 43 108 43 176 43 c 0,0,1
139 562 m 1,35,-1
 83 642 l 1,36,-1
 113 662 l 1,37,-1
 200 583 l 1,38,-1
 287 662 l 1,39,-1
 317 642 l 1,40,-1
 244 542 l 1,41,-1
 174 533 l 1,42,43
 153 540 153 540 139 562 c 1,35,-1
EndSplineSet
EndChar

StartChar: Ydieresis
Encoding: 376 376 222
Width: 485
GlyphClass: 2
Flags: W
LayerCount: 2
Fore
SplineSet
201 0 m 1,0,-1
 201 310 l 1,1,-1
 10 690 l 1,2,-1
 85 699 l 1,3,-1
 242 378 l 1,4,-1
 395 690 l 1,5,-1
 475 690 l 1,6,-1
 276 310 l 1,7,-1
 276 0 l 1,8,-1
 201 0 l 1,0,-1
126 787 m 0,9,10
 126 831 126 831 169 831 c 0,11,12
 187 831 187 831 197.5 819.5 c 128,-1,13
 208 808 208 808 208 788.5 c 128,-1,14
 208 769 208 769 197 757.5 c 128,-1,15
 186 746 186 746 167 746 c 128,-1,16
 148 746 148 746 137 757 c 128,-1,17
 126 768 126 768 126 787 c 0,9,10
286 787 m 0,18,19
 286 831 286 831 329 831 c 0,20,21
 347 831 347 831 357.5 819.5 c 128,-1,22
 368 808 368 808 368 788.5 c 128,-1,23
 368 769 368 769 357 757.5 c 128,-1,24
 346 746 346 746 327 746 c 128,-1,25
 308 746 308 746 297 757 c 128,-1,26
 286 768 286 768 286 787 c 0,18,19
EndSplineSet
EndChar

StartChar: Zcaron
Encoding: 381 381 223
Width: 498
GlyphClass: 2
Flags: W
LayerCount: 2
Fore
SplineSet
20 0 m 1,0,-1
 20 27 l 1,1,-1
 349 623 l 1,2,-1
 349 631 l 1,3,4
 319 628 319 628 40 621 c 1,5,-1
 36 690 l 1,6,-1
 456 690 l 1,7,-1
 456 663 l 1,8,-1
 127 67 l 1,9,-1
 127 59 l 1,10,11
 158 62 158 62 443 69 c 1,12,-1
 443 0 l 1,13,-1
 20 0 l 1,0,-1
195 759 m 2,14,-1
 140 823 l 1,15,-1
 162 851 l 1,16,-1
 253 783 l 1,17,-1
 344 851 l 1,18,-1
 366 823 l 1,19,-1
 297 742 l 1,20,-1
 226 733 l 1,21,22
 211 740 211 740 195 759 c 2,14,-1
EndSplineSet
EndChar

StartChar: zcaron
Encoding: 382 382 224
Width: 402
GlyphClass: 2
Flags: W
LayerCount: 2
Fore
SplineSet
30 0 m 1,0,-1
 30 18 l 1,1,-1
 277 412 l 1,2,-1
 277 418 l 1,3,4
 257 415 257 415 189.5 415 c 128,-1,5
 122 415 122 415 56 404 c 1,6,-1
 47 465 l 1,7,8
 64 475 64 475 100 475 c 2,9,-1
 374 470 l 1,10,-1
 374 452 l 1,11,-1
 132 55 l 1,12,-1
 215 55 l 2,13,14
 320 55 320 55 362 66 c 1,15,-1
 371 5 l 1,16,17
 358 -6 358 -6 318 -6 c 128,-1,18
 278 -6 278 -6 30 0 c 1,0,-1
150 562 m 1,19,-1
 94 642 l 1,20,-1
 124 662 l 1,21,-1
 211 583 l 1,22,-1
 298 662 l 1,23,-1
 328 642 l 1,24,-1
 255 542 l 1,25,-1
 185 533 l 1,26,27
 164 540 164 540 150 562 c 1,19,-1
EndSplineSet
EndChar

StartChar: dotlessj
Encoding: 567 567 225
Width: 252
GlyphClass: 2
Flags: W
LayerCount: 2
Fore
SplineSet
-39 -183 m 1,0,1
 -25 -187 -25 -187 -2.5 -187 c 128,-1,2
 20 -187 20 -187 34.5 -182.5 c 128,-1,3
 49 -178 49 -178 58 -172 c 128,-1,4
 67 -166 67 -166 73.5 -153 c 128,-1,5
 80 -140 80 -140 83 -130 c 128,-1,6
 86 -120 86 -120 88 -100 c 128,-1,7
 90 -80 90 -80 90 -68 c 2,8,-1
 90 470 l 1,9,-1
 162 470 l 1,10,-1
 162 -31 l 2,11,12
 162 -138 162 -138 131 -189 c 128,-1,13
 100 -240 100 -240 10 -240 c 0,14,15
 -23 -240 -23 -240 -49 -227 c 1,16,-1
 -39 -183 l 1,0,1
EndSplineSet
EndChar

StartChar: circumflex
Encoding: 710 710 226
Width: 264
GlyphClass: 2
Flags: W
LayerCount: 2
Fore
SplineSet
12 550 m 1,0,-1
 85 650 l 1,1,-1
 155 659 l 1,2,3
 176 652 176 652 190 630 c 1,4,-1
 246 550 l 1,5,-1
 216 530 l 1,6,-1
 129 609 l 1,7,-1
 42 530 l 1,8,-1
 12 550 l 1,0,-1
EndSplineSet
EndChar

StartChar: caron
Encoding: 711 711 227
Width: 264
GlyphClass: 2
Flags: W
LayerCount: 2
Fore
SplineSet
69 562 m 1,0,-1
 13 642 l 1,1,-1
 43 662 l 1,2,-1
 130 583 l 1,3,-1
 217 662 l 1,4,-1
 247 642 l 1,5,-1
 174 542 l 1,6,-1
 104 533 l 1,7,8
 83 540 83 540 69 562 c 1,0,-1
EndSplineSet
EndChar

StartChar: ring
Encoding: 730 730 228
Width: 531
GlyphClass: 2
Flags: W
LayerCount: 2
Fore
SplineSet
224 627 m 0,0,1
 224 583 224 583 268 583 c 128,-1,2
 312 583 312 583 312 628.5 c 128,-1,3
 312 674 312 674 270 674 c 0,4,5
 224 674 224 674 224 627 c 0,0,1
198.5 562 m 128,-1,7
 173 586 173 586 173 628.5 c 128,-1,8
 173 671 173 671 198.5 695 c 128,-1,9
 224 719 224 719 269 719 c 128,-1,10
 314 719 314 719 338.5 694.5 c 128,-1,11
 363 670 363 670 363 628.5 c 128,-1,12
 363 587 363 587 338 562.5 c 128,-1,13
 313 538 313 538 268.5 538 c 128,-1,6
 224 538 224 538 198.5 562 c 128,-1,7
EndSplineSet
EndChar

StartChar: ogonek
Encoding: 731 731 229
Width: 531
GlyphClass: 2
Flags: W
LayerCount: 2
Fore
SplineSet
440.5 -146.5 m 128,-1,1
 451 -157 451 -157 469.5 -157 c 128,-1,2
 488 -157 488 -157 500 -151 c 1,3,-1
 511 -188 l 1,4,5
 493 -204 493 -204 453.5 -204 c 128,-1,6
 414 -204 414 -204 390 -185.5 c 128,-1,7
 366 -167 366 -167 366 -136.5 c 128,-1,8
 366 -106 366 -106 384 -69 c 128,-1,9
 402 -32 402 -32 429 0 c 1,10,-1
 478 0 l 1,11,12
 430 -73 430 -73 430 -120 c 0,13,0
 430 -136 430 -136 440.5 -146.5 c 128,-1,1
EndSplineSet
EndChar

StartChar: tilde
Encoding: 732 732 230
Width: 545
GlyphClass: 2
Flags: W
LayerCount: 2
Fore
SplineSet
158.5 629 m 128,-1,1
 180 649 180 649 207 649 c 0,2,3
 235 649 235 649 278 632 c 0,4,5
 335 609 335 609 347 609 c 0,6,7
 375 609 375 609 398 642 c 1,8,-1
 428 626 l 1,9,10
 419 588 419 588 397.5 568.5 c 128,-1,11
 376 549 376 549 351 549 c 128,-1,12
 326 549 326 549 273 569 c 128,-1,13
 220 589 220 589 211 589 c 0,14,15
 182 589 182 589 158 556 c 1,16,-1
 128 572 l 1,17,0
 137 609 137 609 158.5 629 c 128,-1,1
EndSplineSet
EndChar

StartChar: dotaccentcmb
Encoding: 775 775 231
Width: 208
GlyphClass: 2
Flags: W
LayerCount: 2
Fore
SplineSet
60 604 m 0,0,1
 60 651 60 651 106 651 c 0,2,3
 148 651 148 651 148 605.5 c 128,-1,4
 148 560 148 560 104 560 c 128,-1,5
 60 560 60 560 60 604 c 0,0,1
EndSplineSet
EndChar

StartChar: endash
Encoding: 8211 8211 232
Width: 425
GlyphClass: 2
Flags: W
LayerCount: 2
Fore
SplineSet
51 232 m 1,0,-1
 51 299 l 1,1,-1
 390 295 l 1,2,-1
 384 236 l 1,3,-1
 51 232 l 1,0,-1
EndSplineSet
EndChar

StartChar: emdash
Encoding: 8212 8212 233
Width: 515
GlyphClass: 2
Flags: W
LayerCount: 2
Fore
SplineSet
51 232 m 1,0,-1
 51 299 l 1,1,-1
 480 295 l 1,2,-1
 474 236 l 1,3,-1
 51 232 l 1,0,-1
EndSplineSet
EndChar

StartChar: quoteleft
Encoding: 8216 8216 234
Width: 153
GlyphClass: 2
Flags: W
LayerCount: 2
Fore
SplineSet
116 506 m 1,0,1
 75 497 75 497 65.5 497 c 128,-1,2
 56 497 56 497 43 505 c 128,-1,3
 30 513 30 513 30 528 c 256,4,5
 30 543 30 543 75 702 c 1,6,-1
 123 693 l 1,7,8
 105 561 105 561 105 541.5 c 128,-1,9
 105 522 105 522 116 506 c 1,0,1
EndSplineSet
EndChar

StartChar: quoteright
Encoding: 8217 8217 235
Width: 153
GlyphClass: 2
Flags: W
LayerCount: 2
Fore
SplineSet
37 693 m 1,0,1
 78 702 78 702 87.5 702 c 128,-1,2
 97 702 97 702 110 694 c 128,-1,3
 123 686 123 686 123 672 c 0,4,5
 123 656 123 656 78 497 c 1,6,-1
 30 506 l 1,7,8
 48 638 48 638 48 657.5 c 128,-1,9
 48 677 48 677 37 693 c 1,0,1
EndSplineSet
EndChar

StartChar: quotesinglbase
Encoding: 8218 8218 236
Width: 153
GlyphClass: 2
Flags: W
LayerCount: 2
Fore
SplineSet
37 125 m 1,0,1
 78 134 78 134 87.5 134 c 128,-1,2
 97 134 97 134 110 126 c 128,-1,3
 123 118 123 118 123 104 c 0,4,5
 123 88 123 88 78 -71 c 1,6,-1
 30 -62 l 1,7,8
 48 70 48 70 48 89.5 c 128,-1,9
 48 109 48 109 37 125 c 1,0,1
EndSplineSet
EndChar

StartChar: quotedblleft
Encoding: 8220 8220 237
Width: 266
GlyphClass: 2
Flags: W
LayerCount: 2
Fore
SplineSet
116 506 m 1,0,1
 75 497 75 497 65.5 497 c 128,-1,2
 56 497 56 497 43 505 c 128,-1,3
 30 513 30 513 30 528 c 256,4,5
 30 543 30 543 75 702 c 1,6,-1
 123 693 l 1,7,8
 105 561 105 561 105 541.5 c 128,-1,9
 105 522 105 522 116 506 c 1,0,1
229 506 m 1,10,11
 188 497 188 497 178.5 497 c 128,-1,12
 169 497 169 497 156 505 c 128,-1,13
 143 513 143 513 143 528 c 256,14,15
 143 543 143 543 188 702 c 1,16,-1
 236 693 l 1,17,18
 218 561 218 561 218 541.5 c 128,-1,19
 218 522 218 522 229 506 c 1,10,11
EndSplineSet
EndChar

StartChar: quotedblright
Encoding: 8221 8221 238
Width: 266
GlyphClass: 2
Flags: W
LayerCount: 2
Fore
SplineSet
37 689 m 1,0,1
 78 698 78 698 87.5 698 c 128,-1,2
 97 698 97 698 110 690 c 128,-1,3
 123 682 123 682 123 668 c 0,4,5
 123 652 123 652 78 493 c 1,6,-1
 30 502 l 1,7,8
 48 634 48 634 48 653.5 c 128,-1,9
 48 673 48 673 37 689 c 1,0,1
150 689 m 1,10,11
 191 698 191 698 200.5 698 c 128,-1,12
 210 698 210 698 223 690 c 128,-1,13
 236 682 236 682 236 668 c 0,14,15
 236 652 236 652 191 493 c 1,16,-1
 143 502 l 1,17,18
 161 634 161 634 161 653.5 c 128,-1,19
 161 673 161 673 150 689 c 1,10,11
EndSplineSet
EndChar

StartChar: quotedblbase
Encoding: 8222 8222 239
Width: 266
GlyphClass: 2
Flags: W
LayerCount: 2
Fore
SplineSet
37 127 m 1,0,1
 78 136 78 136 87.5 136 c 128,-1,2
 97 136 97 136 110 128 c 128,-1,3
 123 120 123 120 123 106 c 0,4,5
 123 90 123 90 78 -69 c 1,6,-1
 30 -60 l 1,7,8
 48 72 48 72 48 91.5 c 128,-1,9
 48 111 48 111 37 127 c 1,0,1
150 127 m 1,10,11
 191 136 191 136 200.5 136 c 128,-1,12
 210 136 210 136 223 128 c 128,-1,13
 236 120 236 120 236 106 c 0,14,15
 236 90 236 90 191 -69 c 1,16,-1
 143 -60 l 1,17,18
 161 72 161 72 161 91.5 c 128,-1,19
 161 111 161 111 150 127 c 1,10,11
EndSplineSet
EndChar

StartChar: bullet
Encoding: 8226 8226 240
Width: 238
GlyphClass: 2
Flags: W
LayerCount: 2
Fore
SplineSet
60 216 m 0,0,1
 60 279 60 279 122 279 c 0,2,3
 178 279 178 279 178 218 c 128,-1,4
 178 157 178 157 119 157 c 0,5,6
 91 157 91 157 75.5 172.5 c 128,-1,7
 60 188 60 188 60 216 c 0,0,1
EndSplineSet
EndChar

StartChar: ellipsis
Encoding: 8230 8230 241
Width: 624
GlyphClass: 2
Flags: W
LayerCount: 2
Fore
SplineSet
73 32 m 0,0,1
 73 79 73 79 119 79 c 0,2,3
 161 79 161 79 161 33.5 c 128,-1,4
 161 -12 161 -12 117 -12 c 128,-1,5
 73 -12 73 -12 73 32 c 0,0,1
268 32 m 0,6,7
 268 79 268 79 314 79 c 0,8,9
 356 79 356 79 356 33.5 c 128,-1,10
 356 -12 356 -12 312 -12 c 128,-1,11
 268 -12 268 -12 268 32 c 0,6,7
463 32 m 0,12,13
 463 79 463 79 509 79 c 0,14,15
 551 79 551 79 551 33.5 c 128,-1,16
 551 -12 551 -12 507 -12 c 128,-1,17
 463 -12 463 -12 463 32 c 0,12,13
EndSplineSet
EndChar

StartChar: guilsinglleft
Encoding: 8249 8249 242
Width: 354
GlyphClass: 2
Flags: W
LayerCount: 2
Fore
SplineSet
71 200 m 2,0,1
 60 210 60 210 60 222 c 0,2,3
 60 240 60 240 71 253 c 1,4,-1
 264 423 l 1,5,6
 271 423 271 423 282.5 403 c 128,-1,7
 294 383 294 383 294 375 c 1,8,-1
 141 226 l 1,9,-1
 294 77 l 1,10,11
 294 69 294 69 282.5 49 c 128,-1,12
 271 29 271 29 264 29 c 1,13,-1
 71 200 l 2,0,1
EndSplineSet
EndChar

StartChar: guilsinglright
Encoding: 8250 8250 243
Width: 354
GlyphClass: 2
Flags: W
LayerCount: 2
Fore
SplineSet
283 253 m 2,0,1
 294 242 294 242 294 230 c 0,2,3
 294 213 294 213 283 200 c 1,4,-1
 90 29 l 1,5,6
 83 29 83 29 71.5 49 c 128,-1,7
 60 69 60 69 60 77 c 1,8,-1
 213 226 l 1,9,-1
 60 375 l 1,10,11
 60 383 60 383 71.5 403 c 128,-1,12
 83 423 83 423 90 423 c 1,13,-1
 283 253 l 2,0,1
EndSplineSet
EndChar

StartChar: ampersand2
Encoding: 65540 -1 245
Width: 703
GlyphClass: 2
Flags: W
LayerCount: 2
Fore
SplineSet
239 430 m 2,0,1
 172 516 172 516 172 575.5 c 128,-1,2
 172 635 172 635 216 668.5 c 128,-1,3
 260 702 260 702 320 702 c 128,-1,4
 380 702 380 702 428 674 c 1,5,-1
 413 622 l 1,6,7
 377 638 377 638 338 638 c 0,8,9
 249 638 249 638 249 578 c 0,10,11
 249 563 249 563 253 553 c 128,-1,12
 257 543 257 543 259 537 c 128,-1,13
 261 531 261 531 266 522.5 c 128,-1,14
 271 514 271 514 273.5 509.5 c 128,-1,15
 276 505 276 505 282.5 496 c 128,-1,16
 289 487 289 487 291 484 c 0,17,18
 296 476 296 476 512 192 c 1,19,20
 538 286 538 286 538 396 c 1,21,-1
 693 409 l 1,22,-1
 688 354 l 1,23,-1
 609 339 l 1,24,25
 598 210 598 210 557 135 c 1,26,27
 626 45 626 45 691 45 c 1,28,-1
 693 -2 l 1,29,30
 682 -8 682 -8 647 -8 c 128,-1,31
 612 -8 612 -8 581 12 c 128,-1,32
 550 32 550 32 513 76 c 1,33,34
 442 -12 442 -12 318 -12 c 0,35,36
 228 -12 228 -12 166.5 45 c 128,-1,37
 105 102 105 102 105 191 c 0,38,39
 105 324 105 324 254 411 c 1,40,-1
 239 430 l 2,0,1
182 195 m 0,41,42
 182 131 182 131 222.5 92 c 128,-1,43
 263 53 263 53 329 53 c 0,44,45
 428 53 428 53 477 127 c 1,46,-1
 297 363 l 1,47,48
 246 332 246 332 214 286.5 c 128,-1,49
 182 241 182 241 182 195 c 0,41,42
EndSplineSet
EndChar

StartChar: Euro
Encoding: 65541 -1 246
Width: 585
GlyphClass: 2
Flags: W
LayerCount: 2
Fore
SplineSet
427 671 m 0,0,1
 491 671 491 671 550 651 c 1,2,-1
 535 595 l 1,3,4
 484 605 484 605 436 605 c 0,5,6
 330 605 330 605 281 554 c 128,-1,7
 232 503 232 503 223 399 c 1,8,-1
 534 412 l 1,9,10
 534 408 534 408 534 397 c 128,-1,11
 534 386 534 386 527 370 c 1,12,-1
 221 358 l 1,13,-1
 221 301 l 1,14,-1
 529 314 l 1,15,16
 529 310 529 310 529 299 c 128,-1,17
 529 288 529 288 522 272 c 1,18,-1
 223 261 l 1,19,20
 231 164 231 164 264 113 c 0,21,22
 301 54 301 54 390 54 c 128,-1,23
 479 54 479 54 549 112 c 1,24,-1
 565 61 l 1,25,26
 499 -12 499 -12 378.5 -12 c 128,-1,27
 258 -12 258 -12 205.5 57.5 c 128,-1,28
 153 127 153 127 143 258 c 1,29,-1
 70 255 l 1,30,-1
 72 295 l 1,31,-1
 141 298 l 1,32,-1
 141 355 l 1,33,-1
 75 353 l 1,34,-1
 77 393 l 1,35,-1
 143 396 l 1,36,37
 155 527 155 527 226.5 599 c 128,-1,38
 298 671 298 671 427 671 c 0,0,1
EndSplineSet
EndChar

StartChar: commaaccent
Encoding: 65542 -1 247
Width: 208
GlyphClass: 2
Flags: W
LayerCount: 2
Fore
SplineSet
135 -29 m 1,0,1
 153 -41 153 -41 153 -61 c 128,-1,2
 153 -81 153 -81 140 -105 c 1,3,-1
 101 -171 l 1,4,-1
 58 -149 l 1,5,-1
 76 -88 l 2,6,7
 85 -55 85 -55 79 -29 c 1,8,-1
 135 -29 l 1,0,1
EndSplineSet
EndChar

StartChar: grave.cap
Encoding: 65543 -1 248
Width: 301
GlyphClass: 2
Flags: W
LayerCount: 2
Fore
SplineSet
77 838 m 1,0,1
 83 846 83 846 99 846 c 128,-1,2
 115 846 115 846 159 812 c 1,3,-1
 241 751 l 1,4,-1
 219 723 l 1,5,-1
 60 795 l 1,6,-1
 77 838 l 1,0,1
EndSplineSet
EndChar

StartChar: acute.cap
Encoding: 65544 -1 249
Width: 301
GlyphClass: 2
Flags: W
LayerCount: 2
Fore
SplineSet
224 837 m 1,0,-1
 241 794 l 1,1,-1
 82 722 l 1,2,-1
 60 750 l 1,3,-1
 142 811 l 1,4,5
 186 845 186 845 201 845 c 128,-1,6
 216 845 216 845 224 837 c 1,0,-1
EndSplineSet
EndChar

StartChar: circumflex.cap
Encoding: 65545 -1 250
Width: 346
GlyphClass: 2
Flags: W
LayerCount: 2
Fore
SplineSet
82 724 m 1,0,-1
 60 752 l 1,1,-1
 129 833 l 1,2,-1
 200 842 l 1,3,4
 215 835 215 835 231 816 c 2,5,-1
 286 752 l 1,6,-1
 264 724 l 1,7,-1
 173 792 l 1,8,-1
 82 724 l 1,0,-1
EndSplineSet
EndChar

StartChar: dieresis.cap
Encoding: 65546 -1 251
Width: 332
GlyphClass: 2
Flags: W
LayerCount: 2
Fore
SplineSet
60 786 m 0,0,1
 60 830 60 830 103 830 c 0,2,3
 121 830 121 830 131.5 818.5 c 128,-1,4
 142 807 142 807 142 787.5 c 128,-1,5
 142 768 142 768 131 756.5 c 128,-1,6
 120 745 120 745 101 745 c 128,-1,7
 82 745 82 745 71 756 c 128,-1,8
 60 767 60 767 60 786 c 0,0,1
190 786 m 0,9,10
 190 830 190 830 233 830 c 0,11,12
 251 830 251 830 261.5 818.5 c 128,-1,13
 272 807 272 807 272 787.5 c 128,-1,14
 272 768 272 768 261 756.5 c 128,-1,15
 250 745 250 745 231 745 c 128,-1,16
 212 745 212 745 201 756 c 128,-1,17
 190 767 190 767 190 786 c 0,9,10
EndSplineSet
EndChar

StartChar: caron.cap
Encoding: 65547 -1 252
Width: 346
GlyphClass: 2
Flags: W
LayerCount: 2
Fore
SplineSet
115 574 m 2,0,-1
 60 638 l 1,1,-1
 82 666 l 1,2,-1
 173 598 l 1,3,-1
 264 666 l 1,4,-1
 286 638 l 1,5,-1
 217 557 l 1,6,-1
 146 548 l 1,7,8
 131 555 131 555 115 574 c 2,0,-1
EndSplineSet
EndChar

StartChar: ring.cap
Encoding: 65548 -1 253
Width: 310
GlyphClass: 2
Flags: W
LayerCount: 2
Fore
SplineSet
111 822 m 0,0,1
 111 778 111 778 155 778 c 128,-1,2
 199 778 199 778 199 823.5 c 128,-1,3
 199 869 199 869 157 869 c 0,4,5
 111 869 111 869 111 822 c 0,0,1
85.5 757 m 128,-1,7
 60 781 60 781 60 823.5 c 128,-1,8
 60 866 60 866 85.5 890 c 128,-1,9
 111 914 111 914 156 914 c 128,-1,10
 201 914 201 914 225.5 889.5 c 128,-1,11
 250 865 250 865 250 823.5 c 128,-1,12
 250 782 250 782 225 757.5 c 128,-1,13
 200 733 200 733 155.5 733 c 128,-1,6
 111 733 111 733 85.5 757 c 128,-1,7
EndSplineSet
EndChar

StartChar: tilde.cap
Encoding: 65549 -1 254
Width: 420
GlyphClass: 2
Flags: W
LayerCount: 2
Fore
SplineSet
90.5 827 m 128,-1,1
 112 847 112 847 139 847 c 0,2,3
 167 847 167 847 209 830 c 0,4,5
 267 807 267 807 279 807 c 0,6,7
 307 807 307 807 330 840 c 1,8,-1
 360 824 l 1,9,10
 351 786 351 786 329.5 766.5 c 128,-1,11
 308 747 308 747 283 747 c 128,-1,12
 258 747 258 747 205 767 c 128,-1,13
 152 787 152 787 143 787 c 0,14,15
 114 787 114 787 90 754 c 1,16,-1
 60 770 l 1,17,0
 69 807 69 807 90.5 827 c 128,-1,1
EndSplineSet
EndChar

StartChar: dotaccentcmb.cap
Encoding: 65550 -1 255
Width: 208
GlyphClass: 2
Flags: W
LayerCount: 2
Fore
SplineSet
60 768 m 0,0,1
 60 815 60 815 106 815 c 0,2,3
 148 815 148 815 148 769.5 c 128,-1,4
 148 724 148 724 104 724 c 128,-1,5
 60 724 60 724 60 768 c 0,0,1
EndSplineSet
EndChar
